<svg xmlns="http://www.w3.org/2000/svg" width="13.623" height="16.963" viewBox="0 0 13.623 16.963">
  <path id="admin-grey" d="M142.762,44.607a3.773,3.773,0,0,1-.031.473c.009-.063.018-.128.025-.191a3.69,3.69,0,0,1-.246.908c.023-.058.049-.115.072-.173a3.59,3.59,0,0,1-.464.795l.113-.146a3.656,3.656,0,0,1-.645.645l.146-.113a3.661,3.661,0,0,1-.795.464l.173-.072a3.69,3.69,0,0,1-.908.246c.063-.009.128-.018.191-.025a3.62,3.62,0,0,1-.946,0c.063.009.128.018.191.025a3.691,3.691,0,0,1-.908-.246l.173.072a3.59,3.59,0,0,1-.795-.464l.146.113a3.655,3.655,0,0,1-.645-.645l.113.146a3.661,3.661,0,0,1-.464-.795c.023.058.049.115.072.173a3.69,3.69,0,0,1-.246-.908c.009.063.018.128.025.191a3.62,3.62,0,0,1,0-.946c-.009.063-.018.128-.025.191a3.689,3.689,0,0,1,.246-.908c-.023.058-.049.115-.072.173a3.59,3.59,0,0,1,.464-.795l-.113.146a3.654,3.654,0,0,1,.645-.645l-.146.113a3.661,3.661,0,0,1,.795-.464l-.173.072a3.691,3.691,0,0,1,.908-.246c-.063.009-.128.018-.191.025a3.62,3.62,0,0,1,.946,0c-.063-.009-.128-.018-.191-.025a3.691,3.691,0,0,1,.908.246l-.173-.072a3.59,3.59,0,0,1,.795.464l-.146-.113a3.655,3.655,0,0,1,.645.645l-.113-.146a3.662,3.662,0,0,1,.464.795c-.023-.058-.049-.115-.072-.173a3.69,3.69,0,0,1,.246.908c-.009-.063-.018-.128-.025-.191a4.148,4.148,0,0,1,.031.473.719.719,0,1,0,1.438,0,4.239,4.239,0,0,0-.769-2.443,4.934,4.934,0,0,0-.444-.541,4.581,4.581,0,0,0-.53-.457,4.231,4.231,0,0,0-1.122-.6,4.29,4.29,0,0,0-4.68,1.273,4.727,4.727,0,0,0-.417.579,4.424,4.424,0,0,0-.306.638,4.268,4.268,0,0,0,2.156,5.417,4,4,0,0,0,1.406.39,4.26,4.26,0,0,0,4.637-3.516,4.822,4.822,0,0,0,.067-.737.717.717,0,0,0-1.435-.005Zm2.386,11.242h-9.224c-.408,0-.816,0-1.224,0a1.078,1.078,0,0,1-.133-.009c.063.009.128.018.191.025a.9.9,0,0,1-.207-.058l.173.072a.911.911,0,0,1-.2-.119l.146.113a1.039,1.039,0,0,1-.147-.147l.113.146a.989.989,0,0,1-.119-.2c.023.058.049.115.072.173a1.04,1.04,0,0,1-.058-.207c.009.063.018.128.025.191a5.158,5.158,0,0,1-.009-.667V54.39a4.366,4.366,0,0,1,.036-.574c-.009.063-.018.128-.025.191a4.205,4.205,0,0,1,.293-1.073c-.023.058-.049.115-.072.173a4.227,4.227,0,0,1,.538-.917l-.113.146a4.268,4.268,0,0,1,.748-.748l-.146.113a4.227,4.227,0,0,1,.917-.538l-.173.072a4.259,4.259,0,0,1,1.073-.293c-.063.009-.128.018-.191.025a6.229,6.229,0,0,1,.8-.036h3.29a6.989,6.989,0,0,1,.888.036c-.063-.009-.128-.018-.191-.025a4.206,4.206,0,0,1,1.073.293l-.173-.072a4.228,4.228,0,0,1,.917.538l-.146-.113a4.268,4.268,0,0,1,.748.748l-.113-.146a4.228,4.228,0,0,1,.538.917c-.023-.058-.049-.115-.072-.173a4.259,4.259,0,0,1,.293,1.073c-.009-.063-.018-.128-.025-.191a6.484,6.484,0,0,1,.036.814v.89a2.469,2.469,0,0,1-.009.306c.009-.063.018-.128.025-.191a.9.9,0,0,1-.058.207c.023-.058.049-.115.072-.173a.912.912,0,0,1-.119.2l.113-.146a1.04,1.04,0,0,1-.147.147l.146-.113a.988.988,0,0,1-.2.119l.173-.072a1.039,1.039,0,0,1-.207.058c.063-.009.128-.018.191-.025-.04.005-.081.007-.122.009a.75.75,0,0,0-.509.21.72.72,0,0,0,.509,1.228,1.611,1.611,0,0,0,1.519-1.138,2.827,2.827,0,0,0,.063-.825,10.794,10.794,0,0,0-.088-1.866,4.868,4.868,0,0,0-3.6-3.815A6.388,6.388,0,0,0,141.5,49.5h-3.189a6.1,6.1,0,0,0-1.584.164,4.87,4.87,0,0,0-3.538,3.858,11.725,11.725,0,0,0-.077,1.846,2.388,2.388,0,0,0,.086.852,1.683,1.683,0,0,0,.656.831,1.587,1.587,0,0,0,.838.241c.14,0,.28,0,.421,0h10.039a.72.72,0,0,0,0-1.44Z" transform="translate(-133.108 -40.327)" fill="#88b1b1"/>
</svg>
