<svg xmlns="http://www.w3.org/2000/svg" width="32.1" height="19.1" viewBox="0 0 32.1 19.1">
  <path id="bed" d="M1.5,5.994A1.508,1.508,0,0,0,0,7.494v8.463q0,.018,0,.037v8.5a.5.5,0,0,0,1,0v-1.5H31v1.5a.5.5,0,1,0,1,0v-8.5a2.006,2.006,0,0,0-2-2A2.007,2.007,0,0,0,28,12H6.906A1.5,1.5,0,0,0,5.5,11h-2a1.47,1.47,0,0,0-.5.092v-3.6A1.508,1.508,0,0,0,1.5,5.994Zm0,1a.488.488,0,0,1,.5.5v6.92a.5.5,0,0,0,0,.16v4.42H1V7.494a.488.488,0,0,1,.5-.5ZM3.5,12h2a.484.484,0,0,1,.494.467A.5.5,0,0,0,6,12.582v1.412H3V12.5A.488.488,0,0,1,3.5,12ZM7,13H28a.986.986,0,0,1,1,.994H7ZM3,14.994H6.393a.5.5,0,0,0,.214,0H30a.987.987,0,0,1,1,1v3H3Zm-2,5H31v2H1Z" transform="translate(0.05 -5.944)" fill="#88b1b1" stroke="#87adad" stroke-width="0.1"/>
</svg>
