<svg xmlns="http://www.w3.org/2000/svg" width="13.977" height="19.915" viewBox="0 0 13.977 19.915">
  <g id="bibendum" transform="translate(-509.321 -293.229)">
    <path id="Path_1100" data-name="Path 1100" d="M523.048,303.161a4.412,4.412,0,0,0-4-4.376v-1.561a3.755,3.755,0,0,0-3.745-3.745h-1.988a3.755,3.755,0,0,0-3.745,3.745v15.257a.412.412,0,0,0,.824,0V297.224a2.924,2.924,0,0,1,2.921-2.921H515.3a2.924,2.924,0,0,1,2.921,2.921v1.561a4.412,4.412,0,0,0-4,4.392.412.412,0,0,0,.412.412h8a.412.412,0,0,0,.412-.412C523.048,303.172,523.048,303.167,523.048,303.161Zm-7.975-.4a3.587,3.587,0,0,1,7.127,0Z" fill="#88b1b1" stroke="#88b1b1" stroke-width="0.5"/>
    <path id="Path_1101" data-name="Path 1101" d="M903.943,1076.791a.412.412,0,0,0-.412.412v1.925a.412.412,0,1,0,.824,0V1077.2A.412.412,0,0,0,903.943,1076.791Zm3.24,0a.412.412,0,0,0-.412.412v1.925a.412.412,0,1,0,.824,0V1077.2A.412.412,0,0,0,907.183,1076.791Zm3.24,0a.412.412,0,0,0-.412.412v1.925a.412.412,0,1,0,.824,0V1077.2A.412.412,0,0,0,910.423,1076.791Z" transform="translate(-388.546 -772.549)" fill="#88b1b1" stroke="#88b1b1" stroke-width="0.5"/>
  </g>
</svg>
