<svg xmlns="http://www.w3.org/2000/svg" width="17.814" height="19.626" viewBox="0 0 17.814 19.626">
  <g id="calender" transform="translate(0.75 0.75)">
    <line id="Line_9" data-name="Line 9" x2="16.154" transform="translate(0.084 6.71)" fill="none" stroke="#fff" stroke-linecap="round" stroke-linejoin="round" stroke-width="1.5"/>
    <line id="Line_10" data-name="Line 10" x2="0.008" transform="translate(12.183 10.25)" fill="none" stroke="#fff" stroke-linecap="round" stroke-linejoin="round" stroke-width="1.5"/>
    <line id="Line_11" data-name="Line 11" x2="0.008" transform="translate(8.161 10.25)" fill="none" stroke="#fff" stroke-linecap="round" stroke-linejoin="round" stroke-width="1.5"/>
    <line id="Line_12" data-name="Line 12" x2="0.008" transform="translate(4.131 10.25)" fill="none" stroke="#fff" stroke-linecap="round" stroke-linejoin="round" stroke-width="1.5"/>
    <line id="Line_13" data-name="Line 13" x2="0.008" transform="translate(12.183 13.772)" fill="none" stroke="#fff" stroke-linecap="round" stroke-linejoin="round" stroke-width="1.5"/>
    <line id="Line_14" data-name="Line 14" x2="0.008" transform="translate(8.161 13.772)" fill="none" stroke="#fff" stroke-linecap="round" stroke-linejoin="round" stroke-width="1.5"/>
    <line id="Line_15" data-name="Line 15" x2="0.008" transform="translate(4.131 13.772)" fill="none" stroke="#fff" stroke-linecap="round" stroke-linejoin="round" stroke-width="1.5"/>
    <line id="Line_16" data-name="Line 16" y2="2.983" transform="translate(11.822)" fill="none" stroke="#fff" stroke-linecap="round" stroke-linejoin="round" stroke-width="1.5"/>
    <line id="Line_17" data-name="Line 17" y2="2.983" transform="translate(4.501)" fill="none" stroke="#fff" stroke-linecap="round" stroke-linejoin="round" stroke-width="1.5"/>
    <path id="Path_279" data-name="Path 279" d="M12,1.579H4.324C1.662,1.579,0,3.062,0,5.787v8.2c0,2.768,1.662,4.285,4.324,4.285H11.99c2.67,0,4.324-1.491,4.324-4.217V5.787C16.322,3.062,14.668,1.579,12,1.579Z" transform="translate(0 -0.148)" fill="none" stroke="#fff" stroke-linecap="round" stroke-linejoin="round" stroke-width="1.5" fill-rule="evenodd"/>
  </g>
</svg>
