<svg xmlns="http://www.w3.org/2000/svg" width="17.351" height="17.32" viewBox="0 0 17.351 17.32">
  <g id="consecteur" transform="translate(-63.735 -63.75)">
    <path id="Path_1095" data-name="Path 1095" d="M356.023,169.2a1.824,1.824,0,0,0-.934-1.074,1.452,1.452,0,0,0-.6-.13,2.734,2.734,0,0,0-2.218,2.035c-.556,1.508-.233,2.984.752,3.435a1.5,1.5,0,0,0,.63.137,2.709,2.709,0,0,0,2.259-1.866A3.583,3.583,0,0,0,356.023,169.2Zm-.771,2.225a2.041,2.041,0,0,1-1.615,1.406.839.839,0,0,1-.349-.074c-.619-.28-.782-1.36-.373-2.46.341-.912.983-1.549,1.563-1.549a.784.784,0,0,1,.322.07,1.122,1.122,0,0,1,.55.646A2.733,2.733,0,0,1,355.251,171.429Z" transform="translate(-275.385 -99.445)" fill="#88b1b1" stroke="#88b1b1" stroke-width="0.5"/>
    <path id="Path_1096" data-name="Path 1096" d="M67.934,170.035A2.734,2.734,0,0,0,65.716,168a1.453,1.453,0,0,0-.6.13,1.824,1.824,0,0,0-.934,1.074,3.582,3.582,0,0,0,.109,2.536,2.709,2.709,0,0,0,2.259,1.866,1.5,1.5,0,0,0,.63-.137c.985-.451,1.308-1.927.752-3.435Zm-1.016,2.726a.839.839,0,0,1-.349.074,2.041,2.041,0,0,1-1.615-1.406,2.733,2.733,0,0,1-.1-1.961,1.122,1.122,0,0,1,.55-.646.784.784,0,0,1,.322-.07c.58,0,1.222.637,1.563,1.549C67.7,171.4,67.537,172.481,66.918,172.761Z" transform="translate(0 -99.445)" fill="#88b1b1" stroke="#88b1b1" stroke-width="0.5"/>
    <path id="Path_1097" data-name="Path 1097" d="M144.221,70.421a1.726,1.726,0,0,0,.244-.007,1.815,1.815,0,0,0,1.236-.7,3.823,3.823,0,0,0,.578-2.779c-.174-1.651-1.045-2.884-2.214-2.935,0,0-.167,0-.252.008a2,2,0,0,0-1.356.775,3.631,3.631,0,0,0-.692,2.633C141.937,69.049,143.016,70.369,144.221,70.421Zm-1.2-5.2a1.312,1.312,0,0,1,.859-.5,1.059,1.059,0,0,1,.149,0c.8.035,1.4,1.019,1.53,2.3a3.158,3.158,0,0,1-.431,2.268,1.093,1.093,0,0,1-.739.43,1.02,1.02,0,0,1-.141,0c-.843-.037-1.639-1.1-1.773-2.368A2.9,2.9,0,0,1,143.026,65.219Z" transform="translate(-74.336)" fill="#88b1b1" stroke="#88b1b1" stroke-width="0.5"/>
    <path id="Path_1098" data-name="Path 1098" d="M133.607,240c-2.8,0-5.607,3.332-5.607,6.532a2.513,2.513,0,0,0,.949,2.038,2.809,2.809,0,0,0,1.841.541,2.476,2.476,0,0,0,1.758-.666,1.541,1.541,0,0,1,2.117,0,2.476,2.476,0,0,0,1.758.666,2.809,2.809,0,0,0,1.841-.541,2.513,2.513,0,0,0,.949-2.038C139.213,243.332,136.41,240,133.607,240Zm4.291,7.918a2.164,2.164,0,0,1-1.475.428,1.54,1.54,0,0,1-1.135-.373c-.081-.059-.165-.12-.26-.183a2.167,2.167,0,0,0-2.842,0c-.1.063-.18.124-.26.183a1.54,1.54,0,0,1-1.135.373,2.164,2.164,0,0,1-1.475-.428,1.731,1.731,0,0,1-.615-1.386,6.442,6.442,0,0,1,1.567-3.978,5.928,5.928,0,0,1,1.6-1.353,3.271,3.271,0,0,1,3.477,0,5.927,5.927,0,0,1,1.6,1.353,6.442,6.442,0,0,1,1.567,3.978A1.731,1.731,0,0,1,137.9,247.918Z" transform="translate(-61.196 -168.291)" fill="#88b1b1" stroke="#88b1b1" stroke-width="0.5"/>
    <path id="Path_1099" data-name="Path 1099" d="M267.907,70.408a1.719,1.719,0,0,0,.244.007c1.205-.052,2.284-1.372,2.456-3.005a3.631,3.631,0,0,0-.692-2.633,1.944,1.944,0,0,0-1.339-.762c-.085-.008-.269-.014-.269-.014-1.169.051-2.039,1.275-2.214,2.927a3.824,3.824,0,0,0,.578,2.779A1.815,1.815,0,0,0,267.907,70.408ZM266.808,67c.135-1.277.733-2.262,1.53-2.3a1.052,1.052,0,0,1,.149,0,1.311,1.311,0,0,1,.859.5,2.9,2.9,0,0,1,.546,2.123c-.134,1.269-.929,2.332-1.773,2.368a1.022,1.022,0,0,1-.141,0,1.094,1.094,0,0,1-.739-.43A3.159,3.159,0,0,1,266.808,67Z" transform="translate(-193.207 -0.001)" fill="#88b1b1" stroke="#88b1b1" stroke-width="0.5"/>
  </g>
</svg>
