<svg xmlns="http://www.w3.org/2000/svg" width="203" height="203" viewBox="0 0 203 203">
  <g id="environment-abs4" transform="translate(-248.5 -2951.193)">
    <g id="Group_173" data-name="Group 173">
      <g id="Group_172" data-name="Group 172" transform="translate(-25.5 1371.134)">
        <g id="Group_171" data-name="Group 171">
          <g id="Group_170" data-name="Group 170">
            <g id="Group_168" data-name="Group 168">
              <g id="Group_167" data-name="Group 167">
                <circle id="Ellipse_60" data-name="Ellipse 60" cx="90.5" cy="90.5" r="90.5" transform="translate(285 1591.058)" fill="#fff"/>
              </g>
            </g>
          </g>
        </g>
      </g>
      <g id="Group_166" data-name="Group 166">
        <g id="Ellipse_61" data-name="Ellipse 61" transform="translate(248.5 2951.193)" fill="none" stroke="#fff" stroke-width="2">
          <circle cx="101.5" cy="101.5" r="101.5" stroke="none"/>
          <circle cx="101.5" cy="101.5" r="100.5" fill="none"/>
        </g>
        <path id="Path_1089" data-name="Path 1089" d="M31.172,7a4.922,4.922,0,0,0,0,9.844,1.641,1.641,0,0,0,0-3.281,1.641,1.641,0,1,1,0-3.281h7.777L27.359,31.527a19.971,19.971,0,1,0,2.891,1.549l6.169-11.31H64.211L52.569,43.1l-.062-.007V43.1l-.059-.007a6.531,6.531,0,0,0-1.372.154L48.687,39.1l1.037-.594h-.276a1.643,1.643,0,1,0-.164-3.281v-.007a1.641,1.641,0,0,0-.82.23L42.788,38.73a1.641,1.641,0,1,0,1.641,2.838l1.421-.82,2.307,4a6.513,6.513,0,0,0-2.271,4.909,6.584,6.584,0,0,0,6.507,6.556v.013l2.32-.115,1.795,3.1-1.417.82a1.642,1.642,0,1,0,1.641,2.845l2.737-1.582.039-.02.128-.075,2.4-1.385h-.282a1.645,1.645,0,1,0-.978-3.065l-1.417.82L58.4,55.917l8.115-.41a19.689,19.689,0,1,0,18.8-25.538A19.513,19.513,0,0,0,78.1,31.36L69.425,19.068l2.563-4.7.955-1.614a1.641,1.641,0,0,0-1.411-2.474H63.87A4.947,4.947,0,0,0,58.948,15.2a1.641,1.641,0,0,0,3.281,0,1.6,1.6,0,0,1,1.641-1.641h4.82L66,18.484H38.213l4.033-7.4L43.2,9.474A1.641,1.641,0,0,0,41.79,7Zm36.5,15.271L75.128,32.84a19.766,19.766,0,0,0-8.617,10.972L56.2,43.287ZM19.688,33.25a16.364,16.364,0,0,1,6.083,1.191L20.127,44.777c-.144-.01-.285-.043-.44-.043a4.922,4.922,0,1,0,4.922,4.922,4.889,4.889,0,0,0-1.493-3.5l5.568-10.2a16.387,16.387,0,1,1-9-2.7Zm65.625,0a16.406,16.406,0,1,1-15.35,22.078l15.12-.776c.075,0,.151.026.23.026a4.9,4.9,0,0,0,2.947-8.827l-8.17-11.58a16.308,16.308,0,0,1,5.224-.922Zm-8.269,2.3,6.441,9.125-13.519-.689a16.321,16.321,0,0,1,7.078-8.433Zm-24.6,10.825a3.278,3.278,0,1,1,.033,6.556h-.049a3.278,3.278,0,0,1,.016-6.556Zm5.8.3,7.57.39a19.623,19.623,0,0,0-.194,2.6,19.366,19.366,0,0,0,.194,2.6l-7.563.384a6.247,6.247,0,0,0-.007-5.965Zm10.858.558,11.648.594a4.817,4.817,0,0,0-.007,3.675l-11.642.591a16.578,16.578,0,0,1-.2-2.431,16.873,16.873,0,0,1,.2-2.428Zm-49.419.788a1.65,1.65,0,1,1-1.641,1.641A1.617,1.617,0,0,1,19.688,48.016Zm65.746.026a1.629,1.629,0,0,1-.121,3.255.613.613,0,0,1-.082-.013v-.02l-.072.007a1.616,1.616,0,0,1,0-3.222l.276.013v-.02Z" transform="translate(297.5 3009.828)" fill="#1c2f2b" fill-rule="evenodd"/>
      </g>
    </g>
  </g>
</svg>
