<svg xmlns="http://www.w3.org/2000/svg" width="203" height="203" viewBox="0 0 203 203">
  <g id="environment-abs" transform="translate(-948.5 -918.819)">
    <circle id="Ellipse_50" data-name="Ellipse 50" cx="90.5" cy="90.5" r="90.5" transform="translate(959.5 929.819)" fill="#fff"/>
    <g id="Ellipse_51" data-name="Ellipse 51" transform="translate(948.5 918.819)" fill="none" stroke="#fff" stroke-width="2">
      <circle cx="101.5" cy="101.5" r="101.5" stroke="none"/>
      <circle cx="101.5" cy="101.5" r="100.5" fill="none"/>
    </g>
    <path id="Path_1076" data-name="Path 1076" d="M71.044,62.464a1.262,1.262,0,0,0-.024-.247c-.083-18.8-9.644-19.7-18.083-20.485-4.889-.458-9.507-.891-12.845-4.228-9.484-9.486-5.805-30.851-5.767-31.066a1.224,1.224,0,0,0-1.4-1.422L23.7,6.472a1.223,1.223,0,0,0-1.023,1.065l-.422,3.576H6.225A1.222,1.222,0,0,0,5,12.336V62.452s0,.009,0,.012V69.8a1.222,1.222,0,0,0,1.223,1.223h6.125A1.222,1.222,0,0,0,13.571,69.8V67.354h1.21V69.8A1.222,1.222,0,0,0,16,71.022h6.113A1.222,1.222,0,0,0,23.34,69.8V67.354h1.223V69.8a1.222,1.222,0,0,0,1.223,1.223H39.234A1.222,1.222,0,0,0,40.456,69.8V67.354h1.223V69.8A1.222,1.222,0,0,0,42.9,71.022h6.113A1.222,1.222,0,0,0,50.237,69.8V67.354H51.46V69.8a1.222,1.222,0,0,0,1.223,1.223H58.8A1.222,1.222,0,0,0,60.019,69.8V67.354h1.21V69.8a1.222,1.222,0,0,0,1.223,1.223h7.336A1.222,1.222,0,0,0,71.01,69.8l.012-7.231C71.026,62.534,71.044,62.5,71.044,62.464Zm-47.7-48.905a1.222,1.222,0,0,0,1.214-1.08L25,8.742l6.666-1.051a66.587,66.587,0,0,0-.536,9.535H25.787a1.223,1.223,0,1,0,0,2.445h5.431c.094,1.592.258,3.235.523,4.891H27.009a1.223,1.223,0,0,0,0,2.445h5.206a32.341,32.341,0,0,0,1.5,4.891H29.454a1.223,1.223,0,0,0,0,2.445h5.394a20.8,20.8,0,0,0,2.44,3.668H33.121a1.223,1.223,0,1,0,0,2.445h6.652c3.757,2.845,8.412,3.285,12.934,3.709,8.3.776,15.5,1.451,15.853,17.075H23.3c-.226-5.02-1.828-8.973-4.81-11.734a17.228,17.228,0,0,0-11.04-4.175V13.558ZM7.448,47.784a14.848,14.848,0,0,1,9.38,3.518c2.471,2.289,3.813,5.635,4.027,9.94H7.448ZM63.674,68.577V66.132a1.222,1.222,0,0,0-1.223-1.223H58.8a1.222,1.222,0,0,0-1.223,1.223v2.445H53.905V66.132a1.222,1.222,0,0,0-1.223-1.223H49.015a1.222,1.222,0,0,0-1.223,1.223v2.445H44.124V66.132A1.222,1.222,0,0,0,42.9,64.909H39.234a1.222,1.222,0,0,0-1.223,1.223v2.445h-11V66.132a1.222,1.222,0,0,0-1.223-1.223H22.117a1.222,1.222,0,0,0-1.223,1.223v2.445H17.226V66.132A1.222,1.222,0,0,0,16,64.909H12.348a1.222,1.222,0,0,0-1.223,1.223v2.445H7.445V63.686H68.575l-.007,4.891Z" transform="translate(1008.735 983.724) rotate(-9)" fill="#1c2f2b"/>
  </g>
</svg>
