<svg xmlns="http://www.w3.org/2000/svg" width="203" height="203" viewBox="0 0 203 203">
  <g id="environment-abs3" transform="translate(-948.5 -2272.819)">
    <circle id="Ellipse_70" data-name="Ellipse 70" cx="90.5" cy="90.5" r="90.5" transform="translate(959.5 2283.819)" fill="#fff"/>
    <g id="Ellipse_71" data-name="Ellipse 71" transform="translate(948.5 2272.819)" fill="none" stroke="#fff" stroke-width="2">
      <circle cx="101.5" cy="101.5" r="101.5" stroke="none"/>
      <circle cx="101.5" cy="101.5" r="100.5" fill="none"/>
    </g>
    <g id="Group_140" data-name="Group 140" transform="translate(1006.785 2331.407)">
      <path id="Path_1077" data-name="Path 1077" d="M17.052,83.858a11.184,11.184,0,0,1-7.118-2.136,7.526,7.526,0,0,1-2.958-6.38c1.3-16.891,33.13-17.568,34.484-17.588h.971c1.374.022,33.2.7,34.5,17.59a7.527,7.527,0,0,1-2.952,6.379c-2.333,1.83-6.9,3.418-15.38.615a66.032,66.032,0,0,1-16.643-8.279,66.01,66.01,0,0,1-16.639,8.278,26.588,26.588,0,0,1-8.261,1.522ZM44.26,72.4a63.487,63.487,0,0,0,15.162,7.425c5.75,1.9,10.338,1.835,12.915-.185a4.844,4.844,0,0,0,1.945-4.088C73.174,61.051,42.719,60.407,42.411,60.4H41.48c-.287,0-30.746.649-31.861,15.143a4.846,4.846,0,0,0,1.949,4.09c2.578,2.022,7.165,2.087,12.917.185a63.454,63.454,0,0,0,15.162-7.425,44.04,44.04,0,0,1-4.471-3.8,1.325,1.325,0,1,1,1.887-1.86,45.3,45.3,0,0,0,4.889,4.054,45.117,45.117,0,0,0,4.886-4.053,1.325,1.325,0,1,1,1.887,1.86,44.083,44.083,0,0,1-4.464,3.8ZM62.1,53.365A1.325,1.325,0,0,1,60.77,52.04V44.528a17.555,17.555,0,0,0-35.109,0V52.04a1.325,1.325,0,1,1-2.65,0V44.528a20.2,20.2,0,1,1,40.409,0V52.04A1.325,1.325,0,0,1,62.1,53.365Z" transform="translate(-0.001 -3.046)" fill="#1c2f2b"/>
      <path id="Path_1078" data-name="Path 1078" d="M16.308,58.345A9.363,9.363,0,0,1,6.958,49v-2.6a1.326,1.326,0,0,1,2.651,0v2.6a6.7,6.7,0,1,0,13.4,0v-2.6a1.325,1.325,0,1,1,2.65,0v2.6a9.363,9.363,0,0,1-9.353,9.352Zm53.811,0A9.362,9.362,0,0,1,60.769,49v-2.6a1.325,1.325,0,1,1,2.65,0v2.6a6.7,6.7,0,1,0,13.4,0v-2.6a1.326,1.326,0,0,1,2.651,0v2.6a9.364,9.364,0,0,1-9.353,9.352ZM43.8,23.928a9.464,9.464,0,1,1,9.465-9.464A9.463,9.463,0,0,1,43.8,23.928Zm0-16.277a6.814,6.814,0,1,0,6.815,6.814A6.814,6.814,0,0,0,43.8,7.651Zm-.216,42.83c-.128,0-.253,0-.385,0a1.323,1.323,0,0,1-1.269-1.622c.026-.108,2.658-10.866,14.638-10.229a1.322,1.322,0,0,1,1.246,1.483C57.8,40.215,56.388,50.481,43.58,50.481Zm11.2-9.209a10.812,10.812,0,0,0-9.663,6.5c6.523-.52,8.855-4.331,9.658-6.5Z" fill="#1c2f2b"/>
      <path id="Path_1079" data-name="Path 1079" d="M46.9,56.769C34.09,56.769,32.682,46.5,32.667,46.4a1.323,1.323,0,0,1,1.247-1.483C45.9,44.249,48.529,55.035,48.557,55.143a1.322,1.322,0,0,1-1.269,1.622C47.159,56.767,47.029,56.769,46.9,56.769ZM35.7,47.559c.8,2.167,3.135,5.981,9.667,6.5a10.822,10.822,0,0,0-9.667-6.5Z" transform="translate(-4.051 -6.288)" fill="#1c2f2b"/>
      <path id="Path_1080" data-name="Path 1080" d="M46.816,50.829a1.326,1.326,0,0,1-1.259-.915A12.13,12.13,0,0,1,48.578,36.99a1.29,1.29,0,0,1,1.011-.313,1.324,1.324,0,0,1,.916.522c3.66,4.886,3.463,9.36,2.653,12.254a1.324,1.324,0,0,1-2.551-.712A10.619,10.619,0,0,0,49.3,40.148a9.655,9.655,0,0,0-1.226,8.942,1.328,1.328,0,0,1-1.258,1.737Z" transform="translate(-5.97 -4.992)" fill="#1c2f2b"/>
    </g>
  </g>
</svg>
