<svg xmlns="http://www.w3.org/2000/svg" xmlns:xlink="http://www.w3.org/1999/xlink" width="401.232" height="501.579" viewBox="0 0 401.232 501.579">
  <defs>
    <clipPath id="clip-path">
      <rect x="485" y="312" width="401.232" height="501.579" fill="none"/>
    </clipPath>
    <clipPath id="clip-path-2">
      <rect id="Rectangle_456" data-name="Rectangle 456" width="1685.232" height="1191.579" fill="none" stroke="#707070" stroke-width="2"/>
    </clipPath>
    <clipPath id="clip-path-3">
      <rect id="Rectangle_457" data-name="Rectangle 457" width="1685.232" height="1191.579" fill="none"/>
    </clipPath>
  </defs>
  <g id="flower2" transform="translate(-485 -312)" opacity="0.223" clip-path="url(#clip-path)" style="isolation: isolate">
    <g id="Group_78" data-name="Group 78" transform="translate(0 52)">
      <g id="Group_75" data-name="Group 75" transform="translate(-297 -70)">
        <g id="Group_74" data-name="Group 74" transform="translate(-37 14.579)" clip-path="url(#clip-path-2)">
          <path id="Path_594" data-name="Path 594" d="M325.945,324.934c-6.49,2.825-31.535,11.506-49.279,23.376,0,0,8.525-36.736,42.873-65.462,11.212-9.38,44.52-20.436,55.506,6.654,11.374,28.046-27.771,26.148-49.1,35.433" transform="translate(754.346 272.919)" fill="none" stroke="#fff" stroke-width="2"/>
          <path id="Path_595" data-name="Path 595" d="M435.7,350.19c11.214-9.378,44.52-20.435,55.506,6.654,11.374,28.048-27.77,26.148-49.1,35.433-6.489,2.824-31.535,11.506-49.28,23.376,0,0,8.525-36.736,42.873-65.462" transform="translate(405.678 340.379)" fill="none" stroke="#fff" stroke-width="2"/>
          <path id="Path_596" data-name="Path 596" d="M486.217,278.141s-19.754-20.732-23.658-54.507c-1.275-11.025,5.6-36.772,27.371-32.444,22.54,4.48,5.01,28.527,2.007,45.932-.914,5.294-5.851,24.809-5.721,41.02" transform="translate(258.346 191.033)" fill="none" stroke="#fff" stroke-width="2"/>
          <path id="Path_597" data-name="Path 597" d="M416.34,276.687c-.914,5.295-5.851,24.807-5.721,41.019,0,0-19.753-20.732-23.658-54.507-1.273-11.026,5.6-36.772,27.371-32.446,22.541,4.48,5.01,28.528,2.007,45.933" transform="translate(485.268 230.666)" fill="none" stroke="#fff" stroke-width="2"/>
          <path id="Path_598" data-name="Path 598" d="M351.158,369.905s-23.386-24.543-28.01-64.532c-1.509-13.056,6.63-43.537,32.408-38.415,26.684,5.3,5.931,33.775,2.374,54.383-1.081,6.27-6.926,29.371-6.772,48.564" transform="translate(669.754 266.843)" fill="none" stroke="#fff" stroke-width="2"/>
          <path id="Path_599" data-name="Path 599" d="M491.723,295.981c18.788,25.4-21.284,33.655-40.438,48.584-5.825,4.542-28.895,19.829-43.754,36.441,0,0-.923-39.36,26.341-77.331,8.9-12.4,39.7-32.231,57.851-7.695" transform="translate(372.862 284.792)" fill="none" stroke="#fff" stroke-width="2"/>
          <path id="Path_600" data-name="Path 600" d="M396.682,342.933s3.465,63.426-98.255,94.92c0,0,15.125-79.527,98.255-94.92" transform="translate(691.165 343.524)" fill="none" stroke="#fff" stroke-width="2"/>
          <path id="Path_601" data-name="Path 601" d="M444.915,166.653s29.171,35.514-16.682,97.426c0,0-25.218-52.862,16.682-97.426" transform="translate(389.027 166.94)" fill="none" stroke="#fff" stroke-width="2"/>
          <path id="Path_602" data-name="Path 602" d="M404.495,175.1s27.96,36.476-19.949,96.81c0,0-23.428-53.678,19.949-96.81" transform="translate(515.518 175.406)" fill="none" stroke="#fff" stroke-width="2"/>
          <path id="Path_603" data-name="Path 603" d="M466.427,295.143s17.579,22.934-12.543,60.866c0,0-14.729-33.749,12.543-60.866" transform="translate(313.105 295.652)" fill="none" stroke="#fff" stroke-width="2"/>
          <path id="Path_604" data-name="Path 604" d="M461.934,264.43s-1.541,28.855-49.086,38.113c0,0,10.735-35.224,49.086-38.113" transform="translate(396.89 264.886)" fill="none" stroke="#fff" stroke-width="2"/>
          <path id="Path_605" data-name="Path 605" d="M302.1,306.155s-5.585-36.4,27.728-55.618c0,0,11.111,26.673-27.728,55.618" transform="translate(749.917 250.969)" fill="none" stroke="#fff" stroke-width="2"/>
          <path id="Path_606" data-name="Path 606" d="M441.755,230.312s-5.584-36.4,27.729-55.618c0,0,11.111,26.675-27.729,55.618" transform="translate(330.71 174.995)" fill="none" stroke="#fff" stroke-width="2"/>
          <path id="Path_609" data-name="Path 609" d="M374.981,302.6s29.171,35.514-16.682,97.428c0,0-25.22-52.864,16.682-97.428" transform="translate(598.952 303.121)" fill="none" stroke="#fff" stroke-width="2"/>
          <path id="Path_610" data-name="Path 610" d="M433.273,369.018s10.227,35.991-44.124,67.294c0,0-1.639-47.653,44.124-67.294" transform="translate(472.238 369.654)" fill="none" stroke="#fff" stroke-width="2"/>
          <path id="Path_615" data-name="Path 615" d="M452.7,652.431c16.845-16.352,32.26-34.162,47.249-52.413.647-18.34-5.063-36.089-16.34-54.97-2.194-3.675-3.689-7.762-5.793-11.5-8.972-15.924-18.1-31.767-27.181-47.631-11.688,8.692-23.38,17.377-34.984,26.171-3.417,2.588-6.413,5.743-9.889,8.241-33.553,24.109-41.444,51.747-41.438,97.4,0,42.6-.635,87.925-2.333,130.58q-18.881-3.873-39.222-6.738c1.98-93.2,3.023-199.964-39.019-275.846-16.967-30.622-33.171-61.97-41.2-95.489a41.649,41.649,0,0,1,3.841,4.234c4.673,6.027,15.015,4.838,19.854,0,5.835-5.833,4.639-13.866,0-19.851-7.441-9.594-17.747-15.88-28.763-20.622-.17-4.474-.23-8.974-.034-13.538,1.57-36.7,9.845-73.189,16.383-109.546,2.13-11.85,11.321-19.22,24.045-13.762,12.34,5.294,11.716,15.341,7.729,27.029-18.524,54.275-22.888,108.966-1.635,163.679,4.061,10.457,9.423,20.41,16.343,35.206C341.452,375.194,388.9,338.1,410.265,281.855c10.217-26.889,12.507-56.815,18.062-85.43.993-5.116-.818-11.35.873-15.754-.026-.22-.092-.436-.1-.657q-.09-1.48-.183-2.96A15.344,15.344,0,0,1,442.6,160.771a12.487,12.487,0,0,1,1.91-.022h.018a12.668,12.668,0,0,1,1.46.086,15.269,15.269,0,0,1,13.115,9.722,29.8,29.8,0,0,1,1.431,16.893c-.042.2-.128.37-.176.567-1.283,26.214-2.886,52.685-8.666,78.079-13.2,58-51.062,102.126-92.691,141.228-33.351,31.327-47.659,61.085-18.847,101.67,3.183,4.484,4.81,10.075,7.673,16.26,30.889-24.871,60.752-48.828,90.514-72.911,27.18-21.993,56.193-42.166,80.87-66.692,30.036-29.85,45.53-68.667,53.807-110.083,2.358-11.8,4.776-23.917,21-20.338,14.74,3.251,12.613,14.735,10.867,25.808-10.025,63.547-40.447,115.571-90.152,155.794-11.95,9.67-24.153,19.034-36.422,28.316.809,1.523,1.66,3.031,2.458,4.558,16,30.638,32.135,61.265,48.686,92.754.04.272.074.547.114.819,9.87-12.307,19.813-24.547,30.122-36.427,40.489-46.66,92.93-72.454,153.091-83.572,2.823-.521,6.23-1.664,8.79-1.353.282-.06.542-.182.833-.22a11.336,11.336,0,0,1,5.933-.222l3.277.709a11.319,11.319,0,0,1,5.463,2.324,14.885,14.885,0,0,1,6.374,9.26,11.333,11.333,0,0,1,.222,5.933q-.628,1.916-1.253,3.833l-2.144,3.257q-1.432,1.282-2.864,2.566a21.793,21.793,0,0,1-4.287,2.134c-.246.072-.523.13-.783.2a15.391,15.391,0,0,1-3.893,2.486c-13.073,5.2-27.784,6.085-41.518,9.851-60.714,16.638-102,58.384-137.592,107.357C540.746,603.21,531.9,614.84,519.482,631.5c48.581,1.794,91.755,6.023,134.667,4.2,39.868-1.7,71.129-23.688,94.546-56.1,7.857-10.875,18.131-19.1,30.25-8.564,11.482,9.981,3.107,20.332-4.237,29.786-28.347,36.5-63.99,60.812-110.473,67.59-7.6,1.109-15.129,2.672-24.587,4.364,9.465,18.8,1.686,3.313,9.048,19.425a37.741,37.741,0,0,1,2.1,5.781,15,15,0,0,1,1.641,5.362q-.1,2.015-.2,4.029a14.522,14.522,0,0,1-11.584,11.836,11.186,11.186,0,0,1-3.679.434,15.82,15.82,0,0,1-4.287-.17,14.586,14.586,0,0,1-7.014-3.3,15.39,15.39,0,0,1-1.89-1.365,16.556,16.556,0,0,1-2.048-2.788A48.529,48.529,0,0,0,619,706.475c-.6-.871-.9-1.817-1.367-2.588-34.51-57.077-81.5-44.372-133.067-29.524-15.58,4.488-11.109,3.569-24.289,14.671-16.2,13.644-24.441,49.537-28.913,78.794q-14.472-5.411-30.642-10.05c7.708-37.743,22.459-76.7,51.972-105.347" transform="translate(425.587 161)" fill="none" stroke="#fff" stroke-width="2"/>
          <path id="Path_618" data-name="Path 618" d="M363.891,334.9c27.336,16.216,1.231,56.307-14.17,69.252-47.179,39.656-93.51,46.616-93.51,46.616,20.9-20.776,40.956-50.887,46.824-58.633,19.295-25.458,32.556-74.026,60.856-57.235" transform="translate(796.549 332.024)" fill="none" stroke="#fff" stroke-width="2"/>
          <path id="Path_619" data-name="Path 619" d="M353.552,351.993c8.831-28.114,12.573-64.1,14.164-73.687,5.232-31.511-5.629-80.669,27.236-78.978,31.741,1.634,27.289,49.267,19.681,67.893-23.311,57.053-61.081,84.773-61.081,84.773" transform="translate(557.383 199.628)" fill="none" stroke="#fff" stroke-width="2"/>
          <path id="Path_620" data-name="Path 620" d="M511.5,276.431c-33.074,52-75.17,72.573-75.17,72.573,13.685-26.1,23.763-60.848,27.033-70,10.748-30.08,8.794-80.387,40.834-72.883,30.946,7.248,18.1,53.332,7.3,70.309" transform="translate(288.263 205.723)" fill="none" stroke="#fff" stroke-width="2"/>
        </g>
      </g>
    </g>
  </g>
</svg>
