<svg xmlns="http://www.w3.org/2000/svg" width="97" height="97" viewBox="0 0 97 97">
  <g id="home-icon" transform="translate(-652 -751)">
    <g id="Group_166" data-name="Group 166">
      <circle id="Ellipse_13" data-name="Ellipse 13" cx="38.5" cy="38.5" r="38.5" transform="translate(662 761)" fill="#fff"/>
      <g id="Ellipse_14" data-name="Ellipse 14" transform="translate(652 751)" fill="none" stroke="#fff" stroke-width="1">
        <circle cx="48.5" cy="48.5" r="48.5" stroke="none"/>
        <circle cx="48.5" cy="48.5" r="48" fill="none"/>
      </g>
    </g>
    <g id="Group_86" data-name="Group 86" transform="translate(684.468 783)">
      <path id="Path_651" data-name="Path 651" d="M30,15a1,1,0,0,1-.58-.19L16,5.23,2.58,14.81a1,1,0,0,1-1.16-1.62l14-10a1,1,0,0,1,1.16,0l14,10A1,1,0,0,1,30,15ZM5,9A1,1,0,0,1,4,8V4A1,1,0,0,1,5,3H9A1,1,0,0,1,9,5H6V8A1,1,0,0,1,5,9Z" fill="#88b1b1"/>
      <path id="Path_652" data-name="Path 652" d="M25,29H20a1,1,0,0,1-1-1V21H13v7a1,1,0,0,1-1,1H7a3,3,0,0,1-3-3V16a1,1,0,0,1,2,0V26a1,1,0,0,0,1,1h4V20a1,1,0,0,1,1-1h8a1,1,0,0,1,1,1v7h4a1,1,0,0,0,1-1V16a1,1,0,0,1,2,0V26a3,3,0,0,1-3,3Z" fill="#88b1b1"/>
    </g>
  </g>
</svg>
