<svg xmlns="http://www.w3.org/2000/svg" width="97" height="97" viewBox="0 0 97 97">
  <g id="inside-home" transform="translate(-652 -531)">
    <circle id="Ellipse_13" data-name="Ellipse 13" cx="38.5" cy="38.5" r="38.5" transform="translate(662 541)" fill="#fff"/>
    <g id="Ellipse_14" data-name="Ellipse 14" transform="translate(652 531)" fill="none" stroke="#fff" stroke-width="1">
      <circle cx="48.5" cy="48.5" r="48.5" stroke="none"/>
      <circle cx="48.5" cy="48.5" r="48" fill="none"/>
    </g>
    <path id="Path_1074" data-name="Path 1074" d="M17.616,0A17.616,17.616,0,1,0,35.232,17.616,17.617,17.617,0,0,0,17.616,0Zm0,33.03A15.414,15.414,0,1,1,33.03,17.616,15.431,15.431,0,0,1,17.616,33.03ZM24.739,8.975l-4.1,2.559L17.9,13.24a4.379,4.379,0,0,1,4.087,4.087L23.7,14.592l2.559-4.1a1.1,1.1,0,0,0-1.517-1.517ZM13.24,17.9l-1.707,2.737-2.559,4.1a1.1,1.1,0,0,0,1.517,1.515l4.1-2.559,2.737-1.707A4.381,4.381,0,0,1,13.24,17.9ZM17.9,13.24c-.1-.007-.189-.029-.288-.029a4.4,4.4,0,0,0-4.4,4.4c0,.1.022.192.029.288a4.381,4.381,0,0,0,4.087,4.087c.1.007.189.029.288.029a4.4,4.4,0,0,0,4.4-4.4c0-.1-.022-.192-.029-.288A4.381,4.381,0,0,0,17.9,13.24Zm-2.49,4.375a2.2,2.2,0,1,1,2.2,2.2A2.206,2.206,0,0,1,15.414,17.616Z" transform="translate(682.384 562.384)" fill="#88b1b1"/>
  </g>
</svg>
