<svg xmlns="http://www.w3.org/2000/svg" width="57.04" height="57.916" viewBox="0 0 57.04 57.916">
  <path id="layer2" d="M506.869,323.824a32.441,32.441,0,0,1,10.567-8.164,45.8,45.8,0,0,0,6.469-.753c1.054-.124,2.118-.2,3.162-.383a50.379,50.379,0,0,0,9.958-2.5c6.278-2.509,10.022-7.215,11.593-13.724a18.146,18.146,0,0,0,.495-2.661,6.792,6.792,0,0,1,1.8-3.878,14.858,14.858,0,0,1,6.3-4.04c1.037-.391,2.1-.7,3.287-1.094a12.506,12.506,0,0,0-3.662-1.208,1.648,1.648,0,0,1-.85-.53,10.021,10.021,0,0,0-17.37,2.626c-.062.154-.117.312-.2.548-.351-.475-.65-.909-.978-1.32a41.148,41.148,0,0,0-6.384-6.17,102.412,102.412,0,0,0-16.893-11.348c-.536-.282-1.1-.523-1.808-.861,2.19,9.059,5.422,17.369,12.564,23.735a2.888,2.888,0,0,1-.844-.085,13.858,13.858,0,0,1-2.5-1.178c-3.313-2.271-6.58-4.608-9.862-6.921a1.37,1.37,0,0,0-.649-.3c.335.974.625,1.968,1.015,2.922a38.523,38.523,0,0,0,6.854,10.511c1.07,1.238,2.2,2.425,3.344,3.682-9.04,5.1-13.332,13.355-15.4,23.092" transform="translate(-505.891 -266.56)" fill="none" stroke="#fff" stroke-width="2" opacity="0.22"/>
</svg>
