<svg id="logo" xmlns="http://www.w3.org/2000/svg" xmlns:xlink="http://www.w3.org/1999/xlink" width="201.608" height="142.551" viewBox="0 0 201.608 142.551">
  <defs>
    <clipPath id="clip-path">
      <rect id="Rectangle_456" data-name="Rectangle 456" width="201.608" height="142.551" fill="none"/>
    </clipPath>
  </defs>
  <g id="Group_74" data-name="Group 74" clip-path="url(#clip-path)">
    <path id="Path_579" data-name="Path 579" d="M206.473,332.376a.3.3,0,0,1-.06-.109,1.985,1.985,0,0,1-.028-.364,2.484,2.484,0,0,0-.068-.753.6.6,0,0,0-.344-.108l-.437-.02-1.582-.1-.748-.032-1.564-.1-1.778-.075a1.736,1.736,0,0,0-.721.039,1.152,1.152,0,0,0-.177.657,2.915,2.915,0,0,1-.062.415.13.13,0,0,1-.117.074.3.3,0,0,1-.116-.038.21.21,0,0,1-.025-.1c0-.058.01-.128.018-.211a7.217,7.217,0,0,0,.083-.757l.015-.461.09-1.093q.049-.821.058-1.283t.018-.623q.009-.143.068-.707l.046-.884.025-.1.012-.517.035-.06a.342.342,0,0,1,.108-.037,1.9,1.9,0,0,1,.266.044,2.126,2.126,0,0,0,.222.041q.648.038,1.1.022a.06.06,0,0,1,.048.039.363.363,0,0,1-.026.121,3.374,3.374,0,0,1-.427.159,4.829,4.829,0,0,0-.711.3.96.96,0,0,0-.325.224.845.845,0,0,0-.072.358q0,.056-.046.566c-.01.091-.017.181-.022.268l-.068,1.776-.009.156c-.014.228.007.367.062.416a2.049,2.049,0,0,0,.871.158q.075,0,1.5.058l.865.052a.573.573,0,0,0,.028-.148l.006-.106c0-.071.012-.174.025-.311.021-.215.034-.36.039-.435a1.285,1.285,0,0,0,0-.131q.015-.673.078-1.731a.731.731,0,0,0-.108-.394,1.306,1.306,0,0,0-.576-.175c-.313-.05-.488-.13-.522-.24a.351.351,0,0,1,.04-.148.4.4,0,0,1,.094-.007c.029,0,.077.009.142.021q.228.045,1.441.117.324.019.723.009t.432-.009a.769.769,0,0,1,.148.028.193.193,0,0,1,.02.082l0,.043a2.27,2.27,0,0,1-.552.161,1.755,1.755,0,0,0-.807.292.851.851,0,0,0-.193.566c0,.058-.007.164-.009.318s-.014.382-.032.685l-.024.4a10.654,10.654,0,0,0-.03,1.135l.205.018,1.147.062.722.05.7.036a1.915,1.915,0,0,0,.74-.037c.1-.065.15-.216.165-.452l.017-.38q0-.05.032-.388t.06-.836a7.889,7.889,0,0,0-.008-1.6,1.388,1.388,0,0,0-.326-.678,4.368,4.368,0,0,0-1.091-.718q-.249-.133-.242-.251a.216.216,0,0,1,.057-.121,5.479,5.479,0,0,0,1.681.387.568.568,0,0,1,.336.12l-.008.137-.085,1.749-.053.783-.086,1.868-.045.759q-.009.143-.01.268-.017,1.122-.049,1.651a.2.2,0,0,1-.038.126.115.115,0,0,1-.093.029Z" transform="translate(-151.076 -246.798)" fill="#fcf3f9"/>
    <path id="Path_580" data-name="Path 580" d="M205.765,296.192c.03-.108.051-.188.064-.241a5.957,5.957,0,0,0,.137-1.031,1.686,1.686,0,0,0-.1-.71,1.374,1.374,0,0,0-.43-.541,1.721,1.721,0,0,0-.687-.34,1.83,1.83,0,0,0-.933.053,1.567,1.567,0,0,0-.747.536,2.613,2.613,0,0,0-.508,1.087c-.026.109-.054.252-.083.429q.309.1.478.139l1.139.239.465.117q.471.112,1.209.262m3.429,3.193a8.729,8.729,0,0,0,.091-1.03.324.324,0,0,0-.147-.188l-.067-.016q-.151-.036-1.084-.309-.264-.076-.518-.136l-.725-.154-.815-.207-1.522-.356-1.089-.266a1.845,1.845,0,0,0-.867-.094q-.178.076-.353.528a2.755,2.755,0,0,1-.216.493.108.108,0,0,1-.108.025.431.431,0,0,1-.1-.044.494.494,0,0,1,.006-.293c0-.02.013-.077.024-.17a2.414,2.414,0,0,1,.047-.261l.118-.5.361-1.6a6.335,6.335,0,0,1,.651-1.847,1.8,1.8,0,0,1,.881-.7,1.908,1.908,0,0,1,2.566,1.506,3.149,3.149,0,0,0,.107.358,12.264,12.264,0,0,0,1.185-.325l1.5-.454a7.637,7.637,0,0,0,1.065-.419,1.5,1.5,0,0,0,.409-.354,3.783,3.783,0,0,0,.432-.791q.062.008.1.016a.884.884,0,0,1,.089.028q-.185.833-.451,1.949c-.012.052-.034.124-.064.216q-.929.234-2.057.58l-1.853.507a1.121,1.121,0,0,0-.391.224.678.678,0,0,0-.138.3l-.117.517-.046.168q.19.065.79.207l2.074.494a1.15,1.15,0,0,0,.332.028.4.4,0,0,0,.225-.123,3.723,3.723,0,0,0,.371-.632l.12-.234a.264.264,0,0,1,.176-.01,1.557,1.557,0,0,1-.025.238q-.129.545-.195.765c-.023.076-.04.138-.051.186l-.184.826-.2.8c-.008.036-.046.221-.113.555l-.053.115-.063,0c-.036-.008-.073-.047-.107-.115" transform="translate(-153.361 -221.908)" fill="#fcf3f9"/>
    <path id="Path_581" data-name="Path 581" d="M209.212,257.825l-.081-.081q.2-.465.4-.926l.079-.189c.024-.057.049-.121.074-.192q.14-.381.549-1.358.081-.2.161-.378c.054-.122.106-.239.158-.353a.123.123,0,0,1,.074-.03l.087.05c.029.039.023.1-.015.2l-.019.046a5.4,5.4,0,0,0-.2.54,1.131,1.131,0,0,0-.085.532.224.224,0,0,0,.135.145,2.112,2.112,0,0,0,.752.092l2.395-.025.8-.023q1.254,0,2.551.04c.093,0,.178.005.255.005l-.782-.78q-.588-.6-1.265-1.238l-.914-.849c-.02-.017-.088-.07-.2-.159a8.853,8.853,0,0,0-1.693-1.364.291.291,0,0,0-.208,0,.611.611,0,0,0-.251.188,4.068,4.068,0,0,0-.256.42l-.23.4a.175.175,0,0,1-.119.011l-.039-.037.763-1.87.258-.615a1.639,1.639,0,0,1,.219-.408l.048.013a.332.332,0,0,1,.106.085,1.278,1.278,0,0,1-.049.277,1.876,1.876,0,0,0-.115.655.942.942,0,0,0,.23.38l3.1,3.073q1.389,1.411,2.189,2.1l.43.375a.278.278,0,0,1-.007.146.759.759,0,0,1-.077.137q-2.056-.057-3.2-.03l-4.722.089a1.7,1.7,0,0,0-.548.105,2.873,2.873,0,0,0-.482.578,2.315,2.315,0,0,1-.151.2.172.172,0,0,1-.11.021" transform="translate(-159.05 -189.845)" fill="#fcf3f9"/>
    <path id="Path_582" data-name="Path 582" d="M233.015,231.14a.3.3,0,0,1,0-.125,1.941,1.941,0,0,1,.153-.331,2.505,2.505,0,0,0,.309-.691.607.607,0,0,0-.247-.262l-.371-.231-1.332-.861-.637-.394-1.316-.851-1.515-.934a1.737,1.737,0,0,0-.648-.319q-.16.03-.476.487a2.909,2.909,0,0,1-.256.331.128.128,0,0,1-.138.008.3.3,0,0,1-.083-.09.21.21,0,0,1,.028-.1c.031-.049.071-.107.119-.175a7.559,7.559,0,0,0,.442-.62l.238-.395.613-.91q.444-.692.677-1.091t.321-.535q.078-.12.4-.584l.472-.749.073-.079.263-.446.06-.035a.332.332,0,0,1,.113.02,1.942,1.942,0,0,1,.211.168,2.105,2.105,0,0,0,.174.145q.546.35.947.555a.06.06,0,0,1,.022.058.374.374,0,0,1-.081.093,3.4,3.4,0,0,1-.451-.071,4.852,4.852,0,0,0-.769-.082.962.962,0,0,0-.393.037.849.849,0,0,0-.237.277q-.031.047-.317.471c-.053.075-.1.149-.15.222l-.928,1.517-.084.131q-.185.288-.149.393a2.044,2.044,0,0,0,.683.563q.063.04,1.276.781l.729.467a.541.541,0,0,0,.1-.116l.058-.089q.057-.089.173-.259.185-.266.246-.36a1.138,1.138,0,0,0,.065-.114q.342-.58.915-1.472a.728.728,0,0,0,.1-.4,1.31,1.31,0,0,0-.418-.434q-.373-.295-.339-.465a.35.35,0,0,1,.107-.109.376.376,0,0,1,.085.04,1.128,1.128,0,0,1,.114.088q.178.15,1.2.806.273.175.627.362t.38.2a.817.817,0,0,1,.115.1.2.2,0,0,1-.022.082l-.024.037a2.286,2.286,0,0,1-.561-.13,1.75,1.75,0,0,0-.847-.139.855.855,0,0,0-.445.4c-.031.049-.086.14-.164.273s-.2.327-.362.582l-.219.341a10.484,10.484,0,0,0-.58.975l.171.116.97.614.606.4.6.375a1.914,1.914,0,0,0,.664.329q.173-.015.364-.314l.2-.323q.027-.042.218-.323t.461-.7a7.877,7.877,0,0,0,.777-1.4,1.393,1.393,0,0,0,.047-.751,4.361,4.361,0,0,0-.6-1.159q-.152-.237-.088-.337a.22.22,0,0,1,.109-.078,5.468,5.468,0,0,0,1.277,1.16.562.562,0,0,1,.235.269l-.074.115-.929,1.484-.429.658-.988,1.587-.411.64c-.051.08-.1.157-.139.229q-.564.971-.849,1.417a.2.2,0,0,1-.095.091.117.117,0,0,1-.1-.02Z" transform="translate(-172.229 -168.198)" fill="#fcf3f9"/>
    <path id="Path_583" data-name="Path 583" d="M264.4,189.733a2.943,2.943,0,0,0,.8-.548,3.986,3.986,0,0,0,.754-1,3.5,3.5,0,0,0,.387-1.14,3.4,3.4,0,0,0-.011-1.113,3.713,3.713,0,0,0-.258-.88,4.5,4.5,0,0,0-.829-1.114,4.311,4.311,0,0,0-1.387-.949,3.069,3.069,0,0,0-1.368-.224,3.7,3.7,0,0,0-1.551.414,6.008,6.008,0,0,0-1.434,1.035,2.414,2.414,0,0,0-.592.768.779.779,0,0,0,.006.114,1.227,1.227,0,0,0,.171.233c.038.039.083.084.138.135q.515.509.817.823l.975,1.025a24.644,24.644,0,0,0,2.485,2.421,1.155,1.155,0,0,0,.891,0m-2.116,2.377a1.834,1.834,0,0,1,.3-.466,1.366,1.366,0,0,0,.33-.61,5.253,5.253,0,0,0-1.088-1.376l-.683-.711-.4-.436-.312-.306-.548-.589-1.418-1.449a.7.7,0,0,0-.383-.255,1.644,1.644,0,0,0-.747.32.916.916,0,0,1-.3.142.257.257,0,0,1-.173-.081,1.135,1.135,0,0,1,.122-.16l.319-.307.161-.164a2.953,2.953,0,0,1,.4-.318q.439-.37.875-.789.126-.121.347-.359.585-.631.855-.891a6.52,6.52,0,0,1,1.13-.878,5.006,5.006,0,0,1,1.38-.556,3.559,3.559,0,0,1,1.213-.046,4.015,4.015,0,0,1,1.341.379,4.235,4.235,0,0,1,1.19.893,4.141,4.141,0,0,1,.81,1.226,3.828,3.828,0,0,1,.328,1.408,3.7,3.7,0,0,1-.144,1.236,5.426,5.426,0,0,1-.752,1.357,9.683,9.683,0,0,1-1.013,1.077q-.509.488-.857.763a2.706,2.706,0,0,0-.287.241.5.5,0,0,0-.045.052l-1.8,1.8-.043-.027a.186.186,0,0,1-.057-.04Z" transform="translate(-195.352 -138.261)" fill="#fcf3f9"/>
    <path id="Path_584" data-name="Path 584" d="M295.153,164.442a.31.31,0,0,1,.049-.115,1.964,1.964,0,0,1,.27-.246,2.505,2.505,0,0,0,.554-.515.609.609,0,0,0-.126-.338l-.252-.357-.892-1.311-.433-.611-.88-1.3-1.031-1.45q-.365-.522-.472-.546-.16-.034-.628.264a2.87,2.87,0,0,1-.366.205.127.127,0,0,1-.13-.046.29.29,0,0,1-.041-.115.213.213,0,0,1,.065-.082c.048-.033.107-.071.178-.114a7.468,7.468,0,0,0,.649-.4l.373-.271.919-.6q.678-.465,1.048-.741t.5-.368q.118-.081.6-.381l.727-.505.1-.045.417-.307.069-.01a.334.334,0,0,1,.1.063,2,2,0,0,1,.129.237,2.091,2.091,0,0,0,.1.2q.366.535.656.88a.06.06,0,0,1,0,.062.37.37,0,0,1-.111.053,3.308,3.308,0,0,1-.388-.24,4.834,4.834,0,0,0-.676-.375.955.955,0,0,0-.377-.119.841.841,0,0,0-.327.163c-.031.021-.19.125-.475.311-.078.048-.153.1-.225.146l-1.445,1.035-.129.088q-.283.194-.29.3a2.044,2.044,0,0,0,.408.785q.042.062.871,1.216l.49.715a.554.554,0,0,0,.134-.069l.087-.06q.087-.06.26-.171c.183-.115.306-.194.367-.237.041-.028.075-.054.1-.079q.541-.4,1.415-1c.161-.156.242-.264.245-.326a1.3,1.3,0,0,0-.215-.563q-.23-.417-.131-.56a.352.352,0,0,1,.141-.059.37.37,0,0,1,.063.07,1.231,1.231,0,0,1,.07.125q.105.208.792,1.21.183.268.437.577t.272.335a.82.82,0,0,1,.069.134.186.186,0,0,1-.053.066l-.036.025a2.292,2.292,0,0,1-.466-.338,1.757,1.757,0,0,0-.726-.459.857.857,0,0,0-.566.195q-.072.05-.256.187t-.56.4l-.335.229a10.688,10.688,0,0,0-.915.672l.112.173.655.944.4.6.4.578a1.905,1.905,0,0,0,.483.562c.11.036.262-.013.458-.147l.31-.22q.041-.028.327-.212t.7-.466a7.854,7.854,0,0,0,1.263-.99,1.388,1.388,0,0,0,.336-.673,4.359,4.359,0,0,0-.1-1.3q-.047-.278.05-.345a.218.218,0,0,1,.131-.029,5.476,5.476,0,0,0,.725,1.565.563.563,0,0,1,.111.339l-.113.077-1.434,1.005-.652.438-1.528,1.077-.627.43q-.118.081-.217.157-.9.675-1.334.974a.2.2,0,0,1-.123.047.117.117,0,0,1-.08-.056Z" transform="translate(-221.142 -117.229)" fill="#fcf3f9"/>
    <path id="Path_585" data-name="Path 585" d="M322.464,136.266,322.33,136q.874-.413,1.258-.651c.1-.061.17-.1.211-.121s.085-.038.155-.066a3.457,3.457,0,0,1,.653.242l.155.065,1.81.749.265.123q.561.252,1,.41t1.741.7l2.053.854q.3.126.766.306l-.037-.093q-.4-.767-.426-.812l-.138-.349-.262-.524-.115-.242q-.109-.231-.715-1.406c-.055-.107-.168-.306-.337-.6s-.308-.549-.417-.779a2.062,2.062,0,0,0-.415-.686,1.147,1.147,0,0,0-.551.075c-.069.028-.18.067-.331.115a1.725,1.725,0,0,1-.312.114.227.227,0,0,1-.136-.053.572.572,0,0,1-.03-.193,1.164,1.164,0,0,1,.277-.187,2.665,2.665,0,0,1,.41-.146,2.846,2.846,0,0,0,.438-.159q.259-.123.789-.415.3-.169.417-.225l.1-.045.072.18a.808.808,0,0,1-.225.165,1.438,1.438,0,0,0-.27.187.72.72,0,0,0-.192.222.491.491,0,0,0,.006.362l.905,1.75.432.8.106.239.571,1.116q.584,1.144.989,2,.088.185.359.816l-.252.147q-.3-.132-2.03-.776c-.267-.1-.451-.17-.55-.215l-.749-.328q-.428-.176-.553-.221l-.182-.065q-.946-.407-2.422-.99-.4-.156-1.194-.51-.5-.225-.625-.269a2.182,2.182,0,0,0-.321-.082l.073.2q.52,1.1,1.492,3l.923,1.845q.118.234.245.443l.218-.048q.559-.2,1.125-.347a.533.533,0,0,0,.091.019l.1.217a.581.581,0,0,1-.133.1,1.313,1.313,0,0,1-.158.061q-.579.219-1.379.6-.563.267-.977.5l-.076.043a1.443,1.443,0,0,1-.152.058l-.085-.166.114-.137.246-.165a2.942,2.942,0,0,0,.465-.358.459.459,0,0,0,.119-.2,8.692,8.692,0,0,0-.477-1.167q-.166-.349-.623-1.27l-.363-.766-.769-1.594a7.687,7.687,0,0,0-.671-1.227.41.41,0,0,0-.226-.113,1.308,1.308,0,0,0-.651.074,4.177,4.177,0,0,1-.48.145" transform="translate(-245.141 -100.391)" fill="#fcf3f9"/>
    <path id="Path_586" data-name="Path 586" d="M363.477,121.838l-.088-.286q.93-.265,1.347-.436.162-.065.228-.084t.164-.04a3.412,3.412,0,0,1,.6.346l.142.089,1.662,1.036.241.164q.511.341.916.568t1.6.976l1.885,1.181q.276.174.7.428l-.021-.1q-.274-.823-.287-.871l-.078-.366-.172-.56-.074-.257q-.07-.246-.474-1.5c-.037-.115-.115-.329-.235-.643s-.214-.592-.283-.836a2.053,2.053,0,0,0-.3-.745,1.136,1.136,0,0,0-.555-.017c-.074.017-.189.036-.346.06a1.707,1.707,0,0,1-.326.06.222.222,0,0,1-.124-.074.55.55,0,0,1,0-.2,1.157,1.157,0,0,1,.3-.138,2.7,2.7,0,0,1,.428-.077,2.834,2.834,0,0,0,.459-.085q.275-.079.847-.28.323-.118.449-.154l.1-.029.041.189a.8.8,0,0,1-.249.126,1.442,1.442,0,0,0-.3.14.7.7,0,0,0-.225.187.49.49,0,0,0-.054.359l.606,1.875.3.855.066.254.379,1.194q.387,1.225.647,2.135.056.2.22.864l-.272.1q-.278-.18-1.875-1.1-.371-.212-.507-.3l-.685-.447q-.394-.244-.509-.309l-.169-.094q-.866-.557-2.226-1.375-.368-.219-1.094-.7c-.3-.2-.495-.326-.571-.369a2.241,2.241,0,0,0-.3-.134l.04.209q.333,1.169.978,3.208l.607,1.972c.051.167.108.326.168.477l.224-.012q.584-.108,1.166-.157a.652.652,0,0,0,.087.034l.059.229a.57.57,0,0,1-.147.074,1.443,1.443,0,0,1-.165.034q-.607.121-1.458.363-.6.171-1.046.33l-.083.03a1.425,1.425,0,0,1-.159.032l-.057-.178.135-.116.27-.122a2.927,2.927,0,0,0,.517-.277.457.457,0,0,0,.15-.179,8.529,8.529,0,0,0-.279-1.229q-.105-.372-.405-1.355l-.231-.815-.5-1.7a7.7,7.7,0,0,0-.46-1.32.413.413,0,0,0-.2-.149,1.318,1.318,0,0,0-.655-.034,4.218,4.218,0,0,1-.5.064" transform="translate(-276.368 -90.481)" fill="#fcf3f9"/>
    <path id="Path_587" data-name="Path 587" d="M408.364,123.035a.289.289,0,0,1,.1-.08,1.936,1.936,0,0,1,.352-.1,2.477,2.477,0,0,0,.728-.207.6.6,0,0,0,.042-.358l-.062-.432-.2-1.574-.108-.741-.194-1.555-.259-1.761a1.739,1.739,0,0,0-.172-.7,1.154,1.154,0,0,0-.679-.051,2.832,2.832,0,0,1-.419.017.129.129,0,0,1-.095-.1.3.3,0,0,1,.016-.122.216.216,0,0,1,.1-.043c.058-.007.128-.014.211-.021a7.381,7.381,0,0,0,.759-.06l.456-.072,1.091-.116q.816-.105,1.271-.183c.3-.052.508-.085.616-.1s.331-.034.708-.066l.876-.119.108,0,.511-.085.066.023a.314.314,0,0,1,.056.1,1.854,1.854,0,0,1,.007.269,2.071,2.071,0,0,0,0,.226q.083.643.184,1.082a.061.061,0,0,1-.03.054.369.369,0,0,1-.123,0,3.214,3.214,0,0,1-.236-.39,4.859,4.859,0,0,0-.432-.642.959.959,0,0,0-.281-.278.84.84,0,0,0-.365,0q-.056.008-.565.06c-.091.008-.18.017-.266.028l-1.758.264-.155.02q-.34.044-.4.139a2.031,2.031,0,0,0,.007.885q.01.074.222,1.479l.111.859a.569.569,0,0,0,.151,0l.105-.014c.07-.009.173-.02.31-.033.215-.02.36-.034.434-.044a1.1,1.1,0,0,0,.129-.023q.664-.111,1.715-.246.321-.1.367-.18a1.308,1.308,0,0,0,.064-.6c-.009-.317.037-.5.139-.558a.359.359,0,0,1,.152.012.406.406,0,0,1,.024.091c0,.029.005.077.006.144q0,.233.154,1.438.041.321.127.713c.056.261.086.4.089.422a.824.824,0,0,1,0,.151.2.2,0,0,1-.077.035L414,119.9a2.292,2.292,0,0,1-.261-.513,1.754,1.754,0,0,0-.437-.738.856.856,0,0,0-.592-.084c-.058.008-.162.024-.314.05s-.378.058-.678.1l-.4.052a10.527,10.527,0,0,0-1.12.183l.021.205.153,1.138.086.719.1.7a1.9,1.9,0,0,0,.175.72.571.571,0,0,0,.475.078l.376-.055.388-.04q.338-.034.832-.1a7.844,7.844,0,0,0,1.575-.307,1.388,1.388,0,0,0,.605-.447,4.349,4.349,0,0,0,.5-1.205q.085-.27.2-.285a.224.224,0,0,1,.131.033,5.487,5.487,0,0,0-.067,1.724.566.566,0,0,1-.055.353l-.136.017-1.734.243-.779.094-1.851.264-.754.1c-.1.012-.184.026-.265.04q-1.106.193-1.632.261a.2.2,0,0,1-.13-.013.116.116,0,0,1-.046-.086Z" transform="translate(-309.835 -87.016)" fill="#fcf3f9"/>
    <path id="Path_588" data-name="Path 588" d="M444.809,113.459v-.3a14.021,14.021,0,0,0,1.415-.027c.117-.01.2-.015.243-.014s.094,0,.169.009a3.468,3.468,0,0,1,.478.507l.11.127,1.291,1.473.183.227q.391.474.712.81t1.251,1.4l1.462,1.676q.215.247.551.614l.008-.1q-.024-.867-.022-.917l.031-.373,0-.586,0-.268q0-.255-.018-1.577c0-.121-.015-.348-.039-.683s-.034-.629-.029-.882a2.07,2.07,0,0,0-.068-.8,1.141,1.141,0,0,0-.527-.177c-.075-.005-.191-.02-.348-.043a1.74,1.74,0,0,1-.33-.037.224.224,0,0,1-.1-.108.564.564,0,0,1,.059-.186,1.162,1.162,0,0,1,.331-.044,2.7,2.7,0,0,1,.432.051,2.837,2.837,0,0,0,.463.051q.287.005.892-.023c.228-.013.386-.019.474-.017l.106,0-.016.193a.8.8,0,0,1-.275.049,1.439,1.439,0,0,0-.325.048.71.71,0,0,0-.27.114.484.484,0,0,0-.155.328l.036,1.97.035.9-.011.262.016,1.253q.017,1.284,0,2.231,0,.205-.039.89l-.291.02q-.214-.253-1.477-1.6-.294-.31-.4-.437l-.526-.626q-.306-.348-.4-.443l-.135-.139q-.667-.784-1.732-1.961-.287-.316-.844-.986c-.233-.282-.379-.455-.441-.518a2.206,2.206,0,0,0-.252-.216l-.022.212q-.02,1.215.007,3.353l.01,2.063c0,.175.008.343.022.505l.218.053q.591.066,1.162.188a.568.568,0,0,0,.074.057l-.01.237a.574.574,0,0,1-.163.029,1.308,1.308,0,0,1-.168-.015q-.616-.06-1.5-.074-.623-.01-1.1.013l-.087,0a1.555,1.555,0,0,1-.161-.015l0-.187.163-.072.293-.039a2.915,2.915,0,0,0,.575-.115.456.456,0,0,0,.2-.127,8.615,8.615,0,0,0,.089-1.257q.007-.387,0-1.415l.014-.847.017-1.77a7.67,7.67,0,0,0-.058-1.4.412.412,0,0,0-.152-.2,1.313,1.313,0,0,0-.616-.222,4.079,4.079,0,0,1-.494-.083" transform="translate(-338.267 -86.03)" fill="#fcf3f9"/>
    <path id="Path_589" data-name="Path 589" d="M492.22,124.951a4.322,4.322,0,0,0,1.1.046,2.723,2.723,0,0,0,1.069-.3,2.621,2.621,0,0,0,.807-.642,4.013,4.013,0,0,0,.584-1.026,6.284,6.284,0,0,0,.385-1.312,5.811,5.811,0,0,0,.047-1.694,3.037,3.037,0,0,0-.423-1.217,2.987,2.987,0,0,0-.9-.939,3.233,3.233,0,0,0-1.248-.5,3.378,3.378,0,0,0-1.125-.01,2.819,2.819,0,0,0-.96.314,2.9,2.9,0,0,0-.782.7,4.587,4.587,0,0,0-.653,1.077,4.854,4.854,0,0,0-.352,1.09,5.106,5.106,0,0,0-.051,1.181,4.358,4.358,0,0,0,.222,1.191,3.529,3.529,0,0,0,.508.954,2.783,2.783,0,0,0,1.778,1.09m-3.582-4.572a3.837,3.837,0,0,1,.348-1.087,4.661,4.661,0,0,1,.694-.969,3.6,3.6,0,0,1,1.028-.8,4.878,4.878,0,0,1,1.513-.431,5.3,5.3,0,0,1,1.619.078,4.762,4.762,0,0,1,1.231.4,4.477,4.477,0,0,1,1.035.677,4.009,4.009,0,0,1,.838,1.124,3.3,3.3,0,0,1,.359,1.045,4.236,4.236,0,0,1-.012,1.422,4.919,4.919,0,0,1-.395,1.316,3.615,3.615,0,0,1-.712.963,4.767,4.767,0,0,1-1.153.757,3.8,3.8,0,0,1-1.261.369,5.062,5.062,0,0,1-1.536-.048,5.188,5.188,0,0,1-1.42-.448,4.267,4.267,0,0,1-.983-.652,4.1,4.1,0,0,1-.735-.962,3.889,3.889,0,0,1-.475-1.3,4.169,4.169,0,0,1,.016-1.446" transform="translate(-371.569 -89.027)" fill="#fcf3f9"/>
    <path id="Path_590" data-name="Path 590" d="M533.2,135.607a4.313,4.313,0,0,0,1.074.225,2.716,2.716,0,0,0,1.1-.124,2.628,2.628,0,0,0,.9-.5,4.008,4.008,0,0,0,.745-.917,6.255,6.255,0,0,0,.594-1.231,5.8,5.8,0,0,0,.325-1.663,3.027,3.027,0,0,0-.218-1.27,2.981,2.981,0,0,0-.737-1.074,3.235,3.235,0,0,0-1.148-.694,3.364,3.364,0,0,0-1.108-.194,2.814,2.814,0,0,0-1,.152,2.894,2.894,0,0,0-.886.559,4.6,4.6,0,0,0-.821.956,4.9,4.9,0,0,0-.525,1.017,5.152,5.152,0,0,0-.244,1.156,4.341,4.341,0,0,0,.024,1.212,3.56,3.56,0,0,0,.344,1.025,2.784,2.784,0,0,0,1.576,1.367m-2.783-5.1a3.857,3.857,0,0,1,.521-1.015,4.674,4.674,0,0,1,.844-.842,3.6,3.6,0,0,1,1.146-.622,4.871,4.871,0,0,1,1.563-.177,5.321,5.321,0,0,1,1.584.343,4.742,4.742,0,0,1,1.149.592,4.481,4.481,0,0,1,.909.838,4.022,4.022,0,0,1,.644,1.246,3.3,3.3,0,0,1,.182,1.09,4.222,4.222,0,0,1-.245,1.4,4.94,4.94,0,0,1-.605,1.233,3.631,3.631,0,0,1-.86.833,4.787,4.787,0,0,1-1.262.558,3.806,3.806,0,0,1-1.3.156,5.052,5.052,0,0,1-1.507-.3,5.173,5.173,0,0,1-1.328-.675,4.258,4.258,0,0,1-.862-.8,4.109,4.109,0,0,1-.566-1.07,3.89,3.89,0,0,1-.256-1.36,4.157,4.157,0,0,1,.253-1.424" transform="translate(-403.202 -97.235)" fill="#fcf3f9"/>
    <path id="Path_591" data-name="Path 591" d="M566.536,143.3c.1.057.169.1.217.124a5.911,5.911,0,0,0,.961.4,1.691,1.691,0,0,0,.713.083,1.37,1.37,0,0,0,.633-.278,1.721,1.721,0,0,0,.5-.577,1.833,1.833,0,0,0,.188-.916,1.566,1.566,0,0,0-.327-.86,2.616,2.616,0,0,0-.92-.769q-.148-.08-.394-.19c-.116.182-.2.324-.257.427l-.523,1.04-.232.419q-.23.428-.564,1.1m-3.965,2.5a8.742,8.742,0,0,0,.972.352.327.327,0,0,0,.22-.094l.032-.06q.074-.137.577-.97c.093-.157.182-.312.264-.466l.334-.662.409-.735.734-1.38.535-.984a1.85,1.85,0,0,0,.314-.814q-.028-.192-.42-.476a2.863,2.863,0,0,1-.421-.336.108.108,0,0,1,0-.112.442.442,0,0,1,.069-.09.492.492,0,0,1,.282.081c.018.009.071.032.158.067a2.409,2.409,0,0,1,.241.112l.451.242,1.453.759a6.34,6.34,0,0,1,1.618,1.1,1.8,1.8,0,0,1,.454,1.032,1.918,1.918,0,0,1-.226,1.12,1.9,1.9,0,0,1-1.887.975,3.116,3.116,0,0,0-.374.012q-.026.495.011,1.228l.054,1.57a7.611,7.611,0,0,0,.133,1.137,1.5,1.5,0,0,0,.237.486,3.759,3.759,0,0,0,.654.62.926.926,0,0,1-.041.091.817.817,0,0,1-.05.079q-.758-.393-1.768-.935c-.047-.026-.112-.065-.192-.117q.012-.957-.034-2.136l-.016-1.921a1.123,1.123,0,0,0-.117-.435.674.674,0,0,0-.252-.21l-.47-.245-.151-.088q-.11.167-.4.71l-1.008,1.877a1.134,1.134,0,0,0-.112.315.4.4,0,0,0,.061.249,3.7,3.7,0,0,0,.516.521l.2.176a.264.264,0,0,1-.036.172,1.549,1.549,0,0,1-.223-.084q-.493-.265-.69-.385c-.067-.041-.123-.073-.167-.1l-.752-.389-.725-.4c-.034-.018-.2-.1-.508-.251l-.1-.081.018-.061a.2.2,0,0,1,.138-.074" transform="translate(-427.733 -105.69)" fill="#fcf3f9"/>
    <path id="Path_592" data-name="Path 592" d="M592.908,164.083a2.956,2.956,0,0,0,.667.709,3.97,3.97,0,0,0,1.1.589,3.493,3.493,0,0,0,1.187.2,3.375,3.375,0,0,0,1.1-.184,3.7,3.7,0,0,0,.829-.392,4.5,4.5,0,0,0,.972-.992,4.312,4.312,0,0,0,.72-1.518,3.061,3.061,0,0,0,.007-1.387,3.7,3.7,0,0,0-.651-1.467,6.007,6.007,0,0,0-1.247-1.254,2.423,2.423,0,0,0-.851-.466.824.824,0,0,0-.113.024,1.23,1.23,0,0,0-.2.206c-.033.043-.07.1-.112.158q-.422.587-.685.935l-.86,1.124a24.616,24.616,0,0,0-2,2.833,1.154,1.154,0,0,0,.144.879m-2.678-1.718a1.808,1.808,0,0,1,.506.219,1.376,1.376,0,0,0,.655.23,5.261,5.261,0,0,0,1.189-1.29l.6-.785.368-.465.254-.355.5-.633,1.21-1.627a.7.7,0,0,0,.192-.418,1.641,1.641,0,0,0-.432-.688.924.924,0,0,1-.186-.27.255.255,0,0,1,.053-.183,1.106,1.106,0,0,1,.178.1l.353.267.187.135a2.919,2.919,0,0,1,.377.348q.435.376.917.741.139.105.408.286.715.48,1.013.705a6.474,6.474,0,0,1,1.044.98,4.98,4.98,0,0,1,.765,1.276,3.565,3.565,0,0,1,.235,1.191,4.013,4.013,0,0,1-.166,1.384,4.224,4.224,0,0,1-.7,1.314,4.152,4.152,0,0,1-1.084.992,3.816,3.816,0,0,1-1.339.544,3.691,3.691,0,0,1-1.243.051,5.387,5.387,0,0,1-1.459-.531,9.635,9.635,0,0,1-1.222-.833q-.561-.425-.887-.728a2.66,2.66,0,0,0-.283-.246.425.425,0,0,0-.058-.036l-2.056-1.5.02-.048a.177.177,0,0,1,.032-.062Z" transform="translate(-448.797 -118.719)" fill="#fcf3f9"/>
    <path id="Path_593" data-name="Path 593" d="M563.47,220.323a16.029,16.029,0,0,0,9.2-1.734c1.551-.809,4.3-3.981,1.811-6.438-2.577-2.543-4.163,1.869-6.167,3.8a34.188,34.188,0,0,1-4.843,4.373" transform="translate(-428.535 -160.761)" fill="#fcf3f9"/>
    <path id="Path_594" data-name="Path 594" d="M282.783,278.728a34.181,34.181,0,0,1,5.9,2.8,16.028,16.028,0,0,0-5.129-7.831c-1.341-1.122-5.326-2.445-6.64.8-1.361,3.355,3.322,3.128,5.874,4.239" transform="translate(-210.413 -207.206)" fill="#fcf3f9"/>
    <path id="Path_595" data-name="Path 595" d="M399.706,341.037c-1.341-1.122-5.326-2.445-6.64.8-1.361,3.355,3.322,3.128,5.874,4.239a34.186,34.186,0,0,1,5.9,2.8,16.029,16.029,0,0,0-5.129-7.831" transform="translate(-298.753 -258.422)" fill="#fcf3f9"/>
    <path id="Path_596" data-name="Path 596" d="M464.212,201.165a12.172,12.172,0,0,0,2.83-6.521c.153-1.319-.67-4.4-3.275-3.881-2.7.536-.6,3.413-.24,5.495a25.964,25.964,0,0,1,.684,4.907" transform="translate(-351.678 -145.036)" fill="#fcf3f9"/>
    <path id="Path_597" data-name="Path 597" d="M387.931,235.822a25.954,25.954,0,0,1,.684,4.907,12.174,12.174,0,0,0,2.83-6.521c.152-1.319-.67-4.4-3.275-3.882-2.7.536-.6,3.413-.24,5.5" transform="translate(-294.184 -175.126)" fill="#fcf3f9"/>
    <path id="Path_598" data-name="Path 598" d="M325.106,278.769a14.412,14.412,0,0,0,3.351-7.72c.181-1.562-.793-5.208-3.877-4.6-3.192.635-.71,4.041-.284,6.506a30.762,30.762,0,0,1,.81,5.81" transform="translate(-245.631 -202.593)" fill="#fcf3f9"/>
    <path id="Path_599" data-name="Path 599" d="M408.112,285.7c-2.248,3.039,2.546,4.026,4.838,5.812a35.721,35.721,0,0,1,5.234,4.36,16.736,16.736,0,0,0-3.151-9.251c-1.065-1.483-4.75-3.856-6.921-.921" transform="translate(-309.936 -216.22)" fill="#fcf3f9"/>
    <path id="Path_600" data-name="Path 600" d="M298.43,342.933s-.415,7.588,11.754,11.355c0,0-1.809-9.514-11.754-11.355" transform="translate(-226.963 -260.81)" fill="#fcf3f9"/>
    <path id="Path_601" data-name="Path 601" d="M421.8,166.653s-3.49,4.249,2,11.655a10.81,10.81,0,0,0-2-11.655" transform="translate(-319.961 -126.744)" fill="#fcf3f9"/>
    <path id="Path_602" data-name="Path 602" d="M379.2,175.1s-3.345,4.364,2.387,11.582A10.809,10.809,0,0,0,379.2,175.1" transform="translate(-287.654 -133.172)" fill="#fcf3f9"/>
    <path id="Path_603" data-name="Path 603" d="M450.523,295.143s-2.1,2.744,1.5,7.282a6.8,6.8,0,0,0-1.5-7.282" transform="translate(-342.172 -224.465)" fill="#fcf3f9"/>
    <path id="Path_604" data-name="Path 604" d="M412.848,264.43s.184,3.452,5.872,4.56a6.8,6.8,0,0,0-5.872-4.56" transform="translate(-313.983 -201.107)" fill="#fcf3f9"/>
    <path id="Path_605" data-name="Path 605" d="M305.241,257.191a6.8,6.8,0,0,0-3.317-6.654s-1.329,3.191,3.317,6.654" transform="translate(-229.488 -190.541)" fill="#fcf3f9"/>
    <path id="Path_606" data-name="Path 606" d="M444.9,181.348a6.8,6.8,0,0,0-3.317-6.654s-1.329,3.191,3.317,6.654" transform="translate(-335.7 -132.86)" fill="#fcf3f9"/>
    <path id="Path_607" data-name="Path 607" d="M276.946,424.445a6.8,6.8,0,0,0,5.906-4.516s-3.385-.7-5.906,4.516" transform="translate(-210.625 -319.344)" fill="#fcf3f9"/>
    <path id="Path_608" data-name="Path 608" d="M556.649,256.026a8.685,8.685,0,0,0-9.331-1.787s2.212,3.824,9.331,1.787" transform="translate(-416.251 -192.832)" fill="#fcf3f9"/>
    <path id="Path_609" data-name="Path 609" d="M351.868,302.6s-3.49,4.249,2,11.656a10.81,10.81,0,0,0-2-11.656" transform="translate(-266.774 -230.135)" fill="#fcf3f9"/>
    <path id="Path_610" data-name="Path 610" d="M389.233,369.018s-1.223,4.306,5.279,8.051a8.8,8.8,0,0,0-5.279-8.051" transform="translate(-295.954 -280.649)" fill="#fcf3f9"/>
    <path id="Path_611" data-name="Path 611" d="M322.974,421.337a10.81,10.81,0,0,0,10.669-5.1s-5.04-2.2-10.669,5.1" transform="translate(-245.631 -316.324)" fill="#fcf3f9"/>
    <path id="Path_612" data-name="Path 612" d="M556.158,174.7s-4.463,3.212-1.059,11.777a10.81,10.81,0,0,0,1.059-11.777" transform="translate(-421.196 -132.861)" fill="#fcf3f9"/>
    <path id="Path_613" data-name="Path 613" d="M478.405,228.432a10.81,10.81,0,0,0,1.059-11.777s-4.462,3.212-1.059,11.777" transform="translate(-362.868 -164.772)" fill="#fcf3f9"/>
    <path id="Path_614" data-name="Path 614" d="M513.466,190.7a10.81,10.81,0,0,0,.892,11.791s3.873-3.9-.892-11.791" transform="translate(-389.468 -145.036)" fill="#fcf3f9"/>
    <path id="Path_615" data-name="Path 615" d="M277.024,219.547a74.993,74.993,0,0,1-5.653-6.27,11.855,11.855,0,0,1,1.955-6.576c.262-.44.441-.929.693-1.376,1.073-1.9,2.165-3.8,3.252-5.7,1.4,1.04,2.8,2.079,4.185,3.131.409.31.767.687,1.183.986,4.014,2.884,4.958,6.191,4.957,11.653,0,5.1.076,10.519.279,15.622q2.259-.463,4.692-.806c-.237-11.15-.362-23.922,4.668-33a46.322,46.322,0,0,0,4.929-11.424,4.989,4.989,0,0,0-.459.506,1.69,1.69,0,0,1-2.375,0,1.735,1.735,0,0,1,0-2.375,8.423,8.423,0,0,1,3.441-2.467c.02-.535.028-1.074,0-1.62a98.672,98.672,0,0,0-1.96-13.105,1.964,1.964,0,0,0-2.877-1.646c-1.476.633-1.4,1.835-.925,3.234,2.216,6.493,2.738,13.036.2,19.581-.486,1.251-1.127,2.442-1.955,4.212-4.923-5.728-10.6-10.166-13.155-16.894-1.222-3.217-1.5-6.8-2.161-10.22-.119-.612.1-1.358-.1-1.885,0-.026.011-.052.012-.079q.011-.177.022-.354a1.836,1.836,0,0,0-1.637-1.948,1.5,1.5,0,0,0-.229,0h0a1.52,1.52,0,0,0-.175.01,1.827,1.827,0,0,0-1.569,1.163,3.565,3.565,0,0,0-.171,2.021c.005.024.015.044.021.068a54.073,54.073,0,0,0,1.037,9.341c1.579,6.938,6.109,12.218,11.089,16.9,3.99,3.748,5.7,7.308,2.255,12.163a12.669,12.669,0,0,0-.918,1.945c-3.7-2.975-7.268-5.841-10.828-8.722-3.252-2.631-6.722-5.044-9.675-7.978-3.593-3.571-5.447-8.215-6.437-13.169-.282-1.412-.571-2.861-2.512-2.433-1.763.389-1.509,1.763-1.3,3.087A29.1,29.1,0,0,0,269.6,193.755c1.43,1.157,2.89,2.277,4.357,3.388-.1.182-.2.363-.294.545-1.914,3.665-3.844,7.329-5.824,11.1,0,.033-.009.065-.014.1-1.181-1.472-2.37-2.937-3.6-4.358-4.844-5.582-11.117-8.668-18.315-10a4.049,4.049,0,0,0-1.052-.162c-.034-.007-.065-.022-.1-.026a1.356,1.356,0,0,0-.71-.027l-.392.085a1.354,1.354,0,0,0-.654.278,1.781,1.781,0,0,0-.762,1.108,1.356,1.356,0,0,0-.027.71l.15.459.256.39.343.307a2.609,2.609,0,0,0,.513.255c.029.009.063.016.094.024a1.842,1.842,0,0,0,.466.3A46.917,46.917,0,0,0,249,199.4c7.263,1.99,12.2,6.985,16.46,12.843,1.028,1.414,2.086,2.805,3.572,4.8-5.812.215-10.977.721-16.111.5-4.77-.2-8.509-2.834-11.311-6.711-.94-1.3-2.169-2.285-3.619-1.024-1.374,1.194-.372,2.432.507,3.563,3.391,4.367,7.655,7.275,13.216,8.086.909.133,1.81.32,2.941.522a23.448,23.448,0,0,0-1.082,2.324,4.516,4.516,0,0,0-.251.692,1.794,1.794,0,0,0-.2.642l.024.482a1.866,1.866,0,0,0,1.826,1.468,1.893,1.893,0,0,0,.513-.02,1.745,1.745,0,0,0,.839-.394,1.845,1.845,0,0,0,.226-.163,1.984,1.984,0,0,0,.245-.334,5.809,5.809,0,0,1,.327-.664c.071-.1.108-.217.164-.31,4.128-6.828,9.75-5.308,15.919-3.532,1.864.537,1.329.427,2.906,1.755,1.938,1.632,2.924,5.926,3.459,9.426q1.731-.647,3.666-1.2c-.922-4.515-2.687-9.175-6.218-12.6" transform="translate(-180.487 -122.234)" fill="#fcf3f9"/>
    <path id="Path_616" data-name="Path 616" d="M506.869,279.286a6.39,6.39,0,0,1,2.082-1.608,9.02,9.02,0,0,0,1.274-.148c.208-.024.417-.039.623-.075a9.924,9.924,0,0,0,1.961-.493,3.659,3.659,0,0,0,2.284-2.7,3.565,3.565,0,0,0,.1-.524,1.338,1.338,0,0,1,.355-.764,2.927,2.927,0,0,1,1.24-.8c.2-.077.415-.138.648-.216a2.463,2.463,0,0,0-.721-.238.325.325,0,0,1-.167-.1,1.974,1.974,0,0,0-3.422.517c-.012.03-.023.062-.04.108-.069-.094-.128-.179-.193-.26a8.106,8.106,0,0,0-1.258-1.215,20.17,20.17,0,0,0-3.328-2.235c-.106-.056-.216-.1-.356-.17a8.609,8.609,0,0,0,2.475,4.675.569.569,0,0,1-.166-.017,2.73,2.73,0,0,1-.493-.232c-.653-.447-1.3-.908-1.943-1.363a.27.27,0,0,0-.128-.058c.066.192.123.388.2.575a7.588,7.588,0,0,0,1.35,2.07c.211.244.433.478.659.725a6.353,6.353,0,0,0-3.034,4.549" transform="translate(-385.488 -204.096)" fill="#d26c7f"/>
    <path id="Path_617" data-name="Path 617" d="M492.663,318.084h5.4v5.4h-5.4Zm0-6.844h5.4v5.4h-5.4Zm6.844,6.844h5.4v5.4h-5.4Zm0-6.844h5.4v5.4h-5.4Zm15.018,21.629c.013-1.522.006-6.941.006-7.793q0-6.9,0-13.8v-.5c.248.21.448.358.622.531a1.007,1.007,0,0,0,1.262.193,3.935,3.935,0,0,0,1.952-2.059.352.352,0,0,1,.069-.082v-.844a3.728,3.728,0,0,0-1.2-1.5q-8.421-7.355-16.829-14.724a2.216,2.216,0,0,0-3.2.029q-8.595,7.881-17.2,15.755a2.024,2.024,0,0,0-.79,2.195,2.551,2.551,0,0,0,2.859,1.762,2.525,2.525,0,0,0,.782-.456c.388-.307.747-.652,1.192-1.047v.515c0,4.386.013,12.325,0,18q2.452-.127,5.006-.129c9.935,0,18.836,1.488,25.463,3.945" transform="translate(-364.398 -221.792)" fill="#fcf3f9"/>
    <path id="Path_618" data-name="Path 618" d="M257.638,331.865c-3.27,1.94-.147,6.736,1.7,8.285a25.038,25.038,0,0,0,11.187,5.577,59.871,59.871,0,0,1-5.6-7.014c-2.308-3.046-3.895-8.856-7.28-6.847" transform="translate(-194.856 -252.079)" fill="#fcf3f9"/>
    <path id="Path_619" data-name="Path 619" d="M361.518,217.554a59.871,59.871,0,0,1-1.694-8.815c-.626-3.77.673-9.651-3.258-9.448-3.8.2-3.265,5.894-2.354,8.122a25.041,25.041,0,0,0,7.307,10.142" transform="translate(-268.887 -151.562)" fill="#fcf3f9"/>
    <path id="Path_620" data-name="Path 620" d="M437.769,213.87a25.042,25.042,0,0,0,8.993,8.682,59.925,59.925,0,0,1-3.234-8.374c-1.286-3.6-1.052-9.617-4.885-8.719-3.7.867-2.166,6.38-.874,8.411" transform="translate(-331.838 -156.189)" fill="#fcf3f9"/>
    <path id="Path_621" data-name="Path 621" d="M512.959,206.559a45.5,45.5,0,0,0,6.876-2.436c3.857-1.87,7.273-5.563,7.141-10.087-.063-2.156-3.422-2.166-3.359,0,.089,3.042-2.1,5.3-4.626,6.733a15.676,15.676,0,0,0-1.776-8.949,1.694,1.694,0,0,0-2.3-.6,1.715,1.715,0,0,0-.6,2.3q.249.465.464.946c.024.065.149.369.163.408q.084.226.159.455a16.192,16.192,0,0,1,.54,2.265c.011.091.021.181.03.272q.028.28.044.561.032.562.019,1.125t-.074,1.123c0,.045-.01.09-.015.135,0,.022-.01.062-.021.136-.039.211-.075.422-.119.632a1.956,1.956,0,0,0-.013.692c-1.606.537-3.244.976-4.857,1.5-.641.207-1.288.439-1.918.71a22.147,22.147,0,0,1-.606,4.336c1.294-1.266,3.133-1.734,4.846-2.247" transform="translate(-386.435 -145.252)" fill="#fcf3f9"/>
    <path id="Path_622" data-name="Path 622" d="M494.779,249.755a1.735,1.735,0,0,0,0,2.375,1.69,1.69,0,0,0,2.375,0,4.966,4.966,0,0,1,.46-.506,22.184,22.184,0,0,0,.606-4.336,8.425,8.425,0,0,0-3.441,2.467" transform="translate(-375.935 -188.07)" fill="#fcf3f9"/>
    <rect id="Rectangle_452" data-name="Rectangle 452" width="5.405" height="5.405" transform="translate(128.264 89.448)" fill="#d26c7f"/>
    <rect id="Rectangle_453" data-name="Rectangle 453" width="5.405" height="5.405" transform="translate(128.264 96.292)" fill="#d26c7f"/>
    <rect id="Rectangle_454" data-name="Rectangle 454" width="5.405" height="5.405" transform="translate(135.109 96.292)" fill="#d26c7f"/>
    <rect id="Rectangle_455" data-name="Rectangle 455" width="5.405" height="5.405" transform="translate(135.109 89.448)" fill="#d26c7f"/>
  </g>
</svg>
