<svg xmlns="http://www.w3.org/2000/svg" width="21.486" height="18.604" viewBox="0 0 21.486 18.604">
  <path id="meccenus" d="M8.329,4A2.69,2.69,0,0,0,5.614,6.651s0,0,0,.007c0,.079,0,.159,0,.237H3.141a1.087,1.087,0,1,0,0,2.172H5.629c.017,2.776.008,5.568.008,8.348A.362.362,0,0,0,6,17.778H7.809v3.253A1.086,1.086,0,0,0,8.895,22.1H19.031a1.085,1.085,0,0,0,1.086-1.074V9.068h1.727a1.087,1.087,0,1,0,0-2.172H20.1c0-.075,0-.106,0-.212a.363.363,0,0,0,0-.043c0,.018,0-.022,0-.009A2.688,2.688,0,0,0,17.379,4H8.329V4Zm0,.728h9.05A1.957,1.957,0,0,1,19.37,6.656a.362.362,0,0,0,.007.07c-.025-.114-.025-.109,0,.031,0,.038,0,.092-.007.14h-.707V6.748a1.082,1.082,0,0,0-2.164,0l-.011,5.216H6.369c0-1.775-.005-3.548-.031-5.308A1.957,1.957,0,0,1,8.329,4.728Zm9.25,1.661a.349.349,0,0,1,.358.358V6.9h-.716V6.749a.35.35,0,0,1,.358-.359ZM3.141,7.62H5.62c0,.24,0,.483,0,.724H3.141a.366.366,0,1,1,0-.724Zm14.078,0h4.624a.366.366,0,1,1,0,.724H17.217Zm0,1.448h2.177V21.031a.348.348,0,0,1-.362.35H8.895a.348.348,0,0,1-.362-.35V17.776l8.3-.015a.362.362,0,0,0,.36-.361ZM6.368,12.688H7.787V14.13H6.364Zm2.143,0H9.959V14.13H8.511Zm2.172,0h1.448V14.13H10.683Zm2.172,0H14.3V14.13H12.855Zm2.172,0h1.457l0,1.442H15.026V12.688ZM6.363,14.854H16.478l0,2.184-10.114.018c0-.731,0-1.468,0-2.2Z" transform="translate(-1.75 -3.75)" fill="#88b1b1" stroke="#88b1b1" stroke-width="0.5"/>
</svg>
