<svg xmlns="http://www.w3.org/2000/svg" width="24.21" height="21.54" viewBox="0 0 24.21 21.54">
  <g id="message" transform="translate(-0.25 -2.17)">
    <path id="Path_712" data-name="Path 712" d="M2.183,23.71a3.035,3.035,0,0,1-.985-.162A1.623,1.623,0,0,1,.25,22.073V11.3A9.133,9.133,0,0,1,9.383,2.17h5.944a9.133,9.133,0,0,1,0,18.266H6.692L2.885,23.38c-.282.217-.345.324-.7.33ZM9.4,3.912A7.4,7.4,0,0,0,2.006,11.3V21.841l3.85-2.93a.885.885,0,0,1,.541-.218h8.943A7.654,7.654,0,0,0,22.558,11.3,7.628,7.628,0,0,0,15.341,3.94Z" fill="#fff"/>
    <path id="Path_713" data-name="Path 713" d="M19.79,12.716H10.558a.878.878,0,1,1,0-1.756H19.79a.878.878,0,0,1,0,1.756Zm-4.173,4.3H10.558a.878.878,0,0,1,0-1.756h5.058a.878.878,0,1,1,0,1.756Z" transform="translate(-2.805 -2.615)" fill="#fff"/>
  </g>
</svg>
