<svg xmlns="http://www.w3.org/2000/svg" xmlns:xlink="http://www.w3.org/1999/xlink" width="203" height="216.638" viewBox="0 0 203 216.638">
  <defs>
    <clipPath id="clip-path">
      <rect x="354" y="92" width="184.89" height="206.276" fill="none"/>
    </clipPath>
    <clipPath id="clip-path-2">
      <rect id="Rectangle_502" data-name="Rectangle 502" width="563.079" height="398.137" fill="none"/>
    </clipPath>
  </defs>
  <g id="Group_167" data-name="Group 167" transform="translate(-599 -2907.181)">
    <g id="Group_166" data-name="Group 166">
      <circle id="Ellipse_19" data-name="Ellipse 19" cx="90.5" cy="90.5" r="90.5" transform="translate(610 2931.819)" fill="#fff"/>
      <g id="Ellipse_20" data-name="Ellipse 20" transform="translate(599 2920.819)" fill="none" stroke="#fff" stroke-width="2">
        <circle cx="101.5" cy="101.5" r="101.5" stroke="none"/>
        <circle cx="101.5" cy="101.5" r="100.5" fill="none"/>
      </g>
    </g>
    <g id="Scroll_Group_11" data-name="Scroll Group 11" transform="translate(256.116 2815.181)" clip-path="url(#clip-path)" style="isolation: isolate">
      <g id="Group_104" data-name="Group 104" transform="translate(147.406 66.57)">
        <g id="Group_101" data-name="Group 101">
          <g id="Group_100" data-name="Group 100" clip-path="url(#clip-path-2)">
            <path id="Path_714" data-name="Path 714" d="M350.342,219.077a.344.344,0,0,1-.07-.126,2.289,2.289,0,0,1-.032-.419,2.871,2.871,0,0,0-.078-.866.7.7,0,0,0-.4-.124l-.5-.023-1.819-.115-.861-.037-1.8-.114-2.045-.086a2,2,0,0,0-.829.044,1.331,1.331,0,0,0-.2.756,3.453,3.453,0,0,1-.071.477.148.148,0,0,1-.135.086.346.346,0,0,1-.134-.044.247.247,0,0,1-.029-.116c0-.067.011-.148.021-.243a8.288,8.288,0,0,0,.095-.87l.017-.53.1-1.257q.056-.944.066-1.475c.007-.353.014-.593.021-.716s.032-.381.078-.814l.053-1.017.029-.12.014-.6.04-.07a.4.4,0,0,1,.124-.043,2.183,2.183,0,0,1,.306.051,2.546,2.546,0,0,0,.256.048q.744.044,1.262.025a.07.07,0,0,1,.055.045.412.412,0,0,1-.03.139,3.756,3.756,0,0,1-.492.183,5.563,5.563,0,0,0-.818.35,1.1,1.1,0,0,0-.374.257.978.978,0,0,0-.082.412q0,.064-.053.65c-.011.105-.019.208-.025.308l-.079,2.043-.011.179c-.015.263.009.422.072.479a2.351,2.351,0,0,0,1,.181q.085.006,1.719.067l.995.059a.668.668,0,0,0,.031-.17l.007-.122q.008-.122.029-.357c.024-.247.039-.415.045-.5,0-.057,0-.107,0-.15q.017-.775.09-1.99a.843.843,0,0,0-.124-.453,1.5,1.5,0,0,0-.663-.2q-.54-.085-.6-.276a.39.39,0,0,1,.046-.17.433.433,0,0,1,.108-.008,1.54,1.54,0,0,1,.164.024q.262.052,1.657.134.372.022.832.011t.5-.01a.87.87,0,0,1,.171.031.226.226,0,0,1,.023.095l0,.049a2.6,2.6,0,0,1-.635.185,2.018,2.018,0,0,0-.929.336.981.981,0,0,0-.222.651c0,.067-.007.189-.01.365s-.016.44-.037.788l-.027.465a12.222,12.222,0,0,0-.035,1.3l.236.021,1.32.071.831.057.81.041a2.2,2.2,0,0,0,.851-.043c.11-.075.173-.248.189-.52l.019-.437c0-.038.015-.187.037-.446s.046-.58.068-.962a9.06,9.06,0,0,0-.009-1.845,1.594,1.594,0,0,0-.375-.78,5.029,5.029,0,0,0-1.254-.825q-.287-.154-.279-.29a.25.25,0,0,1,.066-.139,8.192,8.192,0,0,0,.916.292,8,8,0,0,0,1.017.154.655.655,0,0,1,.387.138l-.01.157-.1,2.012-.062.9-.1,2.148-.052.873c-.007.11-.011.212-.011.308q-.019,1.291-.056,1.9a.228.228,0,0,1-.043.145.133.133,0,0,1-.107.033Z" transform="translate(-113.042 -69.556)" fill="#16302c"/>
            <path id="Path_715" data-name="Path 715" d="M347.31,201.625c.035-.124.059-.217.074-.277a6.837,6.837,0,0,0,.157-1.186,1.942,1.942,0,0,0-.118-.816,1.578,1.578,0,0,0-.495-.623,1.973,1.973,0,0,0-.79-.391,2.1,2.1,0,0,0-1.073.061,1.8,1.8,0,0,0-.859.617,3.008,3.008,0,0,0-.585,1.25c-.03.125-.062.29-.1.493.237.076.421.129.55.161l1.31.275.534.134q.543.129,1.391.3m3.944,3.673a9.985,9.985,0,0,0,.105-1.185.373.373,0,0,0-.169-.217l-.077-.018q-.174-.041-1.247-.356-.3-.086-.6-.156l-.835-.176-.937-.238-1.75-.409-1.252-.306a2.126,2.126,0,0,0-1-.108q-.2.087-.406.607a3.23,3.23,0,0,1-.249.566.124.124,0,0,1-.124.029.5.5,0,0,1-.121-.051.564.564,0,0,1,.007-.337c0-.023.015-.088.027-.2a2.64,2.64,0,0,1,.053-.3l.136-.571.416-1.839a7.3,7.3,0,0,1,.748-2.124A2.07,2.07,0,0,1,345,197.1a2.194,2.194,0,0,1,2.951,1.732,3.542,3.542,0,0,0,.123.412q.558-.117,1.362-.375l1.728-.522a8.7,8.7,0,0,0,1.225-.482,1.726,1.726,0,0,0,.47-.407,4.368,4.368,0,0,0,.5-.91c.047.007.085.013.113.019a.982.982,0,0,1,.1.032q-.213.958-.518,2.241c-.015.06-.039.142-.074.247q-1.068.269-2.365.667l-2.131.583a1.3,1.3,0,0,0-.449.258.787.787,0,0,0-.158.341l-.134.595-.053.194q.218.073.908.238l2.384.568a1.339,1.339,0,0,0,.383.032.463.463,0,0,0,.259-.141,4.249,4.249,0,0,0,.427-.728l.137-.269a.309.309,0,0,1,.2-.011,1.747,1.747,0,0,1-.029.274c-.1.417-.175.711-.224.88-.025.087-.045.159-.058.214l-.212.95-.227.924c-.01.042-.053.254-.13.638l-.062.132-.073,0c-.042-.009-.083-.053-.123-.132" transform="translate(-113.452 -65.093)" fill="#16302c"/>
            <path id="Path_716" data-name="Path 716" d="M345.751,188.626l-.094-.094q.226-.535.463-1.065l.091-.219q.042-.1.084-.221.162-.437.631-1.562c.063-.15.125-.294.186-.435s.122-.275.182-.405a.137.137,0,0,1,.084-.035l.1.058c.033.045.027.12-.017.226l-.021.053a6.073,6.073,0,0,0-.225.621,1.3,1.3,0,0,0-.1.612.259.259,0,0,0,.155.167,2.445,2.445,0,0,0,.865.106l2.754-.029.92-.027q1.443.006,2.934.047c.107,0,.2.006.292.006l-.9-.9q-.676-.687-1.455-1.425l-1.051-.976c-.023-.02-.1-.082-.234-.184a10.209,10.209,0,0,0-1.946-1.568.335.335,0,0,0-.239,0,.7.7,0,0,0-.29.217,4.852,4.852,0,0,0-.294.482l-.265.465a.207.207,0,0,1-.138.012l-.044-.042.877-2.15.3-.708a1.905,1.905,0,0,1,.251-.47l.056.015a.389.389,0,0,1,.122.1,1.493,1.493,0,0,1-.056.318,2.142,2.142,0,0,0-.132.752,1.074,1.074,0,0,0,.264.437l3.57,3.535q1.6,1.623,2.517,2.412l.494.432a.316.316,0,0,1-.007.167.842.842,0,0,1-.089.157q-2.364-.065-3.681-.035l-5.431.1a1.959,1.959,0,0,0-.63.12,3.284,3.284,0,0,0-.554.665,2.684,2.684,0,0,1-.173.23.2.2,0,0,1-.127.025" transform="translate(-114.472 -59.344)" fill="#16302c"/>
            <path id="Path_717" data-name="Path 717" d="M360.332,178.951a.334.334,0,0,1,0-.144,2.2,2.2,0,0,1,.176-.381,2.885,2.885,0,0,0,.355-.794.7.7,0,0,0-.284-.3l-.427-.265-1.532-.99-.732-.453-1.514-.978-1.742-1.074a2,2,0,0,0-.746-.367q-.185.035-.546.56a3.382,3.382,0,0,1-.295.381.149.149,0,0,1-.16.009.356.356,0,0,1-.095-.1.245.245,0,0,1,.032-.116c.036-.056.082-.123.137-.2a8.612,8.612,0,0,0,.508-.713l.274-.454.7-1.047q.511-.8.779-1.255c.179-.3.3-.51.369-.615s.214-.316.465-.672l.543-.861.084-.091.3-.512.069-.041a.384.384,0,0,1,.13.023,2.3,2.3,0,0,1,.242.193,2.445,2.445,0,0,0,.2.167q.628.4,1.09.638a.071.071,0,0,1,.025.067.446.446,0,0,1-.094.107,3.918,3.918,0,0,1-.518-.082,5.706,5.706,0,0,0-.885-.094,1.107,1.107,0,0,0-.453.043.971.971,0,0,0-.272.319q-.035.054-.365.542c-.061.086-.118.171-.173.255L354.92,171.4l-.1.15c-.142.221-.2.373-.171.453a2.348,2.348,0,0,0,.785.648q.072.046,1.467.9l.838.537a.614.614,0,0,0,.111-.133l.066-.1c.043-.068.11-.168.2-.3.142-.2.236-.342.283-.414a1.282,1.282,0,0,0,.074-.131q.394-.667,1.052-1.693a.839.839,0,0,0,.113-.455,1.5,1.5,0,0,0-.481-.5c-.286-.226-.416-.4-.389-.534a.41.41,0,0,1,.123-.126.432.432,0,0,1,.1.046,1.345,1.345,0,0,1,.131.1q.2.174,1.38.927.314.2.722.416t.437.233a.918.918,0,0,1,.132.111.229.229,0,0,1-.025.094l-.027.042a2.623,2.623,0,0,1-.645-.149,2.016,2.016,0,0,0-.974-.161.983.983,0,0,0-.512.459q-.054.085-.189.314t-.417.669l-.251.392a11.9,11.9,0,0,0-.667,1.122l.2.134,1.116.706.7.456.687.431a2.194,2.194,0,0,0,.763.379c.133-.011.272-.132.419-.361l.23-.372q.031-.048.251-.371t.53-.806a9.059,9.059,0,0,0,.894-1.615,1.594,1.594,0,0,0,.054-.863,4.993,4.993,0,0,0-.692-1.333c-.116-.183-.15-.312-.1-.388a.254.254,0,0,1,.126-.09,6.272,6.272,0,0,0,1.469,1.334.648.648,0,0,1,.27.309l-.085.133-1.069,1.707-.493.756-1.136,1.825-.472.736c-.059.092-.112.181-.16.264q-.648,1.117-.977,1.63a.222.222,0,0,1-.108.1.131.131,0,0,1-.11-.023Z" transform="translate(-116.835 -55.463)" fill="#16302c"/>
            <path id="Path_718" data-name="Path 718" d="M373.982,160.394a3.391,3.391,0,0,0,.924-.63,4.571,4.571,0,0,0,.867-1.146,4.014,4.014,0,0,0,.445-1.311,3.924,3.924,0,0,0-.012-1.28,4.3,4.3,0,0,0-.3-1.012,5.177,5.177,0,0,0-.953-1.281,4.952,4.952,0,0,0-1.594-1.092,3.534,3.534,0,0,0-1.574-.258,4.258,4.258,0,0,0-1.784.476,6.907,6.907,0,0,0-1.649,1.191,2.774,2.774,0,0,0-.682.884.921.921,0,0,0,.007.132,1.408,1.408,0,0,0,.2.268c.043.045.1.1.159.155q.592.585.939.947l1.121,1.178a28.346,28.346,0,0,0,2.859,2.784,1.331,1.331,0,0,0,1.025,0m-2.433,2.733a2.11,2.11,0,0,1,.34-.536,1.573,1.573,0,0,0,.379-.7,6.03,6.03,0,0,0-1.251-1.583l-.785-.817-.462-.5-.358-.352-.63-.677-1.631-1.667a.808.808,0,0,0-.44-.293,1.876,1.876,0,0,0-.859.368,1.051,1.051,0,0,1-.34.163.3.3,0,0,1-.2-.092,1.239,1.239,0,0,1,.14-.185l.368-.353.185-.189a3.415,3.415,0,0,1,.464-.366q.5-.425,1.006-.907c.1-.093.229-.231.4-.413q.673-.726.984-1.025a7.514,7.514,0,0,1,1.3-1.01,5.764,5.764,0,0,1,1.588-.639,4.086,4.086,0,0,1,1.394-.053,4.612,4.612,0,0,1,1.542.436,4.872,4.872,0,0,1,1.368,1.027,4.765,4.765,0,0,1,.932,1.41,4.407,4.407,0,0,1,.378,1.619,4.276,4.276,0,0,1-.165,1.421,6.244,6.244,0,0,1-.865,1.561,11.108,11.108,0,0,1-1.166,1.239q-.585.561-.986.877a3.085,3.085,0,0,0-.33.277.543.543,0,0,0-.052.06l-2.069,2.067-.049-.031a.219.219,0,0,1-.066-.047Z" transform="translate(-120.982 -50.095)" fill="#16302c"/>
            <path id="Path_719" data-name="Path 719" d="M384.311,151.725a.355.355,0,0,1,.057-.132,2.216,2.216,0,0,1,.31-.282,2.878,2.878,0,0,0,.637-.593.7.7,0,0,0-.144-.389l-.29-.411-1.025-1.508-.5-.7-1.012-1.49-1.187-1.668q-.419-.6-.543-.628-.185-.04-.722.3a3.339,3.339,0,0,1-.421.236.147.147,0,0,1-.149-.053.34.34,0,0,1-.048-.133.242.242,0,0,1,.075-.094c.055-.037.123-.082.2-.132a8.437,8.437,0,0,0,.746-.459l.429-.311,1.057-.69q.78-.535,1.205-.852t.58-.423q.135-.094.689-.439l.836-.581.112-.052.48-.354.079-.011a.391.391,0,0,1,.11.072,2.51,2.51,0,0,1,.148.272,2.354,2.354,0,0,0,.119.231q.421.615.754,1.012a.068.068,0,0,1,0,.072.444.444,0,0,1-.127.062,3.687,3.687,0,0,1-.447-.277,5.481,5.481,0,0,0-.778-.431,1.09,1.09,0,0,0-.433-.137.962.962,0,0,0-.376.187q-.053.037-.546.357c-.09.056-.175.112-.258.168l-1.662,1.191-.148.1q-.326.223-.334.35a2.355,2.355,0,0,0,.47.9q.048.072,1,1.4l.563.822a.637.637,0,0,0,.154-.08l.1-.069c.068-.046.167-.111.3-.2q.316-.2.423-.272a1.384,1.384,0,0,0,.12-.091q.622-.46,1.627-1.149c.185-.179.278-.3.282-.376a1.509,1.509,0,0,0-.247-.647c-.176-.32-.227-.534-.151-.644a.412.412,0,0,1,.162-.068.42.42,0,0,1,.073.08,1.481,1.481,0,0,1,.081.144q.12.239.91,1.392.211.307.5.663t.312.386a.933.933,0,0,1,.08.154.217.217,0,0,1-.061.076l-.041.029a2.64,2.64,0,0,1-.535-.39,2.024,2.024,0,0,0-.835-.526.981.981,0,0,0-.65.224c-.056.038-.153.11-.295.215s-.357.258-.644.454l-.385.264a12.45,12.45,0,0,0-1.051.772l.128.2.752,1.086.465.691.464.665a2.178,2.178,0,0,0,.556.646c.127.041.3-.015.526-.169l.357-.253.376-.244c.219-.142.486-.32.8-.536a9.01,9.01,0,0,0,1.453-1.139,1.594,1.594,0,0,0,.386-.774,5.013,5.013,0,0,0-.118-1.5q-.054-.32.058-.4a.249.249,0,0,1,.151-.034,8.019,8.019,0,0,0,.331.9,8.115,8.115,0,0,0,.5.9.651.651,0,0,1,.128.39l-.13.089-1.649,1.156-.749.5L387.082,150l-.721.494c-.091.062-.174.122-.25.181q-1.031.776-1.534,1.12a.228.228,0,0,1-.141.054.132.132,0,0,1-.092-.064Z" transform="translate(-125.606 -46.324)" fill="#16302c"/>
            <path id="Path_720" data-name="Path 720" d="M392.423,135.666l-.154-.308a16.261,16.261,0,0,0,1.446-.749c.115-.07.2-.116.243-.139s.1-.043.179-.076a3.991,3.991,0,0,1,.75.279l.178.074,2.081.861.3.141q.645.29,1.147.472t2,.8l2.361.983q.346.145.881.352l-.043-.107q-.464-.882-.49-.934l-.159-.4-.3-.6-.132-.279q-.125-.265-.822-1.617-.1-.185-.388-.685t-.48-.895a2.384,2.384,0,0,0-.476-.789,1.32,1.32,0,0,0-.634.087c-.079.032-.207.077-.381.132a1.994,1.994,0,0,1-.358.13.26.26,0,0,1-.156-.061.65.65,0,0,1-.033-.222,1.35,1.35,0,0,1,.319-.215,3.115,3.115,0,0,1,.471-.168,3.215,3.215,0,0,0,.5-.183q.3-.141.908-.478.344-.195.48-.26l.11-.052.082.207a.934.934,0,0,1-.259.19,1.659,1.659,0,0,0-.311.215.824.824,0,0,0-.22.255.567.567,0,0,0,.007.417l1.041,2.013.5.915.122.275.656,1.283q.671,1.316,1.138,2.3c.067.142.205.455.413.938l-.29.17q-.348-.152-2.335-.892c-.307-.113-.518-.2-.632-.247l-.861-.377q-.493-.2-.636-.253l-.21-.075q-1.087-.468-2.785-1.138-.458-.18-1.373-.587c-.383-.173-.622-.276-.718-.31a2.449,2.449,0,0,0-.369-.094l.084.229q.6,1.262,1.716,3.453l1.061,2.122q.135.27.282.51l.251-.056q.643-.234,1.294-.4a.683.683,0,0,0,.105.021l.11.249a.653.653,0,0,1-.153.112,1.556,1.556,0,0,1-.181.07q-.667.252-1.586.688-.647.306-1.124.573l-.088.049a1.774,1.774,0,0,1-.175.067l-.1-.191.131-.158.283-.189a3.381,3.381,0,0,0,.534-.412.526.526,0,0,0,.136-.231,9.982,9.982,0,0,0-.548-1.342q-.192-.4-.717-1.461l-.417-.881-.886-1.833a8.826,8.826,0,0,0-.771-1.411.475.475,0,0,0-.26-.13,1.506,1.506,0,0,0-.748.085,4.8,4.8,0,0,1-.552.167" transform="translate(-129.909 -43.305)" fill="#16302c"/>
            <path id="Path_721" data-name="Path 721" d="M409.277,128.693l-.1-.329a16.027,16.027,0,0,0,1.549-.5c.124-.05.213-.082.263-.1s.1-.027.189-.045a3.893,3.893,0,0,1,.694.4l.164.1,1.912,1.192.278.189q.586.391,1.053.654t1.843,1.122l2.168,1.358c.212.134.482.3.811.492l-.024-.112q-.316-.946-.33-1l-.09-.421-.2-.645-.085-.3q-.079-.283-.545-1.73c-.041-.132-.132-.379-.269-.74s-.247-.681-.326-.961a2.352,2.352,0,0,0-.341-.857,1.313,1.313,0,0,0-.638-.019c-.084.019-.218.041-.4.069a1.99,1.99,0,0,1-.375.069.25.25,0,0,1-.143-.086.645.645,0,0,1,0-.224,1.3,1.3,0,0,1,.349-.159,3.072,3.072,0,0,1,.493-.088,3.291,3.291,0,0,0,.527-.1q.317-.091.974-.322c.247-.09.419-.149.516-.177l.118-.033.047.217a.922.922,0,0,1-.288.145,1.634,1.634,0,0,0-.34.161.8.8,0,0,0-.259.215.559.559,0,0,0-.062.413l.7,2.156.34.984.076.292.435,1.373q.445,1.409.744,2.456.064.228.254.994l-.314.119q-.32-.207-2.156-1.264-.426-.243-.583-.348l-.788-.514c-.3-.187-.5-.306-.585-.355l-.2-.108q-1-.641-2.56-1.582-.422-.252-1.257-.8-.525-.35-.657-.424a2.607,2.607,0,0,0-.349-.154l.046.24q.381,1.344,1.124,3.689l.7,2.268c.058.191.124.375.193.548l.258-.013q.672-.124,1.342-.181a.631.631,0,0,0,.1.039l.068.264a.646.646,0,0,1-.169.086,1.586,1.586,0,0,1-.191.039q-.7.139-1.676.417-.689.2-1.2.38l-.1.035a1.536,1.536,0,0,1-.182.037l-.066-.2.155-.134.309-.14a3.314,3.314,0,0,0,.6-.318.525.525,0,0,0,.173-.205,9.725,9.725,0,0,0-.322-1.414q-.119-.427-.466-1.559l-.267-.937-.571-1.954a8.759,8.759,0,0,0-.529-1.518.471.471,0,0,0-.235-.171,1.512,1.512,0,0,0-.752-.039,4.847,4.847,0,0,1-.572.074" transform="translate(-135.508 -41.528)" fill="#16302c"/>
            <path id="Path_722" data-name="Path 722" d="M428.409,133.433a.333.333,0,0,1,.111-.092,2.251,2.251,0,0,1,.4-.11,2.843,2.843,0,0,0,.837-.239.692.692,0,0,0,.048-.411l-.072-.5-.226-1.81-.124-.852-.223-1.788-.3-2.025a2,2,0,0,0-.2-.807,1.336,1.336,0,0,0-.781-.059,3.244,3.244,0,0,1-.482.019.149.149,0,0,1-.109-.116.349.349,0,0,1,.018-.14.255.255,0,0,1,.11-.05c.066-.008.147-.016.242-.024a8.483,8.483,0,0,0,.873-.069l.524-.082,1.255-.133q.938-.121,1.461-.21c.349-.06.585-.1.708-.113s.381-.039.815-.076l1.007-.138.124.006.588-.1.076.027a.374.374,0,0,1,.065.114,2.144,2.144,0,0,1,.007.31c0,.14,0,.227,0,.26q.1.739.211,1.244a.07.07,0,0,1-.035.063.415.415,0,0,1-.142,0,3.72,3.72,0,0,1-.272-.449,5.611,5.611,0,0,0-.5-.738,1.106,1.106,0,0,0-.324-.32.971.971,0,0,0-.419,0c-.043.006-.259.029-.649.07-.105.009-.207.02-.306.033l-2.022.3-.178.023c-.261.033-.413.087-.456.16a2.331,2.331,0,0,0,.008,1.018q.011.085.255,1.7l.128.989a.655.655,0,0,0,.173,0l.121-.015c.081-.011.2-.023.356-.039.247-.023.415-.039.5-.05a1.306,1.306,0,0,0,.148-.027q.764-.127,1.972-.284c.245-.075.386-.143.421-.206a1.507,1.507,0,0,0,.073-.689c-.01-.365.043-.579.161-.642a.4.4,0,0,1,.175.014.443.443,0,0,1,.028.1c0,.033.006.088.007.166q0,.267.177,1.653.048.369.146.819c.065.3.1.462.1.486a.917.917,0,0,1,0,.173.214.214,0,0,1-.088.04l-.049.007a2.638,2.638,0,0,1-.3-.59,2.024,2.024,0,0,0-.5-.849.985.985,0,0,0-.682-.1c-.066.009-.187.028-.361.058s-.435.067-.78.112l-.463.06a12.2,12.2,0,0,0-1.287.209l.023.237.176,1.308.1.827.111.8a2.192,2.192,0,0,0,.2.827.659.659,0,0,0,.546.089l.432-.063c.038,0,.187-.021.446-.047s.578-.064.957-.112a9.019,9.019,0,0,0,1.811-.354,1.6,1.6,0,0,0,.7-.514,5.023,5.023,0,0,0,.576-1.387q.1-.31.233-.327a.257.257,0,0,1,.15.038,6.292,6.292,0,0,0-.077,1.983.651.651,0,0,1-.064.406l-.156.019-2,.28-.9.108-2.129.3-.867.112c-.109.014-.211.029-.3.046q-1.272.222-1.876.3a.224.224,0,0,1-.151-.015.133.133,0,0,1-.053-.1Z" transform="translate(-141.509 -40.906)" fill="#16302c"/>
            <path id="Path_723" data-name="Path 723" d="M442.723,123.378v-.344a16.137,16.137,0,0,0,1.627-.031c.134-.012.227-.017.28-.016s.108,0,.194.01a3.93,3.93,0,0,1,.549.583l.127.145,1.485,1.695.21.262q.449.545.819.931t1.439,1.608l1.681,1.927q.247.284.634.706l.009-.114q-.027-1-.025-1.054l.035-.429,0-.674.005-.308q0-.293-.02-1.813c0-.139-.017-.4-.045-.786s-.038-.723-.033-1.015a2.37,2.37,0,0,0-.079-.919,1.313,1.313,0,0,0-.605-.2q-.129-.009-.4-.049a2.068,2.068,0,0,1-.38-.042.261.261,0,0,1-.112-.124.652.652,0,0,1,.068-.214,1.31,1.31,0,0,1,.381-.051,3.141,3.141,0,0,1,.5.058,3.228,3.228,0,0,0,.532.059c.22,0,.562-.005,1.026-.026q.394-.022.544-.019l.122,0-.018.221a.925.925,0,0,1-.316.056,1.64,1.64,0,0,0-.374.055.806.806,0,0,0-.31.131.561.561,0,0,0-.178.377l.041,2.266.04,1.04-.012.3.019,1.441q.019,1.477,0,2.566,0,.236-.045,1.024l-.334.023q-.247-.29-1.7-1.834-.338-.356-.458-.5l-.6-.719q-.352-.4-.457-.51l-.155-.16q-.767-.9-1.992-2.255-.33-.363-.97-1.134c-.268-.324-.436-.524-.507-.6a2.565,2.565,0,0,0-.29-.249l-.026.243q-.022,1.4.008,3.856l.012,2.372c0,.2.009.395.025.581l.25.062q.679.076,1.337.216a.654.654,0,0,0,.084.066l-.011.272a.658.658,0,0,1-.187.033,1.58,1.58,0,0,1-.193-.017q-.708-.069-1.726-.086-.716-.012-1.262.015l-.1.006a1.607,1.607,0,0,1-.185-.018l0-.215.188-.083.337-.045a3.374,3.374,0,0,0,.661-.132.517.517,0,0,0,.225-.146,9.907,9.907,0,0,0,.1-1.446q.008-.444.005-1.627l.015-.974.02-2.035a8.846,8.846,0,0,0-.068-1.607.468.468,0,0,0-.175-.231,1.513,1.513,0,0,0-.71-.256,4.735,4.735,0,0,1-.568-.095" transform="translate(-146.606 -40.73)" fill="#16302c"/>
            <path id="Path_724" data-name="Path 724" d="M464.921,133.686a4.977,4.977,0,0,0,1.261.052,3.126,3.126,0,0,0,1.23-.349,3,3,0,0,0,.928-.738,4.581,4.581,0,0,0,.671-1.18,7.185,7.185,0,0,0,.442-1.508,6.686,6.686,0,0,0,.054-1.948,3.494,3.494,0,0,0-.486-1.4,3.44,3.44,0,0,0-1.039-1.079,3.722,3.722,0,0,0-1.435-.571,3.887,3.887,0,0,0-1.294-.011,3.25,3.25,0,0,0-1.1.361,3.325,3.325,0,0,0-.9.8,5.281,5.281,0,0,0-.75,1.239,5.57,5.57,0,0,0-.4,1.253,5.9,5.9,0,0,0-.059,1.358,4.989,4.989,0,0,0,.256,1.37,4.062,4.062,0,0,0,.585,1.1,3.2,3.2,0,0,0,2.045,1.254m-4.119-5.258a4.4,4.4,0,0,1,.4-1.25,5.375,5.375,0,0,1,.8-1.114,4.151,4.151,0,0,1,1.182-.922,5.618,5.618,0,0,1,1.74-.5,6.115,6.115,0,0,1,1.862.09,5.511,5.511,0,0,1,1.415.455,5.161,5.161,0,0,1,1.19.779,4.622,4.622,0,0,1,.964,1.292,3.8,3.8,0,0,1,.413,1.2,4.885,4.885,0,0,1-.013,1.636,5.684,5.684,0,0,1-.454,1.513,4.176,4.176,0,0,1-.819,1.108,5.525,5.525,0,0,1-1.326.871,4.383,4.383,0,0,1-1.451.423,5.832,5.832,0,0,1-1.766-.055,5.971,5.971,0,0,1-1.633-.515,4.918,4.918,0,0,1-1.13-.75,4.711,4.711,0,0,1-.845-1.108,4.449,4.449,0,0,1-.546-1.494,4.788,4.788,0,0,1,.018-1.663" transform="translate(-152.578 -41.267)" fill="#16302c"/>
            <path id="Path_725" data-name="Path 725" d="M481.338,137.973a4.989,4.989,0,0,0,1.235.259,3.137,3.137,0,0,0,1.271-.143,3.017,3.017,0,0,0,1.036-.576,4.615,4.615,0,0,0,.857-1.054,7.256,7.256,0,0,0,.684-1.415,6.694,6.694,0,0,0,.373-1.913,3.493,3.493,0,0,0-.251-1.461,3.426,3.426,0,0,0-.847-1.235,3.731,3.731,0,0,0-1.321-.8,3.88,3.88,0,0,0-1.274-.223,3.227,3.227,0,0,0-1.149.175,3.322,3.322,0,0,0-1.019.643,5.276,5.276,0,0,0-.944,1.1,5.636,5.636,0,0,0-.6,1.17,5.921,5.921,0,0,0-.28,1.33,4.985,4.985,0,0,0,.027,1.394,4.113,4.113,0,0,0,.4,1.178,3.206,3.206,0,0,0,1.813,1.573m-3.2-5.862a4.425,4.425,0,0,1,.6-1.168,5.36,5.36,0,0,1,.97-.968,4.132,4.132,0,0,1,1.318-.716,5.6,5.6,0,0,1,1.8-.2,6.132,6.132,0,0,1,1.822.395,5.485,5.485,0,0,1,1.322.681,5.131,5.131,0,0,1,1.045.964,4.605,4.605,0,0,1,.74,1.433,3.781,3.781,0,0,1,.21,1.253,4.84,4.84,0,0,1-.282,1.611,5.662,5.662,0,0,1-.7,1.418,4.188,4.188,0,0,1-.989.958,5.5,5.5,0,0,1-1.451.642,4.384,4.384,0,0,1-1.5.179,5.8,5.8,0,0,1-1.733-.344,5.965,5.965,0,0,1-1.527-.777,4.913,4.913,0,0,1-.992-.925,4.725,4.725,0,0,1-.651-1.231,4.467,4.467,0,0,1-.294-1.564,4.791,4.791,0,0,1,.291-1.638" transform="translate(-158.25 -42.739)" fill="#16302c"/>
            <path id="Path_726" data-name="Path 726" d="M495.867,138.612c.112.066.195.113.25.142a6.75,6.75,0,0,0,1.1.455,1.941,1.941,0,0,0,.82.095,1.567,1.567,0,0,0,.728-.319,1.987,1.987,0,0,0,.581-.663,2.1,2.1,0,0,0,.215-1.053,1.8,1.8,0,0,0-.375-.99,3.024,3.024,0,0,0-1.059-.885q-.171-.091-.453-.218c-.133.209-.232.373-.3.491l-.6,1.2-.266.482q-.265.493-.649,1.268m-4.559,2.872a10.1,10.1,0,0,0,1.118.405.377.377,0,0,0,.252-.108l.037-.07q.084-.157.663-1.115c.107-.181.209-.359.3-.536l.384-.761.47-.845.844-1.587.615-1.132a2.123,2.123,0,0,0,.361-.936c-.021-.147-.183-.329-.483-.547a3.386,3.386,0,0,1-.484-.386.125.125,0,0,1,0-.128.518.518,0,0,1,.08-.1.566.566,0,0,1,.324.093c.021.011.082.037.182.078a2.756,2.756,0,0,1,.277.128l.518.278,1.671.873a7.272,7.272,0,0,1,1.861,1.267,2.071,2.071,0,0,1,.522,1.187,2.2,2.2,0,0,1-.261,1.288,2.18,2.18,0,0,1-2.169,1.12,3.593,3.593,0,0,0-.43.014q-.03.569.013,1.413l.062,1.8a8.805,8.805,0,0,0,.152,1.308,1.717,1.717,0,0,0,.274.559,4.322,4.322,0,0,0,.752.713,1.068,1.068,0,0,1-.047.1.8.8,0,0,1-.057.092q-.871-.451-2.034-1.075c-.054-.029-.128-.074-.22-.134q.014-1.1-.039-2.457l-.018-2.209a1.3,1.3,0,0,0-.134-.5.786.786,0,0,0-.29-.241l-.54-.282-.174-.1q-.126.192-.462.817l-1.16,2.16a1.3,1.3,0,0,0-.129.361.461.461,0,0,0,.07.286,4.231,4.231,0,0,0,.594.6l.225.2a.3.3,0,0,1-.041.2,1.743,1.743,0,0,1-.256-.1q-.567-.3-.794-.442c-.078-.047-.142-.084-.191-.112l-.865-.447-.834-.456c-.039-.02-.233-.116-.585-.289l-.112-.093.021-.07a.229.229,0,0,1,.159-.085" transform="translate(-162.648 -44.255)" fill="#16302c"/>
            <path id="Path_727" data-name="Path 727" d="M505.748,149.865a3.4,3.4,0,0,0,.766.815,4.563,4.563,0,0,0,1.267.678,4.013,4.013,0,0,0,1.365.234,3.867,3.867,0,0,0,1.262-.212,4.241,4.241,0,0,0,.953-.451,5.17,5.17,0,0,0,1.118-1.141,4.955,4.955,0,0,0,.828-1.746,3.519,3.519,0,0,0,.009-1.594,4.254,4.254,0,0,0-.748-1.688,6.932,6.932,0,0,0-1.434-1.442,2.794,2.794,0,0,0-.979-.536.965.965,0,0,0-.13.028,1.432,1.432,0,0,0-.233.237c-.037.049-.08.11-.128.182q-.485.675-.788,1.075l-.989,1.292a28.186,28.186,0,0,0-2.3,3.259,1.326,1.326,0,0,0,.165,1.01m-3.08-1.975a2.08,2.08,0,0,1,.582.252,1.576,1.576,0,0,0,.752.265,6.035,6.035,0,0,0,1.368-1.483l.684-.9.423-.534.292-.409.57-.729,1.391-1.87a.805.805,0,0,0,.221-.481,1.894,1.894,0,0,0-.5-.792,1.046,1.046,0,0,1-.214-.31.3.3,0,0,1,.06-.21,1.227,1.227,0,0,1,.2.11l.406.307.215.155a3.293,3.293,0,0,1,.434.4q.5.432,1.053.853c.107.08.263.191.47.329q.823.552,1.166.811a7.438,7.438,0,0,1,1.2,1.127,5.717,5.717,0,0,1,.88,1.467,4.1,4.1,0,0,1,.27,1.369,4.616,4.616,0,0,1-.191,1.592,4.846,4.846,0,0,1-.8,1.511,4.765,4.765,0,0,1-1.247,1.141,4.386,4.386,0,0,1-1.54.627,4.252,4.252,0,0,1-1.43.058,6.193,6.193,0,0,1-1.677-.611,11.125,11.125,0,0,1-1.405-.958q-.645-.489-1.02-.837a3.023,3.023,0,0,0-.326-.282.442.442,0,0,0-.067-.042l-2.364-1.721.023-.054a.2.2,0,0,1,.036-.072Z" transform="translate(-166.425 -46.591)" fill="#16302c"/>
            <path id="Path_728" data-name="Path 728" d="M491.561,173.731a18.431,18.431,0,0,0,10.579-1.994c1.784-.93,4.945-4.579,2.083-7.4-2.963-2.925-4.787,2.149-7.092,4.369a39.28,39.28,0,0,1-5.57,5.03" transform="translate(-162.792 -54.129)" fill="#16302c"/>
            <path id="Path_729" data-name="Path 729" d="M380.5,195.814a39.334,39.334,0,0,1,6.78,3.216,18.438,18.438,0,0,0-5.9-9.006c-1.543-1.29-6.125-2.811-7.637.916-1.565,3.859,3.821,3.6,6.755,4.875" transform="translate(-123.682 -62.457)" fill="#16302c"/>
            <path id="Path_730" data-name="Path 730" d="M429.211,217.753c-1.543-1.289-6.125-2.812-7.637.916-1.565,3.858,3.821,3.6,6.755,4.875a39.334,39.334,0,0,1,6.78,3.216,18.435,18.435,0,0,0-5.9-9.006" transform="translate(-139.522 -71.64)" fill="#16302c"/>
            <path id="Path_731" data-name="Path 731" d="M452.02,166.964a14,14,0,0,0,3.255-7.5c.175-1.517-.77-5.059-3.766-4.464-3.1.616-.689,3.925-.276,6.319a29.844,29.844,0,0,1,.787,5.644" transform="translate(-149.011 -51.31)" fill="#16302c"/>
            <path id="Path_732" data-name="Path 732" d="M420.1,177.611a29.9,29.9,0,0,1,.787,5.644,14,14,0,0,0,3.255-7.5c.175-1.517-.77-5.06-3.766-4.464-3.1.617-.69,3.925-.276,6.32" transform="translate(-138.702 -56.705)" fill="#16302c"/>
            <path id="Path_733" data-name="Path 733" d="M394.984,200.339a16.578,16.578,0,0,0,3.854-8.879c.207-1.8-.912-5.99-4.458-5.285-3.672.73-.817,4.646-.327,7.482a35.312,35.312,0,0,1,.932,6.682" transform="translate(-129.996 -61.63)" fill="#16302c"/>
            <path id="Path_734" data-name="Path 734" d="M428.022,195.08c-2.585,3.5,2.928,4.63,5.563,6.684a41.056,41.056,0,0,1,6.02,5.014,19.244,19.244,0,0,0-3.624-10.639c-1.225-1.706-5.462-4.434-7.959-1.059" transform="translate(-141.526 -64.073)" fill="#16302c"/>
            <path id="Path_735" data-name="Path 735" d="M382.429,217.616s-.477,8.726,13.518,13.059c0,0-2.081-10.941-13.518-13.059" transform="translate(-126.65 -72.069)" fill="#16302c"/>
            <path id="Path_736" data-name="Path 736" d="M434.036,145.03s-4.014,4.886,2.3,13.4c0,0,3.469-7.273-2.3-13.4" transform="translate(-143.324 -48.03)" fill="#16302c"/>
            <path id="Path_737" data-name="Path 737" d="M416.4,148.509s-3.847,5.018,2.745,13.319c0,0,3.223-7.385-2.745-13.319" transform="translate(-137.531 -49.182)" fill="#16302c"/>
            <path id="Path_738" data-name="Path 738" d="M445.5,197.938s-2.418,3.155,1.726,8.374a7.815,7.815,0,0,0-1.726-8.374" transform="translate(-147.307 -65.552)" fill="#16302c"/>
            <path id="Path_739" data-name="Path 739" d="M429.541,185.291s.212,3.97,6.753,5.244a7.815,7.815,0,0,0-6.753-5.244" transform="translate(-142.252 -61.363)" fill="#16302c"/>
            <path id="Path_740" data-name="Path 740" d="M387.811,187.222A7.816,7.816,0,0,0,384,179.57s-1.529,3.67,3.815,7.652" transform="translate(-127.102 -59.469)" fill="#16302c"/>
            <path id="Path_741" data-name="Path 741" d="M445.316,155.993a7.816,7.816,0,0,0-3.815-7.652s-1.529,3.67,3.815,7.652" transform="translate(-146.146 -49.127)" fill="#16302c"/>
            <path id="Path_742" data-name="Path 742" d="M373.581,254.536a7.816,7.816,0,0,0,6.792-5.193s-3.893-.807-6.792,5.193" transform="translate(-123.72 -82.564)" fill="#16302c"/>
            <path id="Path_743" data-name="Path 743" d="M495.641,183.658A9.988,9.988,0,0,0,484.91,181.6s2.544,4.4,10.731,2.055" transform="translate(-160.589 -59.88)" fill="#16302c"/>
            <path id="Path_744" data-name="Path 744" d="M405.239,201.008s-4.014,4.886,2.3,13.4c0,0,3.469-7.273-2.3-13.4" transform="translate(-133.787 -66.568)" fill="#16302c"/>
            <path id="Path_745" data-name="Path 745" d="M419.884,228.357s-1.407,4.952,6.071,9.259a10.121,10.121,0,0,0-6.071-9.259" transform="translate(-139.019 -75.626)" fill="#16302c"/>
            <path id="Path_746" data-name="Path 746" d="M392.534,253.895s7.944,1.354,12.269-5.866c0,0-5.8-2.527-12.269,5.866" transform="translate(-129.997 -82.022)" fill="#16302c"/>
            <path id="Path_747" data-name="Path 747" d="M490.277,148.341s-5.132,3.694-1.218,13.544c0,0,5.218-6.14,1.218-13.544" transform="translate(-161.476 -49.127)" fill="#16302c"/>
            <path id="Path_748" data-name="Path 748" d="M457.479,179.163s5.218-6.14,1.218-13.544c0,0-5.132,3.694-1.218,13.544" transform="translate(-151.017 -54.849)" fill="#16302c"/>
            <path id="Path_749" data-name="Path 749" d="M471.978,154.933s-4.137,6.915,1.026,13.56c0,0,4.455-4.488-1.026-13.56" transform="translate(-155.787 -51.31)" fill="#16302c"/>
            <path id="Path_750" data-name="Path 750" d="M402.927,210.238a86.18,86.18,0,0,1-6.5-7.211,13.63,13.63,0,0,1,2.248-7.562c.3-.506.508-1.068.8-1.582,1.234-2.191,2.489-4.371,3.739-6.553,1.608,1.2,3.216,2.39,4.813,3.6.47.356.883.791,1.361,1.134,4.616,3.317,5.7,7.12,5.7,13.4,0,5.862.087,12.1.321,17.965q2.6-.533,5.4-.927c-.272-12.823-.416-27.512,5.368-37.951,2.334-4.213,4.564-8.526,5.669-13.137a5.737,5.737,0,0,0-.529.583,1.944,1.944,0,0,1-2.731,0,2,2,0,0,1,0-2.731,9.678,9.678,0,0,1,3.957-2.837c.023-.615.031-1.235,0-1.862-.216-5.049-1.354-10.07-2.254-15.072-.293-1.631-1.558-2.644-3.308-1.893-1.7.728-1.612,2.111-1.063,3.719,2.549,7.467,3.149,14.992.225,22.519-.559,1.439-1.3,2.808-2.249,4.844-5.662-6.587-12.189-11.691-15.129-19.429-1.405-3.7-1.721-7.817-2.485-11.753-.136-.7.112-1.562-.12-2.168,0-.03.013-.06.015-.09.008-.136.017-.272.025-.407a2.111,2.111,0,0,0-1.883-2.241,1.725,1.725,0,0,0-.263,0h0a1.684,1.684,0,0,0-.2.011,2.1,2.1,0,0,0-1.8,1.338,4.1,4.1,0,0,0-.2,2.324c.006.027.017.051.024.078a62.185,62.185,0,0,0,1.193,10.742c1.816,7.979,7.025,14.051,12.753,19.43,4.588,4.31,6.557,8.4,2.593,13.988a14.566,14.566,0,0,0-1.056,2.237c-4.249-3.422-8.358-6.718-12.453-10.031-3.739-3.026-7.731-5.8-11.126-9.176-4.132-4.107-6.264-9.447-7.4-15.146-.325-1.623-.657-3.29-2.889-2.8-2.028.447-1.736,2.027-1.495,3.551a33.469,33.469,0,0,0,12.4,21.434c1.644,1.331,3.323,2.619,5.011,3.9-.111.21-.228.417-.338.627-2.2,4.215-4.421,8.429-6.7,12.761-.006.037-.011.075-.016.112-1.358-1.693-2.726-3.377-4.144-5.012-5.571-6.419-12.785-9.968-21.063-11.5a4.684,4.684,0,0,0-1.209-.187c-.039-.008-.075-.025-.114-.03a1.564,1.564,0,0,0-.817-.031l-.451.1a1.553,1.553,0,0,0-.751.32,2.056,2.056,0,0,0-.878,1.274,1.562,1.562,0,0,0-.03.816l.173.528.294.448.395.353a3.015,3.015,0,0,0,.59.294c.033.01.072.018.108.027a2.1,2.1,0,0,0,.536.342c1.8.716,3.822.837,5.712,1.355,8.353,2.289,14.033,8.033,18.93,14.77,1.182,1.626,2.4,3.226,4.108,5.519-6.684.246-12.623.828-18.528.577-5.485-.233-9.786-3.259-13.008-7.718-1.081-1.5-2.494-2.627-4.161-1.178-1.58,1.373-.427,2.8.583,4.1,3.9,5.022,8.8,8.367,15.2,9.3,1.045.152,2.081.368,3.382.6a26.969,26.969,0,0,0-1.245,2.672,5.112,5.112,0,0,0-.288.8,2.056,2.056,0,0,0-.226.738c.009.185.018.369.027.554a2.149,2.149,0,0,0,2.1,1.689,2.194,2.194,0,0,0,.59-.023,2.011,2.011,0,0,0,.965-.453,2.115,2.115,0,0,0,.26-.188,2.358,2.358,0,0,0,.282-.384,6.67,6.67,0,0,1,.376-.764c.082-.12.124-.25.189-.356,4.747-7.853,11.213-6.105,18.307-4.062,2.144.617,1.528.491,3.341,2.019,2.229,1.877,3.363,6.815,3.978,10.84q1.991-.744,4.216-1.383c-1.061-5.192-3.09-10.552-7.15-14.493" transform="translate(-118.316 -47.221)" fill="#16302c"/>
            <path id="Path_751" data-name="Path 751" d="M468.255,199.474a7.342,7.342,0,0,1,2.394-1.849,10.375,10.375,0,0,0,1.465-.171c.239-.028.48-.045.716-.087a11.453,11.453,0,0,0,2.256-.566,4.208,4.208,0,0,0,2.627-3.109,4.135,4.135,0,0,0,.112-.6,1.54,1.54,0,0,1,.409-.879,3.369,3.369,0,0,1,1.427-.915c.235-.089.476-.159.744-.248a2.847,2.847,0,0,0-.829-.274.374.374,0,0,1-.193-.12,2.27,2.27,0,0,0-3.935.595c-.014.035-.027.071-.047.124-.079-.108-.147-.206-.221-.3a9.309,9.309,0,0,0-1.446-1.4,23.253,23.253,0,0,0-3.827-2.571c-.122-.064-.248-.118-.409-.195a9.9,9.9,0,0,0,2.846,5.377.655.655,0,0,1-.191-.019,3.213,3.213,0,0,1-.567-.267c-.75-.514-1.49-1.044-2.234-1.568a.311.311,0,0,0-.147-.067c.076.221.142.445.23.661a8.737,8.737,0,0,0,1.553,2.381c.242.28.5.55.757.835a7.3,7.3,0,0,0-3.489,5.231" transform="translate(-155.073 -61.9)" fill="#d26c7f"/>
            <path id="Path_752" data-name="Path 752" d="M472.39,226.914h6.216v6.215H472.39Zm0-7.871h6.216v6.215H472.39Zm7.871,7.871h6.216v6.215h-6.216Zm0-7.871h6.216v6.215h-6.216Zm17.272,24.874c.015-1.75.007-7.982.007-8.962q0-7.934,0-15.866v-.579c.286.241.515.411.715.611a1.159,1.159,0,0,0,1.451.221,4.519,4.519,0,0,0,2.245-2.368.411.411,0,0,1,.079-.094v-.971a4.284,4.284,0,0,0-1.38-1.72q-9.684-8.459-19.354-16.933a2.549,2.549,0,0,0-3.677.033q-9.884,9.063-19.775,18.119a2.326,2.326,0,0,0-.908,2.525,2.52,2.52,0,0,0,4.186,1.5c.447-.354.859-.75,1.371-1.2v.592c0,5.044.016,14.174,0,20.707q2.82-.146,5.757-.148c11.426,0,21.663,1.712,29.284,4.537" transform="translate(-151.292 -65.072)" fill="#16302c"/>
            <path id="Path_753" data-name="Path 753" d="M366.684,213.364c-3.761,2.231-.169,7.747,1.95,9.528a28.8,28.8,0,0,0,12.866,6.413,68.944,68.944,0,0,1-6.443-8.067c-2.654-3.5-4.478-10.185-8.372-7.875" transform="translate(-120.892 -70.503)" fill="#16302c"/>
            <path id="Path_754" data-name="Path 754" d="M414.285,179.476a68.877,68.877,0,0,1-1.949-10.138c-.72-4.335.775-11.1-3.747-10.866-4.367.225-3.755,6.778-2.707,9.341a28.792,28.792,0,0,0,8.4,11.663" transform="translate(-134.166 -52.48)" fill="#16302c"/>
            <path id="Path_755" data-name="Path 755" d="M440.868,170.748a28.8,28.8,0,0,0,10.343,9.984,69,69,0,0,1-3.72-9.63c-1.478-4.138-1.21-11.06-5.617-10.027-4.258,1-2.491,7.338-1.005,9.673" transform="translate(-145.454 -53.309)" fill="#16302c"/>
            <path id="Path_756" data-name="Path 756" d="M474.341,172.957a52.305,52.305,0,0,0,7.907-2.8c4.436-2.151,8.364-6.4,8.213-11.6-.073-2.48-3.935-2.491-3.862,0,.1,3.5-2.42,6.09-5.32,7.742a18.021,18.021,0,0,0-2.042-10.291,1.948,1.948,0,0,0-2.643-.693,1.973,1.973,0,0,0-.693,2.643q.287.535.534,1.088c.027.075.171.424.188.47.064.173.125.348.183.523a18.636,18.636,0,0,1,.622,2.605c.012.1.024.209.034.313.021.215.037.43.05.645q.037.646.022,1.294t-.085,1.292c-.005.051-.011.1-.017.154,0,.025-.011.071-.024.157-.045.242-.086.485-.136.727a2.252,2.252,0,0,0-.015.8c-1.847.618-3.731,1.123-5.585,1.72-.738.237-1.481.5-2.206.817a25.464,25.464,0,0,1-.7,4.986c1.487-1.456,3.6-1.994,5.573-2.584" transform="translate(-155.243 -51.348)" fill="#16302c"/>
            <path id="Path_757" data-name="Path 757" d="M463.626,181.07a2,2,0,0,0,0,2.731,1.945,1.945,0,0,0,2.732,0,5.581,5.581,0,0,1,.528-.583,25.515,25.515,0,0,0,.7-4.986,9.68,9.68,0,0,0-3.957,2.837" transform="translate(-153.361 -59.026)" fill="#16302c"/>
          </g>
        </g>
        <rect id="Rectangle_503" data-name="Rectangle 503" width="6.216" height="6.215" transform="translate(321.098 153.971)" fill="#d26c7f"/>
        <rect id="Rectangle_504" data-name="Rectangle 504" width="6.216" height="6.215" transform="translate(321.098 161.842)" fill="#d26c7f"/>
        <rect id="Rectangle_505" data-name="Rectangle 505" width="6.216" height="6.215" transform="translate(328.969 161.842)" fill="#d26c7f"/>
        <rect id="Rectangle_506" data-name="Rectangle 506" width="6.216" height="6.215" transform="translate(328.969 153.971)" fill="#d26c7f"/>
        <g id="Group_105" data-name="Group 105" transform="translate(242.509 175.853)">
          <path id="Path_758" data-name="Path 758" d="M488.524,267.96q-.591-.238-1.2-.467l-.073-.028c-7.621-2.826-17.858-4.537-29.284-4.537q-2.934,0-5.757.148c-3.024.156-5.935.437-8.713.825q-2.8.39-5.4.926-2.8.574-5.329,1.3-2.222.637-4.216,1.382c-.05.019-.1.04-.146.059-.36.136-.7.28-1.051.421-1.132.611-1.788,1.558-1.508,2.277.324.829,1.651.891,3.114.32q.627-.244,1.288-.478c6.91-2.453,16.433-4.094,27.715-4.094,12.674,0,21.7,1.482,28.686,4.434.044.018.083.04.128.058.021.008.041.012.062.019l.068.028,0,0c1.419.5,2.788.28,3.1-.526.274-.71-.377-1.5-1.486-2.066" transform="translate(-383.517 -262.928)" fill="#16302c"/>
          <path id="Path_759" data-name="Path 759" d="M368.745,449.944a.247.247,0,0,1-.047-.086,1.582,1.582,0,0,1-.022-.286,1.952,1.952,0,0,0-.053-.593.471.471,0,0,0-.27-.084l-.344-.016-1.244-.079-.589-.025-1.23-.078-1.4-.059a1.362,1.362,0,0,0-.567.03.909.909,0,0,0-.139.517,2.3,2.3,0,0,1-.048.326.1.1,0,0,1-.092.059.235.235,0,0,1-.092-.03.155.155,0,0,1-.019-.08c0-.046.007-.1.014-.167a5.539,5.539,0,0,0,.065-.6l.012-.362.071-.86q.038-.646.045-1.009t.014-.49c0-.075.023-.261.053-.556l.036-.7.019-.082.01-.407.027-.047a.262.262,0,0,1,.085-.029,1.5,1.5,0,0,1,.209.034,1.628,1.628,0,0,0,.175.033c.34.02.627.026.863.017a.046.046,0,0,1,.037.031.287.287,0,0,1-.021.1,2.665,2.665,0,0,1-.336.124,3.893,3.893,0,0,0-.559.239.76.76,0,0,0-.256.177.668.668,0,0,0-.056.282q0,.044-.036.445c-.007.072-.013.142-.017.211l-.053,1.4-.007.122c-.011.18.005.288.049.327a1.611,1.611,0,0,0,.686.124q.058,0,1.176.045l.68.041a.481.481,0,0,0,.021-.116l0-.084c0-.056.01-.137.019-.244.017-.169.027-.284.031-.342a.9.9,0,0,0,0-.1q.012-.529.062-1.361a.576.576,0,0,0-.084-.31,1.038,1.038,0,0,0-.453-.138c-.246-.039-.384-.1-.411-.189a.274.274,0,0,1,.031-.116.317.317,0,0,1,.074-.005,1.119,1.119,0,0,1,.112.017q.18.035,1.134.092.255.015.569.007c.21-.005.323-.008.34-.007a.59.59,0,0,1,.116.021.149.149,0,0,1,.015.065l0,.034a1.8,1.8,0,0,1-.434.126,1.38,1.38,0,0,0-.635.23.67.67,0,0,0-.152.445c0,.046-.005.129-.007.25s-.011.3-.025.538l-.019.318a8.53,8.53,0,0,0-.024.892l.162.015.9.049.568.039.554.028a1.519,1.519,0,0,0,.582-.029c.076-.052.118-.17.13-.356l.013-.3c0-.026.01-.128.025-.306s.031-.4.047-.657a6.174,6.174,0,0,0-.006-1.262,1.1,1.1,0,0,0-.256-.534,3.448,3.448,0,0,0-.858-.565c-.131-.07-.195-.136-.191-.2a.168.168,0,0,1,.045-.1,5.532,5.532,0,0,0,.627.2,5.476,5.476,0,0,0,.7.105.452.452,0,0,1,.265.094l-.007.108-.067,1.376-.042.617-.068,1.469-.035.6q-.007.112-.008.211-.013.883-.038,1.3a.156.156,0,0,1-.029.1.09.09,0,0,1-.074.023Z" transform="translate(-362.588 -322.813)" fill="#fcf3f9"/>
          <path id="Path_760" data-name="Path 760" d="M366.672,438.007c.023-.085.04-.148.049-.189a4.692,4.692,0,0,0,.108-.811,1.337,1.337,0,0,0-.081-.558,1.089,1.089,0,0,0-.338-.426,1.348,1.348,0,0,0-.54-.267,1.439,1.439,0,0,0-.734.041,1.238,1.238,0,0,0-.589.422,2.071,2.071,0,0,0-.4.855c-.02.086-.042.2-.066.337.163.052.288.088.377.11l.9.188.366.092q.371.088.952.206m2.7,2.512a6.755,6.755,0,0,0,.072-.811.253.253,0,0,0-.116-.148l-.052-.013q-.118-.028-.853-.243c-.138-.039-.274-.076-.407-.107l-.57-.121-.641-.163-1.2-.28-.857-.209a1.464,1.464,0,0,0-.682-.074c-.093.04-.186.179-.278.415a2.2,2.2,0,0,1-.17.388.087.087,0,0,1-.086.02.345.345,0,0,1-.082-.035.386.386,0,0,1,0-.23c0-.016.01-.061.019-.134a1.877,1.877,0,0,1,.037-.205l.093-.391.284-1.258a5,5,0,0,1,.512-1.453,1.415,1.415,0,0,1,.694-.553,1.51,1.51,0,0,1,.9-.054,1.492,1.492,0,0,1,1.121,1.239,2.433,2.433,0,0,0,.084.282,9.6,9.6,0,0,0,.932-.256l1.182-.357a6.053,6.053,0,0,0,.838-.33,1.166,1.166,0,0,0,.321-.279,2.945,2.945,0,0,0,.34-.622c.032,0,.058.009.077.013a.636.636,0,0,1,.07.021q-.145.656-.354,1.534c-.009.041-.027.1-.05.169q-.731.184-1.618.456l-1.457.4a.88.88,0,0,0-.307.177.531.531,0,0,0-.108.233l-.092.407-.036.132c.1.034.306.088.621.163l1.631.388a.892.892,0,0,0,.262.022.31.31,0,0,0,.177-.1,2.949,2.949,0,0,0,.292-.5l.094-.184a.208.208,0,0,1,.138-.007,1.139,1.139,0,0,1-.02.187c-.068.286-.119.486-.153.6-.017.06-.031.108-.039.146l-.145.65-.155.632c-.007.028-.037.174-.089.436l-.041.091-.05,0q-.043-.01-.084-.09" transform="translate(-362.869 -319.761)" fill="#fcf3f9"/>
          <path id="Path_761" data-name="Path 761" d="M365.605,429.116l-.064-.064q.154-.366.316-.728l.063-.149c.019-.045.038-.1.057-.151q.11-.3.432-1.068.064-.153.127-.3c.042-.1.083-.188.124-.277a.1.1,0,0,1,.058-.024l.068.039c.023.031.019.082-.011.155l-.015.036a4.2,4.2,0,0,0-.153.425.886.886,0,0,0-.067.419.178.178,0,0,0,.106.114,1.667,1.667,0,0,0,.592.072l1.883-.019.63-.018q.986,0,2.006.031l.2,0-.615-.613q-.463-.47-1-.974l-.719-.667c-.015-.014-.07-.056-.16-.126a6.952,6.952,0,0,0-1.332-1.072.229.229,0,0,0-.163,0,.486.486,0,0,0-.2.148,3.244,3.244,0,0,0-.2.33l-.181.317a.139.139,0,0,1-.094.009l-.03-.029.6-1.471.2-.484a1.282,1.282,0,0,1,.172-.321l.038.011a.25.25,0,0,1,.084.067.976.976,0,0,1-.038.217,1.486,1.486,0,0,0-.091.515.748.748,0,0,0,.181.3l2.441,2.418q1.094,1.11,1.722,1.649l.338.3a.22.22,0,0,1-.005.114.556.556,0,0,1-.061.108q-1.617-.045-2.518-.024l-3.715.07a1.34,1.34,0,0,0-.431.083,2.24,2.24,0,0,0-.379.455,1.963,1.963,0,0,1-.118.157.138.138,0,0,1-.087.017" transform="translate(-363.566 -315.829)" fill="#fcf3f9"/>
          <path id="Path_762" data-name="Path 762" d="M375.579,422.5a.247.247,0,0,1,0-.1,1.556,1.556,0,0,1,.12-.261,1.975,1.975,0,0,0,.243-.543.48.48,0,0,0-.195-.206l-.292-.181-1.047-.677-.5-.311-1.035-.669-1.191-.735a1.37,1.37,0,0,0-.51-.251q-.126.025-.375.384a2.267,2.267,0,0,1-.2.261.1.1,0,0,1-.109.005.231.231,0,0,1-.065-.07.17.17,0,0,1,.021-.08c.025-.038.056-.084.094-.137a5.815,5.815,0,0,0,.348-.488l.188-.311.482-.716q.349-.545.532-.857c.122-.209.207-.349.253-.421s.146-.217.318-.46l.371-.589.058-.062.207-.351.047-.027a.265.265,0,0,1,.089.016,1.538,1.538,0,0,1,.166.132,1.7,1.7,0,0,0,.136.114q.429.275.745.437a.046.046,0,0,1,.017.045.278.278,0,0,1-.064.074,2.539,2.539,0,0,1-.354-.055,3.705,3.705,0,0,0-.605-.065.762.762,0,0,0-.31.029.671.671,0,0,0-.186.219l-.249.371c-.042.058-.081.117-.118.175l-.73,1.193-.066.1q-.145.228-.118.31a1.608,1.608,0,0,0,.538.443q.049.032,1,.614l.573.369a.435.435,0,0,0,.076-.092l.045-.07c.029-.047.075-.115.136-.2.1-.139.162-.234.193-.284a.834.834,0,0,0,.052-.089q.269-.456.719-1.158a.575.575,0,0,0,.078-.312,1.043,1.043,0,0,0-.328-.341q-.294-.232-.266-.365a.273.273,0,0,1,.084-.086.316.316,0,0,1,.068.031.877.877,0,0,1,.09.07q.139.118.944.634.214.137.493.284c.186.1.286.15.3.16a.533.533,0,0,1,.09.076.146.146,0,0,1-.017.064l-.019.029a1.8,1.8,0,0,1-.441-.1,1.382,1.382,0,0,0-.666-.11.673.673,0,0,0-.35.314c-.025.039-.068.11-.129.215s-.156.257-.285.458l-.172.268a8.3,8.3,0,0,0-.457.767l.134.091.763.484.477.312.469.295a1.5,1.5,0,0,0,.522.259q.135-.012.286-.247l.158-.254c.014-.022.071-.107.171-.254s.221-.33.362-.551a6.241,6.241,0,0,0,.611-1.1,1.1,1.1,0,0,0,.037-.591,3.432,3.432,0,0,0-.474-.912c-.08-.125-.1-.213-.069-.266a.178.178,0,0,1,.086-.061,5.6,5.6,0,0,0,.449.48,5.488,5.488,0,0,0,.556.431.448.448,0,0,1,.185.212l-.058.09-.731,1.168-.337.518-.777,1.248-.323.5c-.04.064-.077.124-.11.181q-.443.763-.668,1.114a.154.154,0,0,1-.074.072.1.1,0,0,1-.075-.016Z" transform="translate(-365.183 -313.174)" fill="#fcf3f9"/>
          <path id="Path_763" data-name="Path 763" d="M384.914,409.806a2.325,2.325,0,0,0,.633-.431,3.123,3.123,0,0,0,.593-.784,2.726,2.726,0,0,0,.3-.9,2.665,2.665,0,0,0-.008-.875,2.9,2.9,0,0,0-.2-.692,3.527,3.527,0,0,0-.651-.876,3.388,3.388,0,0,0-1.091-.747,2.421,2.421,0,0,0-1.077-.176,2.914,2.914,0,0,0-1.22.326,4.731,4.731,0,0,0-1.128.815,1.905,1.905,0,0,0-.466.6.732.732,0,0,0,.005.09.978.978,0,0,0,.134.183c.03.031.066.066.109.106.27.267.484.483.643.648l.766.806a19.377,19.377,0,0,0,1.955,1.9.909.909,0,0,0,.7,0m-1.664,1.869a1.437,1.437,0,0,1,.233-.367,1.067,1.067,0,0,0,.259-.48,4.132,4.132,0,0,0-.856-1.082l-.536-.559-.316-.343-.245-.241-.43-.463L380.242,407a.552.552,0,0,0-.3-.2,1.288,1.288,0,0,0-.587.251.71.71,0,0,1-.233.111.2.2,0,0,1-.136-.063.879.879,0,0,1,.1-.126l.251-.241.127-.129a2.292,2.292,0,0,1,.317-.25q.345-.291.689-.621.1-.094.273-.282.461-.5.673-.7a5.094,5.094,0,0,1,.889-.691,3.9,3.9,0,0,1,1.085-.437,2.8,2.8,0,0,1,.954-.036,3.15,3.15,0,0,1,1.055.3,3.338,3.338,0,0,1,.936.7,3.265,3.265,0,0,1,.638.964,3.021,3.021,0,0,1,.258,1.108,2.883,2.883,0,0,1-.113.972,4.236,4.236,0,0,1-.591,1.067,7.666,7.666,0,0,1-.8.847q-.4.383-.674.6a2.238,2.238,0,0,0-.226.19.324.324,0,0,0-.035.041l-1.415,1.413-.034-.021a.135.135,0,0,1-.045-.031Z" transform="translate(-368.019 -309.502)" fill="#fcf3f9"/>
          <path id="Path_764" data-name="Path 764" d="M391.979,403.876a.231.231,0,0,1,.039-.09,1.5,1.5,0,0,1,.213-.193,1.967,1.967,0,0,0,.435-.405.477.477,0,0,0-.1-.266l-.2-.281-.7-1.032-.341-.48-.692-1.019-.811-1.141q-.287-.41-.372-.429-.125-.027-.494.207a2.294,2.294,0,0,1-.288.161.1.1,0,0,1-.1-.037.228.228,0,0,1-.033-.091.168.168,0,0,1,.052-.064c.037-.026.084-.055.14-.09q.255-.139.51-.314l.294-.213.723-.471q.533-.366.824-.583c.194-.144.326-.241.4-.289s.219-.142.471-.3l.572-.4.077-.035.328-.242.054-.007a.271.271,0,0,1,.075.049,1.563,1.563,0,0,1,.1.186,1.657,1.657,0,0,0,.081.159q.288.42.516.692a.047.047,0,0,1,0,.048.287.287,0,0,1-.088.042,2.585,2.585,0,0,1-.3-.189,3.694,3.694,0,0,0-.532-.295.752.752,0,0,0-.3-.094.662.662,0,0,0-.257.128l-.373.244c-.062.038-.12.077-.177.115l-1.137.815-.1.07c-.148.1-.224.181-.228.239a1.605,1.605,0,0,0,.322.617q.033.049.685.956l.386.563a.417.417,0,0,0,.105-.055l.069-.047q.068-.047.2-.134c.144-.091.241-.152.289-.186a1.016,1.016,0,0,0,.082-.062q.425-.315,1.113-.787.19-.183.193-.256a1.037,1.037,0,0,0-.169-.443q-.181-.328-.1-.441a.275.275,0,0,1,.11-.046.288.288,0,0,1,.05.055c.013.019.031.052.056.1q.082.164.623.952c.1.14.211.292.344.454s.2.25.213.264a.6.6,0,0,1,.054.106.154.154,0,0,1-.041.052l-.028.019a1.819,1.819,0,0,1-.367-.266,1.383,1.383,0,0,0-.571-.361.671.671,0,0,0-.445.153c-.037.026-.105.075-.2.147s-.244.177-.441.311l-.263.18a8.27,8.27,0,0,0-.719.529l.088.136.515.742.318.473.317.455a1.5,1.5,0,0,0,.381.441c.087.029.206-.01.36-.116l.244-.173.258-.167q.224-.145.548-.367a6.168,6.168,0,0,0,.993-.779,1.1,1.1,0,0,0,.264-.53,3.441,3.441,0,0,0-.081-1.024c-.025-.146-.011-.237.039-.272a.173.173,0,0,1,.1-.023,4.276,4.276,0,0,0,.57,1.231.444.444,0,0,1,.088.267l-.089.061-1.128.791-.512.344-1.2.848-.493.338c-.062.043-.119.084-.171.123q-.705.531-1.049.766a.155.155,0,0,1-.1.037.093.093,0,0,1-.063-.044Z" transform="translate(-371.181 -306.923)" fill="#fcf3f9"/>
          <path id="Path_765" data-name="Path 765" d="M397.528,392.892l-.1-.211q.687-.325.989-.512c.078-.048.133-.08.166-.1s.067-.03.122-.052a2.765,2.765,0,0,1,.514.191l.122.051,1.423.589.209.1q.441.2.785.322t1.37.55l1.615.672c.158.066.358.146.6.24l-.029-.073q-.318-.6-.336-.638l-.108-.274-.206-.413-.09-.191q-.085-.182-.562-1.106c-.043-.084-.132-.24-.265-.468s-.243-.432-.328-.612a1.628,1.628,0,0,0-.326-.54.894.894,0,0,0-.434.059c-.054.022-.141.053-.26.091a1.349,1.349,0,0,1-.245.089.175.175,0,0,1-.106-.041.458.458,0,0,1-.023-.152.927.927,0,0,1,.218-.147,2.157,2.157,0,0,1,.323-.114,2.248,2.248,0,0,0,.344-.126q.2-.1.621-.326c.157-.089.266-.148.328-.177l.075-.036.056.142a.631.631,0,0,1-.177.13,1.125,1.125,0,0,0-.213.147.555.555,0,0,0-.151.174.389.389,0,0,0,0,.286l.712,1.376.34.625.084.189.449.878q.458.9.778,1.573.069.146.282.642l-.2.116q-.239-.1-1.6-.611c-.21-.077-.354-.134-.432-.169l-.59-.257q-.336-.138-.435-.174l-.143-.051q-.744-.32-1.905-.779-.313-.122-.939-.4c-.262-.118-.425-.189-.491-.212a1.7,1.7,0,0,0-.253-.064l.058.156q.409.864,1.174,2.362l.726,1.452c.062.122.126.239.192.348l.172-.037c.294-.107.588-.2.885-.274a.476.476,0,0,0,.072.015l.076.171a.471.471,0,0,1-.1.077,1.164,1.164,0,0,1-.124.048q-.455.172-1.084.47-.443.21-.769.392l-.06.033a1.09,1.09,0,0,1-.12.045l-.068-.13.09-.108.193-.13a2.332,2.332,0,0,0,.365-.282.356.356,0,0,0,.094-.159,6.828,6.828,0,0,0-.375-.918q-.13-.275-.49-1l-.286-.6-.605-1.253a6,6,0,0,0-.528-.965.322.322,0,0,0-.178-.089,1.027,1.027,0,0,0-.512.058,3.422,3.422,0,0,1-.378.114" transform="translate(-374.125 -304.858)" fill="#fcf3f9"/>
          <path id="Path_766" data-name="Path 766" d="M409.056,388.123l-.069-.225a11.043,11.043,0,0,0,1.059-.343c.086-.034.145-.056.18-.066s.071-.018.129-.031a2.692,2.692,0,0,1,.474.273l.112.07,1.308.815.19.13q.4.268.72.447t1.261.768l1.482.928q.218.137.555.336l-.017-.076q-.215-.648-.226-.686l-.062-.288-.135-.44-.058-.2q-.055-.194-.373-1.184c-.029-.09-.091-.258-.185-.506s-.169-.466-.223-.657a1.613,1.613,0,0,0-.233-.586.9.9,0,0,0-.437-.013c-.058.013-.148.029-.272.047a1.322,1.322,0,0,1-.256.047.173.173,0,0,1-.1-.058.439.439,0,0,1,0-.154.909.909,0,0,1,.239-.109,2.191,2.191,0,0,1,.337-.06,2.191,2.191,0,0,0,.361-.067c.144-.041.367-.114.666-.22.169-.062.287-.1.353-.121l.08-.023.032.148a.624.624,0,0,1-.2.1,1.092,1.092,0,0,0-.233.11.553.553,0,0,0-.177.147.381.381,0,0,0-.042.282l.476,1.475.232.673.051.2.3.939q.3.963.509,1.68.044.156.173.68l-.214.082q-.219-.141-1.475-.865-.292-.167-.4-.238l-.539-.351c-.206-.128-.34-.209-.4-.243l-.133-.074q-.681-.438-1.751-1.082-.29-.173-.861-.55c-.239-.159-.389-.256-.449-.29a1.738,1.738,0,0,0-.239-.105l.031.164q.262.92.769,2.523l.478,1.551c.04.131.085.256.132.375l.176-.009a9.218,9.218,0,0,1,.917-.124.429.429,0,0,0,.069.026l.046.181a.467.467,0,0,1-.115.059,1.265,1.265,0,0,1-.13.027q-.478.1-1.147.286-.472.134-.823.26l-.066.024a1.256,1.256,0,0,1-.124.025l-.045-.14.106-.091.212-.1a2.306,2.306,0,0,0,.407-.218.352.352,0,0,0,.118-.14,6.62,6.62,0,0,0-.219-.967q-.082-.293-.319-1.066l-.182-.641-.391-1.336a6.089,6.089,0,0,0-.362-1.039.326.326,0,0,0-.161-.117,1.03,1.03,0,0,0-.515-.027,3.384,3.384,0,0,1-.391.05" transform="translate(-377.954 -303.642)" fill="#fcf3f9"/>
          <path id="Path_767" data-name="Path 767" d="M422.143,391.366a.226.226,0,0,1,.076-.063,1.453,1.453,0,0,1,.277-.076,1.947,1.947,0,0,0,.573-.164.475.475,0,0,0,.033-.28l-.049-.341-.155-1.237-.085-.584-.153-1.222-.2-1.386a1.385,1.385,0,0,0-.135-.552.918.918,0,0,0-.534-.039,2.209,2.209,0,0,1-.33.012.1.1,0,0,1-.074-.078.232.232,0,0,1,.013-.1.157.157,0,0,1,.074-.033c.045-.006.1-.011.166-.017.194-.006.393-.021.6-.047l.358-.056.858-.091c.427-.055.761-.1,1-.144s.4-.066.485-.078.259-.026.556-.051l.69-.095.084,0,.4-.067.051.018a.256.256,0,0,1,.045.078,1.566,1.566,0,0,1,.005.212,1.528,1.528,0,0,0,0,.178q.065.506.144.851a.049.049,0,0,1-.023.042.289.289,0,0,1-.1,0,2.451,2.451,0,0,1-.186-.307,3.818,3.818,0,0,0-.34-.5.75.75,0,0,0-.221-.219.669.669,0,0,0-.287,0c-.029,0-.177.02-.444.047-.072.006-.142.013-.209.022l-1.383.207-.122.016c-.179.024-.283.06-.312.11a1.615,1.615,0,0,0,.006.7c.005.039.064.427.175,1.163l.088.676a.415.415,0,0,0,.118,0l.083-.011c.055-.007.136-.017.243-.026.169-.015.283-.028.341-.035a.706.706,0,0,0,.1-.017c.348-.059.8-.122,1.349-.193.169-.051.264-.1.288-.141a1.028,1.028,0,0,0,.05-.471c-.007-.25.029-.4.11-.439a.277.277,0,0,1,.12.01.309.309,0,0,1,.019.071,1.049,1.049,0,0,1,0,.114c0,.121.04.5.122,1.131.021.168.054.355.1.56s.068.316.07.332a.578.578,0,0,1,0,.119.153.153,0,0,1-.06.027l-.034,0a1.8,1.8,0,0,1-.205-.4,1.39,1.39,0,0,0-.344-.581.68.68,0,0,0-.466-.066l-.247.04c-.119.02-.3.045-.533.076l-.316.041a8.123,8.123,0,0,0-.881.142l.016.163.12.894.068.566.076.549a1.472,1.472,0,0,0,.138.566.449.449,0,0,0,.373.062l.3-.044.3-.031q.266-.027.655-.077a6.144,6.144,0,0,0,1.239-.242,1.092,1.092,0,0,0,.476-.351,3.429,3.429,0,0,0,.393-.949c.045-.141.1-.216.159-.223a.179.179,0,0,1,.1.026,5.554,5.554,0,0,0-.079.653,5.417,5.417,0,0,0,.027.7.442.442,0,0,1-.043.277l-.107.014-1.364.191-.613.075-1.456.207-.593.077c-.074.009-.144.02-.208.031-.58.1-1.009.17-1.283.2a.153.153,0,0,1-.1-.01.088.088,0,0,1-.036-.068Z" transform="translate(-382.059 -303.217)" fill="#fcf3f9"/>
          <path id="Path_768" data-name="Path 768" d="M431.933,384.487v-.235c.506.009.878,0,1.113-.021a1.743,1.743,0,0,1,.191-.011c.029,0,.074,0,.132.007a2.705,2.705,0,0,1,.376.4l.086.1,1.016,1.159.144.179q.307.372.56.637t.985,1.1l1.15,1.318q.169.194.433.483l.007-.078c-.013-.455-.018-.695-.018-.722l.025-.294,0-.461,0-.211q0-.2-.014-1.241c0-.095-.012-.274-.03-.537s-.027-.495-.023-.694a1.623,1.623,0,0,0-.054-.628.9.9,0,0,0-.414-.14c-.059,0-.15-.015-.274-.033a1.347,1.347,0,0,1-.259-.029.177.177,0,0,1-.077-.084.442.442,0,0,1,.047-.146.932.932,0,0,1,.26-.035,2.139,2.139,0,0,1,.34.04,2.271,2.271,0,0,0,.364.04c.151,0,.385,0,.7-.017.179-.011.3-.015.373-.013h.084l-.013.152a.636.636,0,0,1-.216.038,1.136,1.136,0,0,0-.256.037.563.563,0,0,0-.212.09.382.382,0,0,0-.122.258l.028,1.55.027.712-.008.205.013.986q.013,1.01,0,1.755c0,.108-.012.341-.031.7l-.229.016q-.169-.2-1.162-1.255-.231-.244-.313-.343l-.414-.492c-.161-.183-.264-.3-.312-.348l-.106-.11q-.525-.616-1.363-1.542-.226-.249-.663-.776c-.183-.221-.3-.358-.346-.407a1.736,1.736,0,0,0-.2-.17l-.018.167q-.015.955.006,2.637l.007,1.623q0,.206.018.4l.171.042q.464.051.914.147a.417.417,0,0,0,.057.045l-.007.187a.45.45,0,0,1-.128.022.883.883,0,0,1-.132-.012q-.484-.047-1.18-.058-.491-.008-.863.01l-.069,0a1.247,1.247,0,0,1-.126-.012l0-.147.128-.057.231-.03a2.268,2.268,0,0,0,.452-.091.353.353,0,0,0,.154-.1,6.732,6.732,0,0,0,.07-.989c0-.2,0-.573,0-1.113l.011-.666.013-1.392a6.052,6.052,0,0,0-.046-1.1.324.324,0,0,0-.12-.159,1.037,1.037,0,0,0-.485-.175,3.225,3.225,0,0,1-.389-.065" transform="translate(-385.546 -303.097)" fill="#fcf3f9"/>
          <path id="Path_769" data-name="Path 769" d="M447.115,391.538a3.419,3.419,0,0,0,.863.035,2.14,2.14,0,0,0,.841-.239,2.074,2.074,0,0,0,.635-.5,3.155,3.155,0,0,0,.459-.807,4.89,4.89,0,0,0,.3-1.032,4.553,4.553,0,0,0,.037-1.332,2.386,2.386,0,0,0-.333-.958,2.343,2.343,0,0,0-.71-.738,2.541,2.541,0,0,0-.981-.391,2.655,2.655,0,0,0-.885-.008,2.234,2.234,0,0,0-.756.247,2.276,2.276,0,0,0-.615.548,3.626,3.626,0,0,0-.513.847,3.834,3.834,0,0,0-.277.857,4,4,0,0,0-.04.928,3.409,3.409,0,0,0,.175.937,2.753,2.753,0,0,0,.4.75,2.188,2.188,0,0,0,1.4.858m-2.817-3.6a3.007,3.007,0,0,1,.274-.855,3.656,3.656,0,0,1,.546-.762,2.834,2.834,0,0,1,.809-.631,3.832,3.832,0,0,1,1.191-.339,4.172,4.172,0,0,1,1.273.062,3.763,3.763,0,0,1,.968.311,3.527,3.527,0,0,1,.815.532,3.17,3.17,0,0,1,.659.884,2.584,2.584,0,0,1,.282.821,3.327,3.327,0,0,1-.009,1.119,3.836,3.836,0,0,1-.31,1.035,2.852,2.852,0,0,1-.56.757,3.734,3.734,0,0,1-.907.6,2.976,2.976,0,0,1-.993.29,3.973,3.973,0,0,1-1.208-.037,4.051,4.051,0,0,1-1.117-.352,3.347,3.347,0,0,1-.773-.512,3.219,3.219,0,0,1-.578-.758,3.046,3.046,0,0,1-.373-1.022,3.259,3.259,0,0,1,.012-1.138" transform="translate(-389.63 -303.464)" fill="#fcf3f9"/>
          <path id="Path_770" data-name="Path 770" d="M458.344,394.469a3.392,3.392,0,0,0,.845.177,2.128,2.128,0,0,0,.869-.1,2.074,2.074,0,0,0,.71-.393,3.162,3.162,0,0,0,.585-.722,4.882,4.882,0,0,0,.467-.968,4.552,4.552,0,0,0,.255-1.308,2.377,2.377,0,0,0-.171-1,2.342,2.342,0,0,0-.58-.845,2.557,2.557,0,0,0-.9-.546,2.635,2.635,0,0,0-.871-.152,2.21,2.21,0,0,0-.786.119,2.282,2.282,0,0,0-.7.44,3.63,3.63,0,0,0-.646.751,3.818,3.818,0,0,0-.413.8,4.065,4.065,0,0,0-.193.91,3.417,3.417,0,0,0,.019.953,2.815,2.815,0,0,0,.271.806,2.2,2.2,0,0,0,1.239,1.076m-2.189-4.01a3.04,3.04,0,0,1,.41-.8,3.711,3.711,0,0,1,.663-.662,2.823,2.823,0,0,1,.9-.49,3.826,3.826,0,0,1,1.23-.139,4.2,4.2,0,0,1,1.246.27,3.721,3.721,0,0,1,.9.466,3.512,3.512,0,0,1,.716.659,3.166,3.166,0,0,1,.506.98,2.6,2.6,0,0,1,.143.857,3.318,3.318,0,0,1-.193,1.1,3.883,3.883,0,0,1-.476.97,2.864,2.864,0,0,1-.676.655,3.767,3.767,0,0,1-.993.439,2.988,2.988,0,0,1-1.026.122,3.964,3.964,0,0,1-1.185-.235,4.083,4.083,0,0,1-1.045-.531,3.351,3.351,0,0,1-.678-.633,3.22,3.22,0,0,1-.445-.841,3.066,3.066,0,0,1-.2-1.069,3.274,3.274,0,0,1,.2-1.12" transform="translate(-393.509 -304.471)" fill="#fcf3f9"/>
          <path id="Path_771" data-name="Path 771" d="M468.283,394.908c.076.045.133.077.171.1a4.614,4.614,0,0,0,.756.312,1.334,1.334,0,0,0,.561.065,1.076,1.076,0,0,0,.5-.219,1.348,1.348,0,0,0,.4-.453,1.44,1.44,0,0,0,.147-.72,1.229,1.229,0,0,0-.257-.676,2.05,2.05,0,0,0-.724-.605c-.078-.042-.181-.092-.31-.15q-.137.216-.2.336l-.411.818-.183.329q-.181.337-.443.867m-3.119,1.964a6.777,6.777,0,0,0,.764.277.257.257,0,0,0,.173-.074l.025-.047q.057-.108.453-.763c.074-.123.143-.245.208-.366l.262-.521.322-.578.577-1.086.421-.774a1.466,1.466,0,0,0,.247-.64c-.015-.1-.125-.225-.33-.375a2.339,2.339,0,0,1-.332-.264.086.086,0,0,1,0-.088.371.371,0,0,1,.055-.071.388.388,0,0,1,.222.064c.014.007.056.025.124.053s.132.057.189.088l.354.191,1.143.6a4.987,4.987,0,0,1,1.273.867,1.416,1.416,0,0,1,.357.812,1.515,1.515,0,0,1-.178.882,1.492,1.492,0,0,1-1.484.766,2.35,2.35,0,0,0-.294.009q-.02.389.009.966l.043,1.235a6.006,6.006,0,0,0,.1.894,1.187,1.187,0,0,0,.187.383,2.964,2.964,0,0,0,.515.488c-.013.031-.023.054-.033.072a.557.557,0,0,1-.039.062q-.6-.309-1.391-.735c-.037-.021-.088-.051-.151-.092q.009-.753-.027-1.681l-.012-1.511a.874.874,0,0,0-.092-.342.524.524,0,0,0-.2-.165l-.369-.193-.119-.069q-.086.13-.316.558l-.793,1.477a.9.9,0,0,0-.088.247.311.311,0,0,0,.047.2,2.849,2.849,0,0,0,.406.41l.154.138a.208.208,0,0,1-.028.135,1.251,1.251,0,0,1-.175-.066q-.388-.209-.543-.3c-.053-.032-.1-.057-.131-.076l-.591-.306-.57-.312-.4-.2-.077-.064.014-.048a.158.158,0,0,1,.109-.058" transform="translate(-396.518 -305.508)" fill="#fcf3f9"/>
          <path id="Path_772" data-name="Path 772" d="M475.041,402.6a2.328,2.328,0,0,0,.524.558,3.108,3.108,0,0,0,.867.463,2.752,2.752,0,0,0,.934.16,2.649,2.649,0,0,0,.863-.145,2.89,2.89,0,0,0,.652-.308,3.522,3.522,0,0,0,.764-.781,3.393,3.393,0,0,0,.566-1.194,2.4,2.4,0,0,0,.006-1.09,2.911,2.911,0,0,0-.512-1.154,4.735,4.735,0,0,0-.98-.987,1.909,1.909,0,0,0-.669-.367.613.613,0,0,0-.089.019.976.976,0,0,0-.159.162c-.026.034-.056.075-.088.124q-.332.462-.539.735l-.677.884a19.291,19.291,0,0,0-1.576,2.229.9.9,0,0,0,.113.691m-2.107-1.351a1.425,1.425,0,0,1,.4.173,1.083,1.083,0,0,0,.515.181,4.134,4.134,0,0,0,.935-1.015l.468-.618.29-.365.2-.28.39-.5.951-1.279a.554.554,0,0,0,.152-.329,1.3,1.3,0,0,0-.34-.541.728.728,0,0,1-.146-.213.2.2,0,0,1,.041-.144.9.9,0,0,1,.14.075l.278.211.147.106a2.271,2.271,0,0,1,.3.274q.342.3.721.584.109.082.321.225.563.377.8.555a5.1,5.1,0,0,1,.821.771,3.93,3.93,0,0,1,.6,1,2.812,2.812,0,0,1,.185.936,3.164,3.164,0,0,1-.131,1.089,3.316,3.316,0,0,1-.546,1.033,3.26,3.26,0,0,1-.853.78,3,3,0,0,1-1.053.429,2.9,2.9,0,0,1-.978.039,4.223,4.223,0,0,1-1.148-.417,7.607,7.607,0,0,1-.961-.655q-.441-.335-.7-.573a2.1,2.1,0,0,0-.223-.193.365.365,0,0,0-.046-.029l-1.617-1.176.016-.037a.135.135,0,0,1,.025-.049Z" transform="translate(-399.101 -307.105)" fill="#fcf3f9"/>
          <path id="Path_773" data-name="Path 773" d="M465.338,418.928a12.606,12.606,0,0,0,7.236-1.364c1.22-.636,3.383-3.131,1.425-5.064-2.027-2-3.275,1.47-4.851,2.988a26.891,26.891,0,0,1-3.81,3.44" transform="translate(-396.616 -312.262)" fill="#fcf3f9"/>
          <path id="Path_774" data-name="Path 774" d="M389.374,434.032a26.881,26.881,0,0,1,4.638,2.2,12.611,12.611,0,0,0-4.035-6.161c-1.055-.882-4.189-1.923-5.223.627-1.07,2.639,2.613,2.461,4.62,3.334" transform="translate(-369.866 -317.958)" fill="#fcf3f9"/>
          <path id="Path_775" data-name="Path 775" d="M422.691,449.039c-1.055-.883-4.19-1.923-5.224.626-1.07,2.639,2.614,2.461,4.621,3.335a26.867,26.867,0,0,1,4.637,2.2,12.606,12.606,0,0,0-4.034-6.16" transform="translate(-380.7 -324.239)" fill="#fcf3f9"/>
          <path id="Path_776" data-name="Path 776" d="M438.292,414.3a9.578,9.578,0,0,0,2.227-5.129c.12-1.037-.527-3.461-2.576-3.053-2.122.421-.472,2.685-.189,4.323a20.42,20.42,0,0,1,.538,3.86" transform="translate(-387.191 -310.333)" fill="#fcf3f9"/>
          <path id="Path_777" data-name="Path 777" d="M416.462,421.582a20.413,20.413,0,0,1,.538,3.86,9.572,9.572,0,0,0,2.226-5.129c.12-1.037-.526-3.46-2.576-3.053-2.121.422-.471,2.685-.189,4.323" transform="translate(-380.139 -314.023)" fill="#fcf3f9"/>
          <path id="Path_778" data-name="Path 778" d="M399.281,437.128a11.333,11.333,0,0,0,2.636-6.073c.142-1.228-.624-4.1-3.049-3.614-2.511.5-.558,3.178-.224,5.117a24.18,24.18,0,0,1,.637,4.57" transform="translate(-374.185 -317.392)" fill="#fcf3f9"/>
          <path id="Path_779" data-name="Path 779" d="M421.878,433.531c-1.768,2.39,2,3.167,3.806,4.572a28.137,28.137,0,0,1,4.117,3.429,13.163,13.163,0,0,0-2.479-7.277c-.838-1.166-3.737-3.033-5.444-.724" transform="translate(-382.071 -319.063)" fill="#fcf3f9"/>
          <path id="Path_780" data-name="Path 780" d="M390.692,448.945s-.326,5.968,9.246,8.932c0,0-1.423-7.483-9.246-8.932" transform="translate(-371.895 -324.532)" fill="#fcf3f9"/>
          <path id="Path_781" data-name="Path 781" d="M425.991,399.3s-2.745,3.342,1.57,9.168a8.5,8.5,0,0,0-1.57-9.168" transform="translate(-383.301 -308.09)" fill="#fcf3f9"/>
          <path id="Path_782" data-name="Path 782" d="M413.929,401.677s-2.631,3.432,1.877,9.11a8.5,8.5,0,0,0-1.877-9.11" transform="translate(-379.338 -308.878)" fill="#fcf3f9"/>
          <path id="Path_783" data-name="Path 783" d="M433.835,435.485s-1.654,2.158,1.181,5.728a5.347,5.347,0,0,0-1.181-5.728" transform="translate(-386.025 -320.074)" fill="#fcf3f9"/>
          <path id="Path_784" data-name="Path 784" d="M422.916,426.835s.145,2.715,4.619,3.586a5.345,5.345,0,0,0-4.619-3.586" transform="translate(-382.567 -317.21)" fill="#fcf3f9"/>
          <path id="Path_785" data-name="Path 785" d="M394.373,428.156a5.344,5.344,0,0,0-2.609-5.233s-1.046,2.509,2.609,5.233" transform="translate(-372.205 -315.914)" fill="#fcf3f9"/>
          <path id="Path_786" data-name="Path 786" d="M433.706,406.8a5.345,5.345,0,0,0-2.609-5.234s-1.046,2.51,2.609,5.234" transform="translate(-385.231 -308.84)" fill="#fcf3f9"/>
          <path id="Path_787" data-name="Path 787" d="M384.641,474.2a5.346,5.346,0,0,0,4.646-3.552s-2.663-.552-4.646,3.552" transform="translate(-369.892 -331.71)" fill="#fcf3f9"/>
          <path id="Path_788" data-name="Path 788" d="M468.129,425.718a6.83,6.83,0,0,0-7.34-1.405s1.74,3.008,7.34,1.405" transform="translate(-395.11 -316.195)" fill="#fcf3f9"/>
          <path id="Path_789" data-name="Path 789" d="M406.295,437.585s-2.745,3.342,1.57,9.168a8.5,8.5,0,0,0-1.57-9.168" transform="translate(-376.778 -320.77)" fill="#fcf3f9"/>
          <path id="Path_790" data-name="Path 790" d="M416.311,456.291s-.962,3.387,4.152,6.333a6.921,6.921,0,0,0-4.152-6.333" transform="translate(-380.356 -326.965)" fill="#fcf3f9"/>
          <path id="Path_791" data-name="Path 791" d="M397.6,473.759A8.5,8.5,0,0,0,406,469.747s-3.964-1.73-8.392,4.012" transform="translate(-374.185 -331.34)" fill="#fcf3f9"/>
          <path id="Path_792" data-name="Path 792" d="M464.459,401.562s-3.51,2.527-.833,9.264a8.5,8.5,0,0,0,.833-9.264" transform="translate(-395.716 -308.84)" fill="#fcf3f9"/>
          <path id="Path_793" data-name="Path 793" d="M442.026,422.644a8.5,8.5,0,0,0,.833-9.264s-3.511,2.526-.833,9.264" transform="translate(-388.563 -312.754)" fill="#fcf3f9"/>
          <path id="Path_794" data-name="Path 794" d="M451.943,406.071a8.5,8.5,0,0,0,.7,9.275s3.047-3.07-.7-9.275" transform="translate(-391.825 -310.333)" fill="#fcf3f9"/>
          <path id="Path_795" data-name="Path 795" d="M404.714,443.9a58.911,58.911,0,0,1-4.446-4.933,9.32,9.32,0,0,1,1.538-5.172c.207-.346.347-.731.545-1.082.845-1.5,1.7-2.99,2.558-4.482,1.1.817,2.2,1.635,3.292,2.462.322.243.6.54.93.776,3.158,2.269,3.9,4.87,3.9,9.166,0,4.01.06,8.274.22,12.288q1.777-.365,3.691-.634c-.186-8.77-.284-18.817,3.672-25.958a36.452,36.452,0,0,0,3.877-8.986,3.88,3.88,0,0,0-.361.4,1.329,1.329,0,0,1-1.868,0,1.365,1.365,0,0,1,0-1.868,6.624,6.624,0,0,1,2.706-1.94c.016-.421.022-.845,0-1.274a77.628,77.628,0,0,0-1.542-10.309,1.545,1.545,0,0,0-2.263-1.295c-1.161.5-1.1,1.443-.727,2.544,1.743,5.107,2.154,10.254.154,15.4-.383.984-.887,1.921-1.538,3.313-3.872-4.506-8.337-8-10.347-13.288-.962-2.531-1.177-5.347-1.7-8.04-.094-.482.077-1.068-.082-1.482,0-.021.009-.041.01-.062.005-.093.011-.186.017-.279a1.444,1.444,0,0,0-1.287-1.532,1.151,1.151,0,0,0-.18,0h0a1.178,1.178,0,0,0-.137.008,1.438,1.438,0,0,0-1.234.915,2.806,2.806,0,0,0-.135,1.59c0,.019.012.035.017.054a42.575,42.575,0,0,0,.815,7.347c1.243,5.458,4.805,9.611,8.723,13.29,3.138,2.948,4.485,5.748,1.774,9.568a9.966,9.966,0,0,0-.722,1.53c-2.907-2.34-5.717-4.594-8.518-6.86a97.475,97.475,0,0,1-7.61-6.276,19.56,19.56,0,0,1-5.064-10.359c-.222-1.111-.449-2.25-1.976-1.914-1.387.307-1.187,1.387-1.022,2.429a22.893,22.893,0,0,0,8.483,14.661c1.124.91,2.273,1.791,3.427,2.665-.076.143-.156.285-.231.429-1.505,2.883-3.024,5.765-4.581,8.728,0,.026-.007.052-.011.078-.929-1.158-1.864-2.309-2.834-3.428a24.209,24.209,0,0,0-14.407-7.864,3.179,3.179,0,0,0-.827-.127c-.027-.005-.051-.017-.079-.021a1.072,1.072,0,0,0-.558-.021l-.308.067a1.065,1.065,0,0,0-.514.219.707.707,0,0,0-.274.235.718.718,0,0,0-.2.3.708.708,0,0,0-.122.34,1.066,1.066,0,0,0-.021.558q.059.181.118.361l.2.306.27.241a2.008,2.008,0,0,0,.4.2c.023.007.049.013.074.019a1.405,1.405,0,0,0,.367.234,36.846,36.846,0,0,0,3.907.927c5.713,1.566,9.6,5.494,12.948,10.1.809,1.112,1.641,2.206,2.809,3.775-4.571.169-8.634.567-12.672.395-3.752-.16-6.694-2.229-8.9-5.278-.739-1.023-1.706-1.8-2.847-.807-1.08.94-.292,1.914.4,2.8a15.726,15.726,0,0,0,10.4,6.361c.715.1,1.424.251,2.313.411a18.566,18.566,0,0,0-.851,1.828,3.573,3.573,0,0,0-.2.544,1.418,1.418,0,0,0-.155.5c.006.126.013.253.019.379a1.367,1.367,0,0,0,1.09,1.114,1.047,1.047,0,0,0,.346.041,1.49,1.49,0,0,0,.4-.016,1.381,1.381,0,0,0,.66-.31,1.42,1.42,0,0,0,.177-.129,1.54,1.54,0,0,0,.193-.262,4.559,4.559,0,0,1,.257-.522c.056-.082.085-.171.129-.243,3.247-5.371,7.669-4.175,12.522-2.778,1.466.422,1.045.336,2.285,1.38,1.525,1.284,2.3,4.662,2.721,7.415q1.362-.509,2.884-.946a18.773,18.773,0,0,0-4.891-9.913" transform="translate(-366.196 -307.536)" fill="#fcf3f9"/>
          <path id="Path_796" data-name="Path 796" d="M449.4,436.536a5.017,5.017,0,0,1,1.637-1.265,7.155,7.155,0,0,0,1-.117c.163-.019.328-.031.49-.06a7.768,7.768,0,0,0,1.543-.387,2.879,2.879,0,0,0,1.8-2.127,2.815,2.815,0,0,0,.077-.412,1.05,1.05,0,0,1,.279-.6,2.3,2.3,0,0,1,.976-.627c.161-.06.326-.108.51-.169a1.952,1.952,0,0,0-.568-.187.248.248,0,0,1-.131-.082,1.553,1.553,0,0,0-2.692.407c-.009.024-.018.048-.031.085-.054-.074-.1-.141-.152-.2a6.372,6.372,0,0,0-.989-.956,15.845,15.845,0,0,0-2.617-1.758c-.084-.044-.17-.082-.28-.134a6.77,6.77,0,0,0,1.947,3.678.465.465,0,0,1-.131-.013,2.161,2.161,0,0,1-.387-.183c-.514-.352-1.019-.714-1.528-1.072a.209.209,0,0,0-.1-.046c.052.151.1.3.157.453a5.961,5.961,0,0,0,1.062,1.629c.166.192.34.376.518.57a5,5,0,0,0-2.387,3.578" transform="translate(-391.337 -317.576)" fill="#fcf3f9"/>
          <path id="Path_798" data-name="Path 798" d="M379.923,446.036c-2.572,1.526-.116,5.3,1.334,6.517a19.7,19.7,0,0,0,8.8,4.387,47.023,47.023,0,0,1-4.406-5.518c-1.816-2.4-3.064-6.966-5.727-5.386" transform="translate(-367.958 -323.461)" fill="#fcf3f9"/>
          <path id="Path_799" data-name="Path 799" d="M412.482,422.857a47.1,47.1,0,0,1-1.334-6.934c-.492-2.965.53-7.591-2.563-7.432-2.986.154-2.568,4.636-1.851,6.389a19.7,19.7,0,0,0,5.748,7.977" transform="translate(-377.037 -311.133)" fill="#fcf3f9"/>
          <path id="Path_800" data-name="Path 800" d="M430.665,416.888a19.7,19.7,0,0,0,7.074,6.829,47.122,47.122,0,0,1-2.544-6.587c-1.011-2.83-.827-7.564-3.842-6.858-2.913.682-1.7,5.018-.688,6.616" transform="translate(-384.757 -311.701)" fill="#fcf3f9"/>
          <path id="Path_801" data-name="Path 801" d="M453.559,418.4a35.754,35.754,0,0,0,5.408-1.916c3.034-1.471,5.721-4.375,5.617-7.934-.049-1.7-2.691-1.7-2.642,0,.07,2.393-1.655,4.165-3.638,5.3a12.328,12.328,0,0,0-1.4-7.039,1.332,1.332,0,0,0-1.807-.474,1.35,1.35,0,0,0-.474,1.807c.131.243.252.492.365.744.019.051.117.29.128.321.043.118.086.238.125.358a12.833,12.833,0,0,1,.425,1.782c.008.072.016.142.023.214.015.147.025.294.034.441.017.294.022.59.015.885s-.027.59-.058.883c0,.035-.008.071-.012.106,0,.017-.008.048-.017.107-.031.166-.059.332-.093.5a1.535,1.535,0,0,0-.01.544c-1.263.422-2.552.768-3.82,1.176-.5.163-1.013.345-1.509.558a17.4,17.4,0,0,1-.477,3.41,8.838,8.838,0,0,1,3.812-1.768" transform="translate(-391.453 -310.36)" fill="#fcf3f9"/>
          <path id="Path_802" data-name="Path 802" d="M446.229,423.948a1.365,1.365,0,0,0,0,1.868,1.329,1.329,0,0,0,1.868,0,3.966,3.966,0,0,1,.362-.4,17.437,17.437,0,0,0,.477-3.41,6.631,6.631,0,0,0-2.707,1.941" transform="translate(-390.165 -315.611)" fill="#fcf3f9"/>
        </g>
      </g>
    </g>
  </g>
</svg>
