<svg xmlns="http://www.w3.org/2000/svg" xmlns:xlink="http://www.w3.org/1999/xlink" width="157.133" height="151" viewBox="0 0 157.133 151">
  <defs>
    <clipPath id="clip-path">
      <rect id="Rectangle_456" data-name="Rectangle 456" width="150.051" height="106.097" fill="none"/>
    </clipPath>
  </defs>
  <g id="round-flower" transform="translate(-620.367 -5309.977)">
    <g id="round-flower-2" data-name="round-flower">
      <circle id="Ellipse_24" data-name="Ellipse 24" cx="66" cy="66" r="66" transform="translate(636 5319.477)" fill="#1c2f2b"/>
      <g id="Group_112" data-name="Group 112" transform="translate(620.367 5325.076)">
        <g id="Group_74" data-name="Group 74" clip-path="url(#clip-path)">
          <path id="Path_579" data-name="Path 579" d="M204.472,330.364a.225.225,0,0,1-.045-.081,1.479,1.479,0,0,1-.021-.271,1.849,1.849,0,0,0-.05-.561.447.447,0,0,0-.256-.08l-.325-.015-1.178-.075-.557-.024-1.164-.074-1.323-.056a1.292,1.292,0,0,0-.536.029.857.857,0,0,0-.132.489,2.169,2.169,0,0,1-.046.309.1.1,0,0,1-.087.055.221.221,0,0,1-.086-.029.157.157,0,0,1-.019-.075c0-.043.007-.1.014-.157a5.372,5.372,0,0,0,.061-.563l.011-.343.067-.814q.037-.611.043-.955t.014-.464q.007-.106.05-.526l.034-.658.019-.078.009-.385.026-.045a.255.255,0,0,1,.081-.028,1.413,1.413,0,0,1,.2.033,1.57,1.57,0,0,0,.165.031q.482.029.817.016a.045.045,0,0,1,.036.029.27.27,0,0,1-.02.09,2.513,2.513,0,0,1-.318.118,3.594,3.594,0,0,0-.529.227.715.715,0,0,0-.242.167.629.629,0,0,0-.053.266q0,.042-.034.421c-.007.068-.013.134-.017.2l-.051,1.322-.007.116c-.01.17.005.273.046.31a1.525,1.525,0,0,0,.648.118l1.113.043.643.038a.426.426,0,0,0,.02-.11l0-.079c0-.053.009-.13.019-.231.016-.16.025-.268.029-.323a.958.958,0,0,0,0-.1q.011-.5.058-1.288a.544.544,0,0,0-.08-.293.972.972,0,0,0-.429-.13c-.233-.037-.363-.1-.389-.179a.261.261,0,0,1,.03-.11.3.3,0,0,1,.07-.005c.021,0,.057.007.106.016q.17.034,1.073.087.241.014.538.007t.321-.006a.569.569,0,0,1,.11.021.144.144,0,0,1,.015.061l0,.032a1.689,1.689,0,0,1-.411.12,1.307,1.307,0,0,0-.6.218.633.633,0,0,0-.143.421c0,.044,0,.122-.007.237s-.01.285-.024.51l-.018.3a7.934,7.934,0,0,0-.022.844l.153.014.854.046.538.037.524.027a1.424,1.424,0,0,0,.551-.028c.071-.048.112-.161.122-.337l.012-.282q0-.037.024-.289t.044-.622a5.871,5.871,0,0,0-.006-1.194,1.033,1.033,0,0,0-.243-.5,3.251,3.251,0,0,0-.812-.534q-.186-.1-.18-.187a.16.16,0,0,1,.042-.09,4.078,4.078,0,0,0,1.251.288.423.423,0,0,1,.25.089l-.006.1-.064,1.3-.039.583-.064,1.39-.034.565q-.007.107-.007.2-.013.835-.036,1.229a.15.15,0,0,1-.028.094.085.085,0,0,1-.069.021Z" transform="translate(-163.241 -266.671)" fill="#fcf3f9"/>
          <path id="Path_580" data-name="Path 580" d="M204.713,295.064c.022-.081.038-.14.048-.179a4.433,4.433,0,0,0,.1-.767,1.254,1.254,0,0,0-.077-.528,1.023,1.023,0,0,0-.32-.4,1.281,1.281,0,0,0-.511-.253,1.362,1.362,0,0,0-.695.04,1.166,1.166,0,0,0-.556.4,1.945,1.945,0,0,0-.378.809c-.02.081-.04.188-.062.319q.23.074.356.1l.848.178.346.087q.351.083.9.2m2.552,2.377a6.5,6.5,0,0,0,.068-.767.241.241,0,0,0-.109-.14l-.05-.012q-.113-.027-.807-.23-.2-.056-.386-.1l-.54-.114-.606-.154-1.133-.265-.81-.2a1.373,1.373,0,0,0-.646-.07q-.132.057-.263.393a2.051,2.051,0,0,1-.161.367.081.081,0,0,1-.081.019.32.32,0,0,1-.078-.033.367.367,0,0,1,0-.218c0-.015.01-.057.018-.127a1.8,1.8,0,0,1,.035-.194l.088-.37.269-1.19a4.715,4.715,0,0,1,.485-1.374,1.337,1.337,0,0,1,.656-.523,1.42,1.42,0,0,1,1.91,1.121,2.345,2.345,0,0,0,.08.266,9.127,9.127,0,0,0,.882-.242l1.118-.338a5.678,5.678,0,0,0,.793-.312,1.114,1.114,0,0,0,.3-.264,2.815,2.815,0,0,0,.322-.589c.031,0,.055.008.073.012a.667.667,0,0,1,.066.021q-.138.62-.335,1.45c-.009.039-.025.093-.048.16q-.691.174-1.531.432l-1.379.377a.835.835,0,0,0-.291.167.505.505,0,0,0-.1.221l-.087.385-.035.125q.141.048.588.154l1.543.367a.855.855,0,0,0,.247.021.3.3,0,0,0,.168-.091,2.771,2.771,0,0,0,.276-.471l.089-.174a.2.2,0,0,1,.131-.007,1.16,1.16,0,0,1-.019.177q-.1.405-.145.57c-.017.056-.029.1-.038.139l-.137.615-.147.6c-.006.027-.035.165-.084.413l-.04.086-.047,0c-.027-.006-.054-.035-.08-.085" transform="translate(-165.71 -239.776)" fill="#fcf3f9"/>
          <path id="Path_581" data-name="Path 581" d="M209.191,255.727l-.06-.061q.146-.346.3-.689l.059-.141c.018-.043.036-.09.055-.143q.1-.283.409-1.011.061-.145.12-.281c.04-.091.079-.178.118-.263a.091.091,0,0,1,.055-.022l.065.037c.021.029.017.078-.011.146l-.014.034a4.02,4.02,0,0,0-.146.4.842.842,0,0,0-.063.4.166.166,0,0,0,.1.108,1.572,1.572,0,0,0,.56.068l1.782-.018.6-.017q.934,0,1.9.03c.069,0,.132,0,.189,0l-.582-.58q-.437-.445-.941-.922l-.681-.632c-.015-.013-.065-.052-.151-.119a6.589,6.589,0,0,0-1.26-1.015.216.216,0,0,0-.155,0,.455.455,0,0,0-.187.14,3.028,3.028,0,0,0-.191.312l-.171.3a.13.13,0,0,1-.089.008l-.029-.027.568-1.391.192-.458a1.219,1.219,0,0,1,.163-.3l.036.01a.247.247,0,0,1,.079.063.951.951,0,0,1-.036.206,1.4,1.4,0,0,0-.086.487.7.7,0,0,0,.171.283l2.31,2.287q1.034,1.05,1.629,1.561l.32.279a.207.207,0,0,1,0,.108.564.564,0,0,1-.058.1q-1.53-.042-2.383-.022l-3.515.066a1.266,1.266,0,0,0-.408.078,2.137,2.137,0,0,0-.359.43,1.725,1.725,0,0,1-.112.149.128.128,0,0,1-.082.016" transform="translate(-171.857 -205.132)" fill="#fcf3f9"/>
          <path id="Path_582" data-name="Path 582" d="M231.338,228.588a.223.223,0,0,1,0-.093,1.445,1.445,0,0,1,.114-.247,1.864,1.864,0,0,0,.23-.514.451.451,0,0,0-.184-.195l-.276-.172-.991-.641-.474-.293-.979-.633-1.127-.695a1.293,1.293,0,0,0-.482-.237q-.119.023-.354.363a2.169,2.169,0,0,1-.191.246.1.1,0,0,1-.1.006.223.223,0,0,1-.062-.067.156.156,0,0,1,.02-.075c.023-.036.053-.08.089-.13a5.629,5.629,0,0,0,.329-.461l.177-.294.456-.677q.33-.515.5-.812t.239-.4q.058-.09.3-.435l.351-.557.054-.059.2-.332.044-.026a.247.247,0,0,1,.084.015,1.447,1.447,0,0,1,.157.125,1.562,1.562,0,0,0,.129.108q.406.26.705.413a.045.045,0,0,1,.016.043.279.279,0,0,1-.061.069,2.534,2.534,0,0,1-.335-.053,3.61,3.61,0,0,0-.573-.061.716.716,0,0,0-.293.027.632.632,0,0,0-.176.206q-.023.035-.236.351c-.04.056-.077.111-.112.166l-.691,1.129-.062.1q-.138.215-.111.293a1.521,1.521,0,0,0,.508.419q.047.03.949.581l.543.348a.4.4,0,0,0,.072-.086l.043-.066q.043-.066.129-.193.138-.2.183-.268a.844.844,0,0,0,.048-.084q.255-.432.681-1.1a.542.542,0,0,0,.073-.295.975.975,0,0,0-.311-.323q-.278-.219-.252-.346a.261.261,0,0,1,.08-.081.28.28,0,0,1,.063.03.839.839,0,0,1,.085.065q.132.112.893.6.2.13.467.269t.283.151a.607.607,0,0,1,.086.072.148.148,0,0,1-.017.061l-.018.027a1.7,1.7,0,0,1-.417-.1,1.3,1.3,0,0,0-.63-.1.637.637,0,0,0-.331.3c-.023.037-.064.1-.122.2s-.147.243-.269.433l-.163.254a7.8,7.8,0,0,0-.432.726l.127.087.722.457.451.295.444.279a1.425,1.425,0,0,0,.494.245q.129-.011.271-.234l.149-.241q.02-.032.162-.241t.343-.521a5.862,5.862,0,0,0,.578-1.045,1.037,1.037,0,0,0,.035-.559,3.246,3.246,0,0,0-.448-.863q-.113-.177-.065-.251a.164.164,0,0,1,.081-.058,4.07,4.07,0,0,0,.951.863.419.419,0,0,1,.175.2l-.055.086-.691,1.1-.319.49-.735,1.181-.306.477c-.038.06-.073.117-.1.17q-.42.723-.632,1.055a.147.147,0,0,1-.07.068.087.087,0,0,1-.071-.015Z" transform="translate(-186.097 -181.741)" fill="#fcf3f9"/>
          <path id="Path_583" data-name="Path 583" d="M262.474,187.7a2.191,2.191,0,0,0,.6-.408,2.967,2.967,0,0,0,.561-.742,2.606,2.606,0,0,0,.288-.849,2.529,2.529,0,0,0-.008-.829,2.763,2.763,0,0,0-.192-.655,3.348,3.348,0,0,0-.617-.829,3.209,3.209,0,0,0-1.032-.706,2.284,2.284,0,0,0-1.018-.166,2.753,2.753,0,0,0-1.154.308,4.472,4.472,0,0,0-1.067.771,1.8,1.8,0,0,0-.441.572.58.58,0,0,0,0,.085.913.913,0,0,0,.127.173c.028.029.062.063.1.1q.383.379.608.613l.725.763a18.339,18.339,0,0,0,1.85,1.8.859.859,0,0,0,.663,0m-1.574,1.769a1.365,1.365,0,0,1,.22-.347,1.017,1.017,0,0,0,.246-.454,3.91,3.91,0,0,0-.81-1.024l-.508-.529-.3-.324-.232-.228-.408-.438-1.055-1.078a.523.523,0,0,0-.285-.19,1.224,1.224,0,0,0-.556.238.682.682,0,0,1-.22.106.191.191,0,0,1-.128-.06.845.845,0,0,1,.091-.119l.238-.228.12-.122a2.2,2.2,0,0,1,.3-.237q.327-.275.651-.587.094-.09.258-.267.436-.47.636-.663a4.853,4.853,0,0,1,.841-.654,3.725,3.725,0,0,1,1.027-.414,2.649,2.649,0,0,1,.9-.034,2.989,2.989,0,0,1,1,.282,3.152,3.152,0,0,1,.886.664,3.082,3.082,0,0,1,.6.913,2.848,2.848,0,0,1,.244,1.048,2.756,2.756,0,0,1-.107.92,4.038,4.038,0,0,1-.56,1.01,7.2,7.2,0,0,1-.754.8q-.379.363-.638.568a2.014,2.014,0,0,0-.214.179.365.365,0,0,0-.033.039l-1.339,1.337-.032-.02a.138.138,0,0,1-.042-.03Z" transform="translate(-211.083 -149.394)" fill="#fcf3f9"/>
          <path id="Path_584" data-name="Path 584" d="M294.033,161.808a.23.23,0,0,1,.037-.086,1.46,1.46,0,0,1,.2-.183,1.863,1.863,0,0,0,.412-.383.453.453,0,0,0-.094-.251l-.187-.266-.664-.976-.323-.455-.655-.964-.768-1.079q-.272-.388-.351-.407-.119-.026-.467.2a2.138,2.138,0,0,1-.272.153.094.094,0,0,1-.1-.035.216.216,0,0,1-.031-.086.159.159,0,0,1,.048-.061c.036-.024.08-.053.132-.085a5.553,5.553,0,0,0,.483-.3l.278-.2.684-.446q.5-.346.78-.551t.375-.274q.088-.06.446-.284l.541-.376.073-.033.31-.229.051-.007a.249.249,0,0,1,.071.047,1.491,1.491,0,0,1,.1.176,1.553,1.553,0,0,0,.077.15q.272.4.488.655a.044.044,0,0,1,0,.046.276.276,0,0,1-.083.04,2.461,2.461,0,0,1-.289-.179,3.6,3.6,0,0,0-.5-.279.711.711,0,0,0-.28-.089.626.626,0,0,0-.243.121l-.353.231c-.058.036-.114.072-.168.109l-1.075.771-.1.066q-.211.144-.216.227a1.522,1.522,0,0,0,.3.584q.032.046.648.905l.365.532a.414.414,0,0,0,.1-.052l.065-.044q.065-.045.194-.127c.136-.086.228-.145.273-.176.03-.021.056-.04.078-.059q.4-.3,1.053-.744c.12-.116.18-.2.182-.243a.971.971,0,0,0-.16-.419q-.171-.311-.1-.417a.262.262,0,0,1,.1-.044.275.275,0,0,1,.047.052.913.913,0,0,1,.052.093q.078.155.589.9.136.2.325.429t.2.25a.608.608,0,0,1,.051.1.138.138,0,0,1-.039.049l-.027.019a1.705,1.705,0,0,1-.347-.252,1.308,1.308,0,0,0-.54-.341.638.638,0,0,0-.421.145q-.053.037-.191.139t-.417.294l-.249.17a7.961,7.961,0,0,0-.681.5l.083.129.487.7.3.447.3.43a1.418,1.418,0,0,0,.36.418c.082.027.2-.01.341-.11l.231-.164.243-.158q.212-.137.518-.347a5.845,5.845,0,0,0,.94-.737,1.034,1.034,0,0,0,.25-.5,3.245,3.245,0,0,0-.077-.969q-.035-.207.038-.257a.162.162,0,0,1,.1-.022,4.077,4.077,0,0,0,.539,1.165.419.419,0,0,1,.083.253l-.084.058-1.067.748-.485.326-1.137.8-.467.32q-.088.06-.162.117-.668.5-.993.725a.147.147,0,0,1-.091.035.087.087,0,0,1-.06-.042Z" transform="translate(-238.949 -126.668)" fill="#fcf3f9"/>
          <path id="Path_585" data-name="Path 585" d="M322.43,135.176l-.1-.2q.65-.308.936-.484c.074-.045.126-.075.157-.09s.063-.028.115-.049a2.573,2.573,0,0,1,.486.18l.115.048,1.347.557.2.091q.417.188.743.305t1.3.52l1.528.636q.224.094.57.228l-.027-.069q-.3-.571-.317-.6l-.1-.26-.195-.39-.086-.18q-.081-.172-.532-1.046c-.041-.08-.125-.228-.251-.443s-.229-.409-.31-.579a1.535,1.535,0,0,0-.309-.511.854.854,0,0,0-.41.056c-.051.021-.134.05-.246.086a1.283,1.283,0,0,1-.232.084.169.169,0,0,1-.1-.04.426.426,0,0,1-.022-.144.866.866,0,0,1,.207-.139,1.983,1.983,0,0,1,.305-.109,2.121,2.121,0,0,0,.326-.119q.192-.091.587-.309.223-.126.311-.168l.071-.034.053.134a.6.6,0,0,1-.167.123,1.07,1.07,0,0,0-.2.139.536.536,0,0,0-.143.165.365.365,0,0,0,0,.27l.674,1.3.322.592.079.178.425.831q.434.852.736,1.489.065.138.267.607l-.187.11q-.226-.1-1.511-.577c-.2-.073-.335-.127-.409-.16l-.558-.244q-.319-.131-.412-.164l-.136-.048q-.7-.3-1.8-.737-.3-.116-.889-.379-.372-.167-.465-.2a1.625,1.625,0,0,0-.239-.061l.055.148q.387.818,1.111,2.235l.687,1.373q.088.174.182.33l.163-.036q.416-.151.837-.259a.4.4,0,0,0,.068.014l.072.161a.432.432,0,0,1-.1.072.976.976,0,0,1-.117.045q-.431.163-1.026.445-.419.2-.727.371l-.057.032a1.077,1.077,0,0,1-.113.043l-.063-.124.085-.1.183-.123a2.189,2.189,0,0,0,.346-.267.341.341,0,0,0,.088-.15,6.467,6.467,0,0,0-.355-.869q-.124-.26-.464-.946l-.27-.57-.573-1.186a5.722,5.722,0,0,0-.5-.913.306.306,0,0,0-.168-.084.974.974,0,0,0-.484.055,3.108,3.108,0,0,1-.357.108" transform="translate(-264.881 -108.475)" fill="#fcf3f9"/>
          <path id="Path_586" data-name="Path 586" d="M363.454,121.1l-.065-.213q.692-.2,1-.324.121-.049.17-.063t.122-.03a2.539,2.539,0,0,1,.449.258l.106.066,1.237.771.18.122q.38.253.682.423t1.193.726l1.4.879q.206.129.525.319l-.016-.073q-.2-.612-.214-.648l-.058-.273-.128-.417-.055-.192q-.052-.183-.353-1.12-.041-.128-.175-.478t-.211-.622a1.528,1.528,0,0,0-.221-.554.846.846,0,0,0-.413-.013c-.055.012-.141.027-.258.045a1.271,1.271,0,0,1-.243.045.165.165,0,0,1-.093-.055.409.409,0,0,1,0-.145.861.861,0,0,1,.226-.1,2.007,2.007,0,0,1,.319-.057,2.109,2.109,0,0,0,.341-.063q.205-.059.63-.209.24-.088.334-.114l.076-.022.03.141a.6.6,0,0,1-.186.094,1.073,1.073,0,0,0-.221.1.524.524,0,0,0-.168.139.364.364,0,0,0-.04.267l.451,1.4.22.637.049.189.282.889q.288.911.481,1.589.042.147.164.643l-.2.077q-.207-.134-1.4-.818-.276-.157-.378-.225l-.51-.332q-.293-.182-.379-.23l-.126-.07q-.644-.415-1.657-1.023-.274-.163-.814-.521c-.226-.151-.368-.242-.425-.274a1.667,1.667,0,0,0-.226-.1l.03.155q.248.87.728,2.387l.452,1.468c.038.124.08.242.125.355l.167-.009q.435-.08.868-.117a.484.484,0,0,0,.065.025l.044.171a.424.424,0,0,1-.109.055,1.073,1.073,0,0,1-.123.025q-.452.09-1.085.27-.446.127-.779.246l-.062.022a1.062,1.062,0,0,1-.118.024l-.042-.133.1-.086.2-.091a2.18,2.18,0,0,0,.385-.206.34.34,0,0,0,.111-.133,6.346,6.346,0,0,0-.208-.915q-.078-.277-.3-1.009l-.172-.607-.37-1.265a5.73,5.73,0,0,0-.343-.982.307.307,0,0,0-.152-.111.981.981,0,0,0-.487-.025,3.14,3.14,0,0,1-.37.048" transform="translate(-298.622 -97.767)" fill="#fcf3f9"/>
          <path id="Path_587" data-name="Path 587" d="M408.116,120.83a.215.215,0,0,1,.072-.06,1.441,1.441,0,0,1,.262-.071,1.844,1.844,0,0,0,.542-.154.45.45,0,0,0,.031-.266l-.046-.322-.146-1.171-.081-.552-.145-1.157-.193-1.31a1.294,1.294,0,0,0-.128-.522.859.859,0,0,0-.505-.038,2.107,2.107,0,0,1-.312.012.1.1,0,0,1-.07-.075.224.224,0,0,1,.012-.091.161.161,0,0,1,.071-.032c.043-.006.1-.011.157-.016a5.494,5.494,0,0,0,.565-.045l.339-.053.812-.086q.607-.078.946-.136c.226-.039.378-.063.458-.073s.246-.026.527-.049l.652-.089.08,0,.38-.063.049.017a.234.234,0,0,1,.042.074,1.377,1.377,0,0,1,.005.2,1.538,1.538,0,0,0,0,.168q.061.478.137.805a.045.045,0,0,1-.022.04.274.274,0,0,1-.092,0,2.38,2.38,0,0,1-.176-.29,3.624,3.624,0,0,0-.321-.478.714.714,0,0,0-.209-.207.625.625,0,0,0-.271,0l-.42.045c-.068.006-.134.013-.2.021l-1.309.2-.115.015q-.253.033-.3.1a1.512,1.512,0,0,0,.005.659q.007.055.165,1.1l.083.64a.423.423,0,0,0,.112,0l.078-.01c.052-.007.129-.015.23-.025.16-.015.268-.026.323-.033a.82.82,0,0,0,.1-.017q.494-.082,1.276-.183.239-.073.273-.134a.974.974,0,0,0,.047-.446c-.007-.236.027-.374.1-.416a.267.267,0,0,1,.113.009.3.3,0,0,1,.018.068c0,.021,0,.057,0,.107q0,.173.115,1.07.031.239.094.53c.042.194.064.3.066.314a.6.6,0,0,1,0,.112.146.146,0,0,1-.057.026l-.032,0a1.7,1.7,0,0,1-.194-.382,1.305,1.305,0,0,0-.326-.549.637.637,0,0,0-.441-.063c-.043.006-.121.018-.234.037s-.281.043-.5.072l-.3.038a7.836,7.836,0,0,0-.833.136l.015.153.114.847.064.535.072.52a1.413,1.413,0,0,0,.13.536.425.425,0,0,0,.353.058l.28-.041.289-.03q.251-.025.619-.073a5.838,5.838,0,0,0,1.172-.229,1.033,1.033,0,0,0,.451-.333,3.237,3.237,0,0,0,.373-.9q.063-.2.15-.212a.167.167,0,0,1,.1.025,4.08,4.08,0,0,0-.05,1.283.422.422,0,0,1-.041.263l-.1.013-1.291.181-.58.07-1.378.2-.561.073c-.071.009-.137.019-.2.03q-.823.144-1.214.194a.147.147,0,0,1-.1-.01.086.086,0,0,1-.034-.064Z" transform="translate(-334.784 -94.023)" fill="#fcf3f9"/>
          <path id="Path_588" data-name="Path 588" d="M444.8,113.372v-.223a10.434,10.434,0,0,0,1.053-.02c.087-.008.147-.011.181-.011l.126.007a2.581,2.581,0,0,1,.356.377l.082.094.961,1.1.136.169q.291.353.53.6t.931,1.04l1.088,1.247q.16.184.41.457l.006-.074q-.018-.645-.017-.682l.023-.278,0-.436,0-.2q0-.19-.013-1.174c0-.09-.011-.259-.029-.508s-.025-.468-.021-.657a1.541,1.541,0,0,0-.051-.595.849.849,0,0,0-.392-.132c-.056,0-.142-.015-.259-.032a1.293,1.293,0,0,1-.246-.027.166.166,0,0,1-.073-.08.42.42,0,0,1,.044-.138.865.865,0,0,1,.247-.033,2,2,0,0,1,.322.038,2.113,2.113,0,0,0,.345.038q.214,0,.664-.017c.17-.009.287-.014.353-.013h.079l-.012.143a.6.6,0,0,1-.2.036,1.071,1.071,0,0,0-.242.035.528.528,0,0,0-.2.085.361.361,0,0,0-.115.244l.027,1.466.026.673-.008.195.012.933q.013.956,0,1.661,0,.153-.029.663l-.216.015q-.16-.188-1.1-1.187-.219-.231-.3-.325l-.392-.466q-.228-.259-.3-.33l-.1-.1q-.5-.583-1.289-1.459-.214-.235-.628-.734c-.173-.21-.282-.339-.328-.386a1.64,1.64,0,0,0-.188-.161l-.017.158q-.015.9.005,2.5l.007,1.535c0,.13.006.255.017.376l.162.04q.439.049.865.14a.423.423,0,0,0,.055.042l-.007.176a.427.427,0,0,1-.121.021.973.973,0,0,1-.125-.011q-.458-.045-1.117-.055-.464-.008-.817.01l-.065,0a1.157,1.157,0,0,1-.12-.011l0-.139.122-.054.218-.029a2.17,2.17,0,0,0,.428-.086.339.339,0,0,0,.146-.095,6.413,6.413,0,0,0,.066-.936q.005-.288,0-1.053l.01-.631.013-1.317a5.709,5.709,0,0,0-.044-1.04.307.307,0,0,0-.113-.15.977.977,0,0,0-.459-.166,3.04,3.04,0,0,1-.368-.061" transform="translate(-365.505 -92.957)" fill="#fcf3f9"/>
          <path id="Path_589" data-name="Path 589" d="M491.286,122.933a3.217,3.217,0,0,0,.816.034,2.027,2.027,0,0,0,.8-.226,1.951,1.951,0,0,0,.6-.478,2.986,2.986,0,0,0,.434-.764,4.676,4.676,0,0,0,.286-.976,4.325,4.325,0,0,0,.035-1.261,2.26,2.26,0,0,0-.315-.906,2.223,2.223,0,0,0-.672-.7,2.406,2.406,0,0,0-.929-.369,2.514,2.514,0,0,0-.837-.007,2.1,2.1,0,0,0-.715.234,2.155,2.155,0,0,0-.582.518,3.414,3.414,0,0,0-.486.8,3.613,3.613,0,0,0-.262.811,3.8,3.8,0,0,0-.038.879,3.245,3.245,0,0,0,.166.887,2.627,2.627,0,0,0,.378.71,2.071,2.071,0,0,0,1.323.811m-2.666-3.4a2.857,2.857,0,0,1,.259-.809A3.469,3.469,0,0,1,489.4,118a2.683,2.683,0,0,1,.765-.6,3.631,3.631,0,0,1,1.126-.321,3.946,3.946,0,0,1,1.2.058,3.545,3.545,0,0,1,.916.294,3.332,3.332,0,0,1,.771.5,2.984,2.984,0,0,1,.624.836,2.455,2.455,0,0,1,.268.777,3.153,3.153,0,0,1-.009,1.058,3.661,3.661,0,0,1-.294.979,2.691,2.691,0,0,1-.53.716,3.549,3.549,0,0,1-.858.564,2.827,2.827,0,0,1-.939.274,3.768,3.768,0,0,1-1.143-.035,3.861,3.861,0,0,1-1.057-.333,3.175,3.175,0,0,1-.732-.485,3.055,3.055,0,0,1-.547-.716,2.9,2.9,0,0,1-.353-.967,3.1,3.1,0,0,1,.012-1.077" transform="translate(-401.489 -96.195)" fill="#fcf3f9"/>
          <path id="Path_590" data-name="Path 590" d="M532.421,133.624a3.21,3.21,0,0,0,.8.168,2.022,2.022,0,0,0,.822-.092,1.955,1.955,0,0,0,.671-.373,2.983,2.983,0,0,0,.554-.682,4.655,4.655,0,0,0,.442-.916,4.312,4.312,0,0,0,.242-1.238,2.254,2.254,0,0,0-.162-.946,2.219,2.219,0,0,0-.549-.8,2.408,2.408,0,0,0-.855-.517,2.5,2.5,0,0,0-.825-.144,2.1,2.1,0,0,0-.744.113,2.154,2.154,0,0,0-.659.416,3.426,3.426,0,0,0-.611.711,3.645,3.645,0,0,0-.391.757,3.837,3.837,0,0,0-.182.861,3.231,3.231,0,0,0,.018.9,2.648,2.648,0,0,0,.256.763,2.073,2.073,0,0,0,1.173,1.018m-2.072-3.794a2.871,2.871,0,0,1,.388-.756,3.48,3.48,0,0,1,.628-.626,2.678,2.678,0,0,1,.853-.463,3.625,3.625,0,0,1,1.163-.132,3.96,3.96,0,0,1,1.179.255,3.53,3.53,0,0,1,.855.441,3.334,3.334,0,0,1,.677.623,2.992,2.992,0,0,1,.479.927,2.456,2.456,0,0,1,.136.811,3.141,3.141,0,0,1-.182,1.043,3.678,3.678,0,0,1-.451.918,2.7,2.7,0,0,1-.64.62,3.563,3.563,0,0,1-.939.415,2.833,2.833,0,0,1-.971.116,3.76,3.76,0,0,1-1.121-.223,3.851,3.851,0,0,1-.988-.5,3.168,3.168,0,0,1-.642-.6,3.058,3.058,0,0,1-.421-.8,2.894,2.894,0,0,1-.19-1.012,3.094,3.094,0,0,1,.188-1.06" transform="translate(-435.669 -105.064)" fill="#fcf3f9"/>
          <path id="Path_591" data-name="Path 591" d="M565.483,142.193c.072.042.126.073.162.092a4.4,4.4,0,0,0,.715.295,1.259,1.259,0,0,0,.531.061,1.02,1.02,0,0,0,.471-.207,1.28,1.28,0,0,0,.376-.429,1.364,1.364,0,0,0,.14-.682,1.165,1.165,0,0,0-.243-.64,1.948,1.948,0,0,0-.685-.573q-.11-.059-.293-.141c-.086.136-.15.241-.191.318l-.389.774-.172.312q-.171.318-.42.821m-2.951,1.859a6.509,6.509,0,0,0,.724.262.243.243,0,0,0,.163-.07l.024-.045q.055-.1.43-.722c.069-.117.135-.232.2-.347l.248-.492.3-.547.546-1.027.4-.733a1.376,1.376,0,0,0,.234-.606q-.021-.143-.312-.354a2.133,2.133,0,0,1-.314-.25.081.081,0,0,1,0-.083.327.327,0,0,1,.052-.067.366.366,0,0,1,.21.06c.014.007.053.024.118.05a1.791,1.791,0,0,1,.179.083l.336.18,1.081.565a4.719,4.719,0,0,1,1.2.82,1.34,1.34,0,0,1,.338.768,1.427,1.427,0,0,1-.168.834,1.412,1.412,0,0,1-1.4.725,2.317,2.317,0,0,0-.278.009q-.019.368.008.914l.04,1.168a5.665,5.665,0,0,0,.1.846,1.116,1.116,0,0,0,.177.362,2.8,2.8,0,0,0,.487.461.683.683,0,0,1-.031.068.6.6,0,0,1-.037.059q-.564-.292-1.316-.7c-.035-.019-.083-.048-.143-.087q.009-.713-.026-1.59l-.012-1.43a.836.836,0,0,0-.087-.323.5.5,0,0,0-.187-.156l-.35-.182-.112-.065q-.082.124-.3.529l-.751,1.4a.841.841,0,0,0-.083.234.3.3,0,0,0,.045.185,2.751,2.751,0,0,0,.384.388l.146.131a.2.2,0,0,1-.027.128,1.149,1.149,0,0,1-.166-.063q-.367-.2-.514-.286c-.05-.03-.092-.054-.124-.072l-.56-.289-.54-.3c-.025-.013-.15-.075-.378-.187l-.073-.06.014-.045a.148.148,0,0,1,.1-.055" transform="translate(-462.175 -114.2)" fill="#fcf3f9"/>
          <path id="Path_592" data-name="Path 592" d="M592.193,162.041a2.2,2.2,0,0,0,.5.528,2.955,2.955,0,0,0,.82.438,2.6,2.6,0,0,0,.883.152,2.512,2.512,0,0,0,.817-.137,2.751,2.751,0,0,0,.617-.292,3.347,3.347,0,0,0,.723-.738,3.208,3.208,0,0,0,.536-1.13,2.278,2.278,0,0,0,.006-1.032,2.753,2.753,0,0,0-.485-1.092,4.47,4.47,0,0,0-.928-.933,1.8,1.8,0,0,0-.633-.346.618.618,0,0,0-.084.018.917.917,0,0,0-.151.153c-.024.032-.052.071-.083.117q-.314.437-.51.7l-.64.836a18.311,18.311,0,0,0-1.491,2.108.859.859,0,0,0,.107.654m-1.993-1.278a1.346,1.346,0,0,1,.376.163,1.024,1.024,0,0,0,.487.171,3.919,3.919,0,0,0,.885-.96l.443-.584.274-.346.189-.264.369-.471.9-1.211a.519.519,0,0,0,.143-.311,1.221,1.221,0,0,0-.322-.512.688.688,0,0,1-.139-.2.189.189,0,0,1,.039-.136.823.823,0,0,1,.132.071l.263.2.139.1a2.172,2.172,0,0,1,.281.259q.324.28.682.552.1.078.3.213.532.357.754.525a4.822,4.822,0,0,1,.777.729,3.707,3.707,0,0,1,.569.95,2.656,2.656,0,0,1,.175.886,2.986,2.986,0,0,1-.124,1.03,3.144,3.144,0,0,1-.518.978,3.091,3.091,0,0,1-.807.738,2.841,2.841,0,0,1-1,.405,2.747,2.747,0,0,1-.925.038,4.01,4.01,0,0,1-1.086-.4,7.167,7.167,0,0,1-.91-.62q-.417-.316-.66-.541a1.976,1.976,0,0,0-.211-.183.314.314,0,0,0-.043-.027l-1.53-1.114.015-.035a.132.132,0,0,1,.023-.046Z" transform="translate(-484.935 -128.278)" fill="#fcf3f9"/>
          <path id="Path_593" data-name="Path 593" d="M563.47,218.036a11.93,11.93,0,0,0,6.847-1.291c1.154-.6,3.2-2.963,1.348-4.792-1.918-1.893-3.1,1.391-4.59,2.828a25.442,25.442,0,0,1-3.6,3.254" transform="translate(-463.042 -173.706)" fill="#fcf3f9"/>
          <path id="Path_594" data-name="Path 594" d="M281.219,277.123a25.439,25.439,0,0,1,4.388,2.081,11.929,11.929,0,0,0-3.817-5.829c-1-.835-3.964-1.82-4.942.592-1.013,2.5,2.473,2.328,4.372,3.155" transform="translate(-227.356 -223.89)" fill="#fcf3f9"/>
          <path id="Path_595" data-name="Path 595" d="M397.945,340.719c-1-.835-3.964-1.82-4.942.592-1.013,2.5,2.473,2.328,4.372,3.155a25.437,25.437,0,0,1,4.388,2.081,11.93,11.93,0,0,0-3.817-5.829" transform="translate(-322.809 -279.231)" fill="#fcf3f9"/>
          <path id="Path_596" data-name="Path 596" d="M463.752,198.49a9.059,9.059,0,0,0,2.106-4.853c.114-.982-.5-3.274-2.437-2.889-2.007.4-.446,2.54-.179,4.09a19.324,19.324,0,0,1,.509,3.652" transform="translate(-379.996 -156.715)" fill="#fcf3f9"/>
          <path id="Path_597" data-name="Path 597" d="M387.645,234.4a19.314,19.314,0,0,1,.509,3.652,9.061,9.061,0,0,0,2.107-4.853c.113-.982-.5-3.274-2.437-2.889-2.007.4-.446,2.54-.179,4.09" transform="translate(-317.872 -189.228)" fill="#fcf3f9"/>
          <path id="Path_598" data-name="Path 598" d="M324.561,275.6a10.727,10.727,0,0,0,2.494-5.746c.134-1.162-.59-3.877-2.886-3.42-2.376.472-.528,3.007-.211,4.842a22.9,22.9,0,0,1,.6,4.324" transform="translate(-265.41 -218.906)" fill="#fcf3f9"/>
          <path id="Path_599" data-name="Path 599" d="M407.962,285.342c-1.673,2.262,1.9,3,3.6,4.326a26.587,26.587,0,0,1,3.9,3.245,12.456,12.456,0,0,0-2.345-6.885c-.793-1.1-3.535-2.87-5.151-.685" transform="translate(-334.893 -233.631)" fill="#fcf3f9"/>
          <path id="Path_600" data-name="Path 600" d="M298.429,342.933s-.309,5.647,8.749,8.452a11.12,11.12,0,0,0-8.749-8.452" transform="translate(-245.239 -281.812)" fill="#fcf3f9"/>
          <path id="Path_601" data-name="Path 601" d="M421.523,166.653s-2.6,3.162,1.485,8.675a8.046,8.046,0,0,0-1.485-8.675" transform="translate(-345.725 -136.95)" fill="#fcf3f9"/>
          <path id="Path_602" data-name="Path 602" d="M378.951,175.1s-2.49,3.248,1.776,8.62a8.045,8.045,0,0,0-1.776-8.62" transform="translate(-310.816 -143.895)" fill="#fcf3f9"/>
          <path id="Path_603" data-name="Path 603" d="M450.367,295.143s-1.565,2.042,1.117,5.419a5.058,5.058,0,0,0-1.117-5.419" transform="translate(-369.724 -242.539)" fill="#fcf3f9"/>
          <path id="Path_604" data-name="Path 604" d="M412.848,264.43s.137,2.569,4.371,3.394a5.058,5.058,0,0,0-4.371-3.394" transform="translate(-339.266 -217.3)" fill="#fcf3f9"/>
          <path id="Path_605" data-name="Path 605" d="M304.348,255.489a5.058,5.058,0,0,0-2.469-4.952s-.989,2.375,2.469,4.952" transform="translate(-247.967 -205.883)" fill="#fcf3f9"/>
          <path id="Path_606" data-name="Path 606" d="M444,179.646a5.058,5.058,0,0,0-2.469-4.952s-.989,2.375,2.469,4.952" transform="translate(-362.731 -143.558)" fill="#fcf3f9"/>
          <path id="Path_607" data-name="Path 607" d="M276.946,423.282a5.058,5.058,0,0,0,4.4-3.361s-2.519-.522-4.4,3.361" transform="translate(-227.586 -345.058)" fill="#fcf3f9"/>
          <path id="Path_608" data-name="Path 608" d="M554.263,255.393a6.464,6.464,0,0,0-6.945-1.33s1.646,2.846,6.945,1.33" transform="translate(-449.769 -208.359)" fill="#fcf3f9"/>
          <path id="Path_609" data-name="Path 609" d="M351.588,302.6s-2.6,3.162,1.485,8.675a8.045,8.045,0,0,0-1.485-8.675" transform="translate(-288.255 -248.666)" fill="#fcf3f9"/>
          <path id="Path_610" data-name="Path 610" d="M389.21,369.018s-.911,3.2,3.929,5.992a6.55,6.55,0,0,0-3.929-5.992" transform="translate(-319.785 -303.247)" fill="#fcf3f9"/>
          <path id="Path_611" data-name="Path 611" d="M322.974,419.953a8.045,8.045,0,0,0,7.94-3.8s-3.751-1.636-7.94,3.8" transform="translate(-265.41 -341.795)" fill="#fcf3f9"/>
          <path id="Path_612" data-name="Path 612" d="M555.56,174.7s-3.321,2.391-.788,8.766a8.046,8.046,0,0,0,.788-8.766" transform="translate(-455.111 -143.559)" fill="#fcf3f9"/>
          <path id="Path_613" data-name="Path 613" d="M478.078,225.421a8.045,8.045,0,0,0,.788-8.766s-3.321,2.391-.788,8.766" transform="translate(-392.087 -178.04)" fill="#fcf3f9"/>
          <path id="Path_614" data-name="Path 614" d="M513.117,190.7a8.046,8.046,0,0,0,.664,8.776s2.883-2.9-.664-8.776" transform="translate(-420.829 -156.715)" fill="#fcf3f9"/>
          <path id="Path_615" data-name="Path 615" d="M266.87,204.5a55.819,55.819,0,0,1-4.207-4.667,8.823,8.823,0,0,1,1.455-4.894c.2-.327.328-.691.516-1.024.8-1.418,1.611-2.829,2.42-4.241,1.041.774,2.082,1.547,3.115,2.33.3.23.571.511.88.734,2.988,2.147,3.69,4.607,3.69,8.673,0,3.793.057,7.829.208,11.627q1.681-.345,3.492-.6c-.176-8.3-.269-17.8,3.474-24.561a34.477,34.477,0,0,0,3.669-8.5,3.713,3.713,0,0,0-.342.377,1.258,1.258,0,0,1-1.768,0,1.291,1.291,0,0,1,0-1.768,6.269,6.269,0,0,1,2.561-1.836c.015-.4.02-.8,0-1.205a73.436,73.436,0,0,0-1.459-9.754,1.462,1.462,0,0,0-2.141-1.225c-1.1.471-1.043,1.366-.688,2.407,1.649,4.833,2.038,9.7.146,14.574-.362.931-.839,1.817-1.455,3.135-3.664-4.263-7.888-7.566-9.791-12.574-.91-2.394-1.114-5.059-1.608-7.607-.088-.456.073-1.011-.078-1.4,0-.02.008-.039.009-.058q.008-.132.016-.264a1.366,1.366,0,0,0-1.219-1.45,1.111,1.111,0,0,0-.17,0h0a1.135,1.135,0,0,0-.13.008,1.36,1.36,0,0,0-1.168.866,2.653,2.653,0,0,0-.127,1.5c0,.018.011.033.016.05a40.245,40.245,0,0,0,.772,6.952c1.175,5.164,4.547,9.093,8.253,12.575,2.97,2.789,4.244,5.439,1.678,9.053a9.429,9.429,0,0,0-.683,1.448c-2.75-2.215-5.409-4.348-8.059-6.492a92.017,92.017,0,0,1-7.2-5.938,18.5,18.5,0,0,1-4.791-9.8c-.21-1.051-.425-2.13-1.87-1.811-1.312.289-1.123,1.312-.968,2.3a21.661,21.661,0,0,0,8.027,13.872c1.064.861,2.151,1.695,3.243,2.521-.072.136-.148.27-.219.406-1.424,2.728-2.861,5.455-4.335,8.259,0,.024-.007.049-.01.073-.879-1.1-1.764-2.186-2.682-3.243a22.9,22.9,0,0,0-13.631-7.441,3.014,3.014,0,0,0-.783-.12c-.025-.005-.048-.016-.074-.02a1.009,1.009,0,0,0-.528-.02l-.292.063a1.008,1.008,0,0,0-.486.207,1.325,1.325,0,0,0-.568.825,1.009,1.009,0,0,0-.02.528l.112.341.191.29.255.228a1.942,1.942,0,0,0,.382.19l.07.018a1.37,1.37,0,0,0,.347.221,34.919,34.919,0,0,0,3.7.877c5.406,1.481,9.082,5.2,12.251,9.559.765,1.052,1.553,2.088,2.658,3.572-4.326.16-8.17.536-11.991.374-3.55-.151-6.333-2.109-8.418-5-.7-.968-1.614-1.7-2.693-.762-1.022.889-.277,1.81.377,2.652a14.878,14.878,0,0,0,9.836,6.018c.677.1,1.347.238,2.189.389a17.449,17.449,0,0,0-.806,1.73,3.361,3.361,0,0,0-.187.515,1.335,1.335,0,0,0-.146.477l.018.359a1.389,1.389,0,0,0,1.359,1.093,1.409,1.409,0,0,0,.382-.015,1.3,1.3,0,0,0,.625-.294,1.373,1.373,0,0,0,.168-.122,1.477,1.477,0,0,0,.182-.248,4.324,4.324,0,0,1,.243-.494c.053-.078.08-.162.122-.23,3.073-5.082,7.257-3.951,11.848-2.629,1.387.4.989.318,2.163,1.306,1.442,1.215,2.176,4.411,2.574,7.016q1.289-.482,2.728-.895a17.763,17.763,0,0,0-4.628-9.38" transform="translate(-195.02 -132.077)" fill="#fcf3f9"/>
          <path id="Path_616" data-name="Path 616" d="M506.869,276.492a4.756,4.756,0,0,1,1.549-1.2,6.715,6.715,0,0,0,.948-.11c.155-.018.31-.029.464-.056a7.386,7.386,0,0,0,1.46-.367,2.723,2.723,0,0,0,1.7-2.012,2.656,2.656,0,0,0,.073-.39,1,1,0,0,1,.264-.569,2.178,2.178,0,0,1,.923-.592c.152-.057.309-.1.482-.16a1.832,1.832,0,0,0-.537-.177.242.242,0,0,1-.125-.078,1.469,1.469,0,0,0-2.547.385c-.009.023-.017.046-.03.08-.052-.07-.1-.133-.143-.194a6.032,6.032,0,0,0-.936-.9,15.012,15.012,0,0,0-2.477-1.664c-.079-.041-.161-.077-.265-.126a6.407,6.407,0,0,0,1.842,3.48.423.423,0,0,1-.124-.012,2.032,2.032,0,0,1-.367-.173c-.486-.333-.965-.676-1.446-1.015a.2.2,0,0,0-.1-.043c.049.143.092.289.149.428a5.646,5.646,0,0,0,1,1.541c.157.181.322.356.49.54a4.728,4.728,0,0,0-2.258,3.386" transform="translate(-416.529 -220.531)" fill="#d26c7f"/>
          <path id="Path_617" data-name="Path 617" d="M489.2,311.318h4.023v4.023H489.2Zm0-5.094h4.023v4.023H489.2Zm5.094,5.094h4.023v4.023H494.3Zm0-5.094h4.023v4.023H494.3Zm11.178,16.1c.01-1.133,0-5.166,0-5.8q0-5.134,0-10.268v-.375c.185.156.333.266.463.4a.75.75,0,0,0,.939.144,2.929,2.929,0,0,0,1.453-1.533.262.262,0,0,1,.051-.061V304.2a2.774,2.774,0,0,0-.894-1.113q-6.267-5.474-12.525-10.959a1.649,1.649,0,0,0-2.379.022q-6.4,5.865-12.8,11.726a1.506,1.506,0,0,0-.588,1.633,1.9,1.9,0,0,0,2.128,1.311,1.878,1.878,0,0,0,.582-.34c.289-.229.556-.485.887-.78v.384c0,3.264.01,9.173,0,13.4q1.825-.094,3.726-.1a56.143,56.143,0,0,1,18.952,2.937" transform="translate(-393.74 -239.651)" fill="#fcf3f9"/>
          <path id="Path_618" data-name="Path 618" d="M257.273,331.76c-2.434,1.444-.11,5.013,1.262,6.166a18.635,18.635,0,0,0,8.326,4.151,44.56,44.56,0,0,1-4.169-5.221c-1.718-2.267-2.9-6.591-5.419-5.1" transform="translate(-210.546 -272.377)" fill="#fcf3f9"/>
          <path id="Path_619" data-name="Path 619" d="M359.481,212.882a44.561,44.561,0,0,1-1.261-6.561c-.466-2.806.5-7.183-2.425-7.032-2.826.145-2.43,4.387-1.752,6.045a18.638,18.638,0,0,0,5.439,7.548" transform="translate(-290.538 -163.766)" fill="#fcf3f9"/>
          <path id="Path_620" data-name="Path 620" d="M437.4,211.7a18.638,18.638,0,0,0,6.693,6.462,44.605,44.605,0,0,1-2.407-6.233c-.957-2.678-.783-7.158-3.636-6.489-2.755.645-1.612,4.749-.65,6.26" transform="translate(-358.559 -168.765)" fill="#fcf3f9"/>
          <path id="Path_621" data-name="Path 621" d="M511.72,202.577a33.865,33.865,0,0,0,5.117-1.813c2.871-1.392,5.413-4.14,5.315-7.508-.047-1.6-2.547-1.612-2.5,0,.066,2.264-1.566,3.941-3.443,5.011a11.668,11.668,0,0,0-1.321-6.661,1.261,1.261,0,0,0-1.71-.448,1.277,1.277,0,0,0-.448,1.71q.185.346.345.7c.018.048.111.275.121.3q.062.168.118.339a12.053,12.053,0,0,1,.4,1.686c.008.067.016.135.022.2q.021.209.033.418.024.418.014.837t-.055.836c0,.033-.007.067-.011.1,0,.017-.007.046-.016.1-.029.157-.056.314-.088.471a1.454,1.454,0,0,0-.01.515c-1.2.4-2.415.726-3.615,1.113-.477.154-.959.327-1.427.528a16.483,16.483,0,0,1-.451,3.227,8.361,8.361,0,0,1,3.607-1.672" transform="translate(-417.551 -156.948)" fill="#fcf3f9"/>
          <path id="Path_622" data-name="Path 622" d="M494.658,249.124a1.291,1.291,0,0,0,0,1.768,1.258,1.258,0,0,0,1.768,0,3.7,3.7,0,0,1,.342-.377,16.511,16.511,0,0,0,.451-3.227,6.271,6.271,0,0,0-2.561,1.836" transform="translate(-406.206 -203.213)" fill="#fcf3f9"/>
          <rect id="Rectangle_452" data-name="Rectangle 452" width="4.023" height="4.023" transform="translate(95.464 66.573)" fill="#d26c7f"/>
          <rect id="Rectangle_453" data-name="Rectangle 453" width="4.023" height="4.023" transform="translate(95.464 71.667)" fill="#d26c7f"/>
          <rect id="Rectangle_454" data-name="Rectangle 454" width="4.023" height="4.023" transform="translate(100.558 71.667)" fill="#d26c7f"/>
          <rect id="Rectangle_455" data-name="Rectangle 455" width="4.023" height="4.023" transform="translate(100.558 66.573)" fill="#d26c7f"/>
        </g>
      </g>
      <g id="Ellipse_25" data-name="Ellipse 25" transform="translate(626.5 5309.977)" fill="none" stroke="#1c2f2b" stroke-width="2">
        <circle cx="75.5" cy="75.5" r="75.5" stroke="none"/>
        <circle cx="75.5" cy="75.5" r="74.5" fill="none"/>
      </g>
    </g>
  </g>
</svg>
