<svg xmlns="http://www.w3.org/2000/svg" width="203" height="203" viewBox="0 0 203 203">
  <g id="theehuis-l" transform="translate(-598.5 -3523.819)">
    <circle id="Ellipse_21" data-name="Ellipse 21" cx="90.5" cy="90.5" r="90.5" transform="translate(609.5 3534.819)" fill="#fff"/>
    <g id="Ellipse_22" data-name="Ellipse 22" transform="translate(598.5 3523.819)" fill="none" stroke="#fff" stroke-width="2">
      <circle cx="101.5" cy="101.5" r="101.5" stroke="none"/>
      <circle cx="101.5" cy="101.5" r="100.5" fill="none"/>
    </g>
    <g id="Group_106" data-name="Group 106" transform="translate(652.687 3570.763)">
      <path id="Path_897" data-name="Path 897" d="M79.163,53.131H75.054V27.967a21.386,21.386,0,1,0-42.772,0v3.8H24.53a2.3,2.3,0,0,0-1.829.92L16.376,41.2a2.308,2.308,0,0,0-.449,1.258L13.964,86.514a2.286,2.286,0,0,0,2.28,2.378H55.285a2.281,2.281,0,0,0,2.266-2.527L55.237,65.131a.807.807,0,0,0-.08-.742L52.752,42.3A2.263,2.263,0,0,0,52.3,41.18L45.99,32.688a2.293,2.293,0,0,0-1.828-.919h-9.5v-3.8a19.006,19.006,0,1,1,38.013,0V53.131h-3.5a1.5,1.5,0,0,0-1.5,1.5v13.1a1.5,1.5,0,0,0,1.5,1.5h9.984a1.5,1.5,0,0,0,1.5-1.5v-13.1a1.5,1.5,0,0,0-1.5-1.5ZM46.6,86.513H16.346L16.765,77l31.321-9.136Zm5-32.847,1.136,10.363-2.008.586L51.6,53.666ZM53,66.432l2.2,20.081H48.988l1.542-19.36ZM44.081,34.107,50.13,42.22,48.29,65.328,16.877,74.49l1.409-31.877,6.245-8.465,7.752-.016v3.776a1.19,1.19,0,1,0,2.379,0v-3.78l9.418-.02Zm34.2,32.75H70.057V55.51h8.227Z" transform="translate(0)" fill="#16302c"/>
      <path id="Path_898" data-name="Path 898" d="M20.472,81.481a1.19,1.19,0,0,0,1.195-1.195,1.157,1.157,0,0,0-.348-.835,1.24,1.24,0,0,0-1.682-.011,1.2,1.2,0,0,0-.349.846,1.21,1.21,0,0,0,1.184,1.195Zm8.884,0a1.191,1.191,0,0,0,1.195-1.195,1.158,1.158,0,0,0-.349-.835,1.227,1.227,0,0,0-1.681,0,1.158,1.158,0,0,0-.349.835,1.191,1.191,0,0,0,1.184,1.195Zm8.883,0a1.191,1.191,0,0,0,1.195-1.195,1.158,1.158,0,0,0-.349-.835A1.238,1.238,0,0,0,37.4,79.44a1.2,1.2,0,0,0-.349.846,1.21,1.21,0,0,0,1.184,1.195ZM24.914,76.669a1.191,1.191,0,0,0,1.195-1.195,1.243,1.243,0,0,0-.349-.847,1.228,1.228,0,0,0-1.681.012,1.189,1.189,0,0,0,.835,2.03Zm8.894,0a1.191,1.191,0,0,0,1.184-1.195,1.243,1.243,0,0,0-.349-.847,1.228,1.228,0,0,0-1.681.012,1.19,1.19,0,0,0,.846,2.03Zm8.871,0a1.2,1.2,0,0,0,.847-2.042,1.229,1.229,0,0,0-1.682.012,1.189,1.189,0,0,0,.835,2.03ZM52.2,81.481a1.19,1.19,0,0,0,.847-2.03,1.24,1.24,0,0,0-1.682-.011,1.195,1.195,0,0,0,.835,2.041ZM38.239,71.963a1.191,1.191,0,0,0,1.195-1.195,1.158,1.158,0,0,0-.349-.835,1.227,1.227,0,0,0-1.681,0,1.158,1.158,0,0,0-.349.835,1.191,1.191,0,0,0,1.184,1.195Z" transform="translate(0.306 3.622)" fill="#16302c"/>
    </g>
  </g>
</svg>
